<svg id="Layer_1" data-name="Layer 1" xmlns="http://www.w3.org/2000/svg" viewBox="0 0 32 32"><defs><style>.cls-1{fill:none;}.cls-2{fill:#fff;stroke:#000;stroke-linecap:round;stroke-linejoin:round;stroke-width:2px;}</style></defs><rect class="cls-1" width="32" height="32"/><path id="Vimeo" class="cls-2" d="M26.992,10.79c-.088,2.156-1.581,5.08-4.486,8.819-2.991,3.87-5.52,5.828-7.61,5.828-1.275,0-2.375-1.188-3.254-3.563L9.861,15.343q-.99-3.564-2.111-3.563a6.917,6.917,0,0,0-1.719,1.031L5,11.494c1.077-.946,2.155-1.914,3.211-2.86,1.451-1.253,2.529-1.913,3.254-1.979,1.719-.154,2.771,1.011,3.167,3.519.418,2.705.726,4.4.88,5.058.481,2.243,1.031,3.364,1.627,3.364.462,0,1.143-.726,2.067-2.177A8.564,8.564,0,0,0,20.68,13.1c.132-1.252-.349-1.89-1.473-1.89a4.437,4.437,0,0,0-1.626.35c1.077-3.54,3.145-5.278,6.2-5.168C26.046,6.436,27.1,7.909,26.992,10.79Z"/></svg>