<svg xmlns="http://www.w3.org/2000/svg" width="121.414" height="87.18" viewBox="0 0 121.414 87.18">
  <g id="Group_137" data-name="Group 137" transform="translate(-1044.033 -969.304) rotate(7)">
    <g id="Group_136" data-name="Group 136" transform="translate(82)">
      <path id="Path_329" data-name="Path 329" d="M3193.528,9314.063c2.461,0,8.039,4.508,12.4-3.406s5.78-15.691,5.037-28.251c-.426-7.2-.678-21.48-5.037-30.707s-12.4-6.2-12.4-6.2" transform="translate(-2019.191 -8410)" fill="#fff" stroke="#000" stroke-width="5"/>
      <path id="Path_330" data-name="Path 330" d="M3206.06,9246.3c-6.259,0-8.314,24.265-6.791,36.1s-.694,29.368,6.791,31.657,10.607-19.1,9.66-31.657S3212.318,9246.3,3206.06,9246.3Z" transform="translate(-2033 -8410)" fill="#fff" stroke="#000" stroke-width="5"/>
    </g>
    <g id="Rectangle_1006" data-name="Rectangle 1006" transform="translate(1183 862)" fill="#fff" stroke="#000" stroke-linecap="round" stroke-linejoin="round" stroke-width="5">
      <rect width="75" height="16" stroke="none"/>
      <rect x="2.5" y="2.5" width="70" height="11" fill="none"/>
    </g>
    <g id="Group_135" data-name="Group 135">
      <path id="Path_329-2" data-name="Path 329" d="M3193.528,9314.063c2.461,0,8.039,4.508,12.4-3.406s5.78-15.691,5.037-28.251c-.426-7.2-.678-21.48-5.037-30.707s-12.4-6.2-12.4-6.2" transform="translate(-2019.191 -8410)" fill="#fff" stroke="#000" stroke-width="5"/>
      <path id="Path_330-2" data-name="Path 330" d="M3206.06,9246.3c-6.259,0-8.314,24.265-6.791,36.1s-.694,29.368,6.791,31.657,10.607-19.1,9.66-31.657S3212.318,9246.3,3206.06,9246.3Z" transform="translate(-2033 -8410)" fill="#fff" stroke="#000" stroke-width="5"/>
    </g>
  </g>
</svg>
