<?xml version="1.0" encoding="utf-8"?>
<!-- Generator: Adobe Illustrator 23.0.6, SVG Export Plug-In . SVG Version: 6.00 Build 0)  -->
<svg version="1.1" id="Layer_1" xmlns="http://www.w3.org/2000/svg" xmlns:xlink="http://www.w3.org/1999/xlink" x="0px" y="0px"
	 viewBox="0 0 142.5 269.1" style="enable-background:new 0 0 142.5 269.1;" xml:space="preserve">
<style type="text/css">
	.st0{fill:#FFFFFF;stroke:#DE4A3F;stroke-width:5;stroke-linecap:round;stroke-linejoin:round;}
	.st1{fill:#FFFFFF;}
	.st2{fill:#DE4A3F;}
</style>
<g id="Group_150" transform="translate(-1348.742 -719.451)">
	<path id="Union_11" class="st0" d="M1389.5,921.4c-5.2-0.6-3.3-7.2-4.1-10.2c-0.6-2.3,9-41.1,14.2-62c-3.5-3.1-3.1-7.7-3.2-9.1
		c-0.2-1.6-2.2-22.6-3.4-25.4c-1.2-2.8-13.6-26.8-17.4-32.6s-11.3-24.2-9.5-24s15.8,31.1,19.6,36.1c3.8,5,14.4,19.6,15.5,24
		c0.4,1.8,1.9,7.6,3.3,13.7c4.6-11.2,14.5-28.2,18.4-34.5c4.6-7.5,26.7-68,28-66s-11.2,39.3-16.2,49s-23.2,54.4-25.1,60
		c-0.4,1.1-1,3.9-1.9,7.7c0.1,1.2,0.1,1.9-0.1,1.9c-0.1,0-0.3,0.1-0.4,0.2c-1.3,6-2.9,14-4.4,21.8c4.2-4.6,8.1-8.8,9.3-10.1
		c3.1-3.3,19.4-10.9,25.2-13.5s33-22.8,34.6-22.1s-13.9,13.2-20,16.4s-28.6,18.2-31,20.1c-2.4,1.9-14.3,19.2-15.3,20.6
		c-0.8,1.1-2.4,4.7-6.2,6.1c-1.2,6.4-2.1,11.1-2.3,12.2C1396.3,905.6,1394.5,921.4,1389.5,921.4
		C1389.7,921.4,1389.6,921.4,1389.5,921.4z"/>
	<path id="Path_343" class="st0" d="M1378.7,785.8c0,0,4.6-13.7,0.1-25s-16.7-23.6-16.7-23.6s-4.2,23.2-0.1,35.3
		C1366.2,784.7,1378.7,785.8,1378.7,785.8z"/>
	<path id="Path_344" class="st0" d="M1429.9,784.3c0,0-9.6-17.2-2.1-30.9c7.6-13.7,29-27.9,29-27.9s9.6,28.9,2.9,43.6
		C1452.9,783.8,1429.9,784.3,1429.9,784.3z"/>
	<path id="Path_345" class="st0" d="M1447.3,841c0,0,1.2-13.2,10.3-19c9-5.8,25.7-7.6,25.7-7.6s-5.6,20.1-14.6,26.8
		C1459.7,847.8,1447.3,841,1447.3,841z"/>
	<g id="Group_149" transform="matrix(0.995, 0.105, -0.105, 0.995, 1352.579, 891.85)">
		<g id="Path_321" transform="translate(5.416 8.022)">
			<path class="st1" d="M32.9,77.7c-7.5,0-12.9-1-16.1-1.9c-1.9-0.5-3.2-1-4-1.4c-1.3-4.3-6.1-21.3-8.3-37.5C2.4,22.3,2.4,8,2.5,2.5
				l74.2,0c-1.6,7.6-5.8,27.9-7.6,43.1c-1.2,10-1.3,17.8-1.1,22.6c0.1,2.5,0.2,4.5,0.3,5.9C62.1,75.1,44.8,77.7,32.9,77.7z"/>
			<path class="st2" d="M5,5c0,6.5,0.2,18.9,1.9,31.6c2.1,14.8,6.3,30.4,7.9,36c0.8,0.3,1.8,0.6,3.1,1c3,0.8,8,1.7,15,1.7
				c10.5,0,25.4-2.1,32.8-3.2c-0.3-5.2-0.4-14.4,1-26.7c1.6-13.8,5.1-31.2,7-40.3L5,5 M0.1,0l79.7,0c0,0-6,26.9-8.2,45.9
				C69.4,65,71,76.2,71,76.2s-23.1,4-38.1,4s-22.2-4-22.2-4S4.6,56.3,2,37.3C-0.7,18.2,0.1,0,0.1,0z"/>
		</g>
		<g id="Path_322" transform="translate(0 0)">
			<path class="st1" d="M51.8,24.1c-18.7,0-41.1-2.1-48-2.8l-1.1-18C6.9,3,16.8,2.5,33,2.5c19,0,47.2,0.7,55.7,0.9l-0.4,18.9
				C83.2,22.8,69.3,24.1,51.8,24.1z"/>
			<path class="st2" d="M33,5C19.5,5,10.3,5.4,5.3,5.6L6.1,19c8.5,0.8,28.6,2.5,45.6,2.5c15.4,0,27.8-0.9,34.1-1.5l0.3-14.2
				C75.6,5.6,50.5,5,33,5 M33,0c22.8,0,58.2,1,58.2,1l-0.5,23.6c0,0-16.3,2-39,2s-50.4-3-50.4-3L0,1C0,1,10.2,0,33,0z"/>
		</g>
	</g>
</g>
</svg>
