<svg xmlns="http://www.w3.org/2000/svg" width="150.415" height="92.84" viewBox="0 0 150.415 92.84">
  <g id="Group_168" data-name="Group 168" transform="matrix(0.998, 0.07, -0.07, 0.998, -380.652, -788.996)">
    <path id="Path_406" data-name="Path 406" d="M0,0S1.236,38.64,1.038,44.989s.925,40.071.925,40.071,4.185,4.462,6.167.1-1.162-47.444-1.276-55.3S6.167.1,6.167.1Z" transform="translate(474.779 760.714) rotate(-3)" fill="#fff" stroke="#000" stroke-linejoin="round" stroke-width="5"/>
    <path id="Path_407" data-name="Path 407" d="M3.27,144.8S2.13,80.49,1.541,69.906,0,3.2,0,3.2s3.914-7.255,6.168.1S7.925,82.277,8.294,95.35,9.438,144.9,9.438,144.9Z" transform="translate(585.992 803.765) rotate(87)" fill="#fff" stroke="#000" stroke-linejoin="round" stroke-width="5"/>
    <path id="Path_408" data-name="Path 408" d="M0,0S1.236,38.64,1.038,44.989s.925,40.071.925,40.071,4.185,4.462,6.167.1-1.162-47.444-1.276-55.3S6.167.1,6.167.1Z" transform="translate(531.926 756.277) rotate(-3)" fill="#fff" stroke="#000" stroke-linejoin="round" stroke-width="5"/>
    <path id="Path_409" data-name="Path 409" d="M0,0S1.83,64.323,1.73,74.9,3.271,141.6,3.271,141.6s4.252,7.385,6.168.1S7.547,62.72,7.312,49.65,6.168.1,6.168.1Z" transform="translate(583.896 776.81) rotate(87)" fill="#fff" stroke="#000" stroke-linejoin="round" stroke-width="5"/>
  </g>
</svg>
