<svg xmlns="http://www.w3.org/2000/svg" width="87.532" height="133.459" viewBox="0 0 87.532 133.459">
  <g id="Group_134" data-name="Group 134" transform="matrix(0.966, -0.259, 0.259, 0.966, -1166.615, -201.969)">
    <path id="Path_325" data-name="Path 325" d="M2856.519,7438.471s-4.908,14.854-12.083,25.808c-6.4,9.777-15.17,14.967-14.7,28.6.984,28.7,15.357,29.269,26.785,29.269s23.605-8.35,23.605-29.269c0-8.786-8.958-11.485-14.86-25.086S2856.519,7438.471,2856.519,7438.471Z" transform="translate(-1765 -6892.764)" fill="#fff" stroke="#000" stroke-linecap="round" stroke-linejoin="round" stroke-width="5"/>
    <path id="Path_326" data-name="Path 326" d="M2844.88,7438.471a65.9,65.9,0,0,0,7.762,14.052c4.114,5.324,9.746,8.149,9.445,15.572-.633,15.625-9.866,15.937-17.207,15.937s-15.164-4.546-15.164-15.937c0-4.784,5.755-6.253,9.546-13.659A74.3,74.3,0,0,0,2844.88,7438.471Z" transform="translate(-1718.099 -6919.674)" fill="#fff" stroke="#000" stroke-linecap="round" stroke-linejoin="round" stroke-width="5"/>
  </g>
</svg>
