<svg xmlns="http://www.w3.org/2000/svg" width="311.998" height="98.985" viewBox="0 0 311.998 98.985">
  <g id="Our_Team" data-name="Our Team" transform="translate(-20.408 -1031.645)">
    <g id="Group_477" data-name="Group 477" transform="translate(97.326 1039.692)">
      <path id="Path_1045" data-name="Path 1045" d="M31.536.007C17.053-.631.932,13.4.932,33.658S14.351,73.35,31.536,73.35,61.493,56.932,61.493,36.678,46.019.644,31.536.007Z" transform="translate(3.536 12.262)" fill="#fff" stroke="#000" stroke-linecap="round" stroke-linejoin="round" stroke-width="2"/>
      <path id="Path_1048" data-name="Path 1048" d="M911.856,1714.086s-.716,2.433-2.433,2.433-4.294-13.662-2.576-16.095,3.9,0,3.9,0" transform="translate(-906.28 -1657.653)" fill="none" stroke="#000" stroke-linecap="round" stroke-linejoin="round" stroke-width="2"/>
      <path id="Path_1054" data-name="Path 1054" d="M1152.962,2146.464s-2.712-19.224-.9-27.005a13.17,13.17,0,0,1,1.814-4.769c.887-2.746,1.648-2.168,3.6-4.164.05-.054,2.3-3.7,2.655-4.029,2.1-1.979,2.842-4.025,5.8-4.166,1.436-2.206,4.786-1.1,6.041-2.775,2.415.1,3.372-2.583,6.437-1.013,2.2-.625,2.678,1.109,5.737-.141,2.366,1.723,3.8-1.271,6.63,1,1.958,2.3,4.032-.539,6.111,2.437.932.505,3.026-.613,2.961,1.92,2.459.3.544,2.352,3.564,3.3.33,2.362,3.362,1.574,3.573,4.873a46.434,46.434,0,0,1,4.727,11.873c1.582,5.95,0,21.055,0,21.055h-2.034s0-15.791-7.006-21.055-11.522-.687-17.4,0-6.553,2.975-13.783,3.2-11.926,0-11.926,0l-2.938,19.453Z" transform="translate(-1147.383 -2098.05)" fill="#fff" stroke="#000" stroke-linecap="round" stroke-linejoin="round" stroke-width="2"/>
      <path id="Path_1055" data-name="Path 1055" d="M906.28,1714.086s.716,2.433,2.433,2.433,4.294-13.662,2.576-16.095-3.9,0-3.9,0" transform="translate(-842.265 -1657.653)" fill="none" stroke="#000" stroke-linecap="round" stroke-linejoin="round" stroke-width="2"/>
    </g>
    <g id="Group_476" data-name="Group 476" transform="translate(179.571 1032.645)">
      <path id="Path_1046" data-name="Path 1046" d="M34.461.008C18.593-.664.932,14.132.932,35.482s14.7,41.842,33.529,41.842S67.28,60.016,67.28,38.666,50.328.68,34.461.008Z" transform="translate(4.842 14.422)" fill="#fff" stroke="#000" stroke-linecap="round" stroke-linejoin="round" stroke-width="2"/>
      <path id="Path_1052" data-name="Path 1052" d="M986.7,2001.878s-2.785-10.162-1.065-15.438a35.35,35.35,0,0,0,1.865-8.151l-7.967-1.054,9.746-3.517-5.733-4.1H991a34.331,34.331,0,0,1-1.72-7.034c-.573-4.1,1.72-9.965,1.72-9.965l2.007,5.275a38.655,38.655,0,0,1,1.405-5.275,21.617,21.617,0,0,1,2.034-4.1v8.228s1.98-5.368,3.138-6.552,3.165-3.315,3.165-3.315l-1.776,6.473s4.579-3.218,15.6-3.157,26.9,4.795,31.091,11.333,3.969,40.355,3.969,40.355h-2.426s-1.1-18.938-5.733-22.883-13.23-7.552-26.019-7.1-24.035,6.313-25.578,9.919-2.6,20.065-2.6,20.065Z" transform="translate(-979.538 -1946.875)" fill="#fff" stroke="#000" stroke-linecap="round" stroke-linejoin="round" stroke-width="2"/>
      <path id="Path_1064" data-name="Path 1064" d="M171.712,1098.427c-.307-1.229,2.292-1.367,4.135-1.162s3.073-.272,3.687,1.162-2.049,3.892-3.687,3.892S172.019,1099.656,171.712,1098.427Z" transform="translate(-135.292 -1016.3)" fill="none" stroke="#000" stroke-linecap="round" stroke-linejoin="round" stroke-width="2"/>
      <path id="Union_51" data-name="Union 51" d="M62.507,0h2.3s-.873,14.4-8.864,26.048-13.894,14.53-23.1,14.34C19,40.1,15.167,36.465,6.975,24.819A40.481,40.481,0,0,1,.074,0H1.968S5.013,14.6,12.732,22.907,25.806,33.218,32.844,33.218c7.368,0,8.929.569,16.345-7.736S62.507,0,62.507,0Z" transform="translate(7.158 56.259)" fill="#fff" stroke="#000" stroke-linecap="round" stroke-linejoin="round" stroke-width="2"/>
      <path id="Path_1073" data-name="Path 1073" d="M934.192,1707.6c1.515-1.755,2.909-3.386,6.061-3.386h12.364c2.521,0,3.818,1.236,5.091,2.659s1.733,3.03,0,3.03a19.958,19.958,0,0,1-5.091-1.212c-1.418-.4-10.788-.4-12.364,0s-5.178,2.942-6.061,2.545S932.677,1709.353,934.192,1707.6Z" transform="translate(-905.76 -1634.506)" fill="none" stroke="#000" stroke-linecap="round" stroke-linejoin="round" stroke-width="2"/>
    </g>
    <g id="Group_478" data-name="Group 478" transform="translate(21.408 1040.414)">
      <path id="Path_1047" data-name="Path 1047" d="M32.9,80.454c-15.13.7-31.971-14.7-31.971-36.92S10.721-.238,32.9-.014,64.2,18,64.2,40.22,48.032,79.755,32.9,80.454Z" transform="translate(-0.932 0.016)" fill="#fff" stroke="#000" stroke-linecap="round" stroke-linejoin="round" stroke-width="2"/>
      <path id="Union_47" data-name="Union 47" d="M31.991,40.388C18.5,40.1,14.773,36.466,6.794,24.82A41.34,41.34,0,0,1,.072,0H1.917S3.542,11.712,15.78,21.195c.195.152.446.338.734.544.58-1.168,1.313-2.75,2.047-4.616,1.423-3.622,8.818-2.959,13.754-2.764,4.937-.195,12.332-.859,13.755,2.764.629,1.6,1.258,2.991,1.789,4.091A35.171,35.171,0,0,0,60.885,0h2.24s-.85,14.4-8.633,26.048C46.943,37.343,41.3,40.4,32.792,40.4,32.527,40.4,32.261,40.394,31.991,40.388Zm0-7.17c6.365,0,8.927-5.919,12.39-9.3-.771-1.849-2.052-3.964-4-4.529a26.812,26.812,0,0,0-7.071-.905l-.819,0-.98.006a28.179,28.179,0,0,0-7.266.9c-2.164.629-3.506,3.177-4.239,5.142C23.023,27.786,26.384,33.218,31.991,33.218Z" transform="translate(0.119 42.497)" fill="#fff" stroke="#000" stroke-linecap="round" stroke-linejoin="round" stroke-width="2"/>
    </g>
    <g id="Group_480" data-name="Group 480" transform="translate(264.346 1036.426)">
      <path id="Path_1047-2" data-name="Path 1047" d="M32.9,80.444C17.77,81.144.932,65.746.932,43.528S10.72-.238,32.9-.014,64.187,18,64.187,40.215,48.025,79.745,32.9,80.444Z" transform="translate(1.345 4.175)" fill="#fff" stroke="#000" stroke-linecap="round" stroke-linejoin="round" stroke-width="2"/>
      <path id="Union_43" data-name="Union 43" d="M31.915,46.585C18.429,46.3,11.272,48.13,5.5,32.659S0,0,0,0H1.847s1.624,11.712,13.86,21.195c.195.152.446.338.734.544.58-1.168,1.313-2.75,2.046-4.616C19.91,13.5,27.3,14.164,32.239,14.359c4.936-.195,12.33-.859,13.753,2.764.629,1.6,1.257,2.991,1.789,4.091A35.173,35.173,0,0,0,60.8,0h2.239s-2.761,21.263-7.185,33.873C51.844,45.317,42.777,46.616,34.434,46.616,33.584,46.616,32.743,46.6,31.915,46.585Zm0-16.108c6.345,0,8.91-3.741,12.357-6.631-.774-1.832-2.046-3.9-3.966-4.457a26.8,26.8,0,0,0-7.069-.905l-.819,0-.98.006a28.169,28.169,0,0,0-7.265.9c-2.1.61-3.424,3.024-4.17,4.962C23,26.933,26.351,30.477,31.915,30.477Z" transform="translate(2.467 46.588)" fill="#fff" stroke="#000" stroke-linecap="round" stroke-linejoin="round" stroke-width="2"/>
      <g id="Group_482" data-name="Group 482" transform="translate(0 0)">
        <path id="Union_44" data-name="Union 44" d="M40.493,26.189A56.807,56.807,0,0,0,28.4,24.724v0l-.145,0-.145,0v0a56.807,56.807,0,0,0-12.091,1.465A147.963,147.963,0,0,0,0,31.16S1.912,14.443,9.013,6.694c6.6-7.2,17.68-6.656,19.211-6.543C29.45,0,40.468-1.129,47.167,6.181c7.1,7.749,9.347,24.979,9.347,24.979A147.963,147.963,0,0,0,40.493,26.189Z" transform="translate(5.776)" fill="#fff" stroke="#000" stroke-linecap="round" stroke-linejoin="round" stroke-width="2"/>
        <path id="Union_45" data-name="Union 45" d="M33.745,4.073C17.056,5.2.368,10.976,0,8.133S23.649-.4,33.745.022C43.712-.4,67.415,5.3,67.057,8.133c-.07.551-.745.778-1.909.778C60.309,8.912,47.027,4.983,33.745,4.073Z" transform="translate(0 24.701)" fill="#fff" stroke="#000" stroke-linecap="round" stroke-linejoin="round" stroke-width="2"/>
      </g>
    </g>
  </g>
</svg>
