<?xml version="1.0" encoding="utf-8"?>
<!-- Generator: Adobe Illustrator 23.0.6, SVG Export Plug-In . SVG Version: 6.00 Build 0)  -->
<svg version="1.1" id="Layer_1" xmlns="http://www.w3.org/2000/svg" xmlns:xlink="http://www.w3.org/1999/xlink" x="0px" y="0px"
	 viewBox="0 0 57.4 59.3" style="enable-background:new 0 0 57.4 59.3;" xml:space="preserve">
<style type="text/css">
	.st0{fill:#FFFFFF;stroke:#000000;stroke-width:5;stroke-miterlimit:10;}
</style>
<g id="Group_55" transform="translate(0 2.143) rotate(-3)">
	<g id="Path_39" transform="translate(0 0)">
		<path class="st0" d="M20.5,36.1c-2.3,0-4.6-0.5-6.8-1.4c-2.1-0.9-4-2.2-5.6-3.8C4.9,27.6,3,23.5,3,19.5c0-4,1.9-8.1,5.1-11.3
			c1.6-1.6,3.5-2.9,5.6-3.8C15.9,3.5,18.2,3,20.5,3c4.8,0,8.2,0.8,12.7,5.1c2.2,2.1,3.4,3.7,4,5.4c0.6,1.7,0.8,3.5,0.8,6
			c0,4.4-1.8,8.5-5.1,11.6C29.6,34.3,25.2,36.1,20.5,36.1z"/>
	</g>
	<g id="Path_40" transform="translate(13.543 21.416)">
		<path class="st0" d="M37.7,33.5L4.2,32.9L3.1,4C7.4,3.6,16,3,23.2,3c6.3,0,11.6,0.5,14.6,0.9c-0.2,4.2-0.5,12.4-0.5,18.7
			C37.3,27.3,37.5,31,37.7,33.5z"/>
	</g>
</g>
</svg>
