<?xml version="1.0" encoding="utf-8"?>
<!-- Generator: Adobe Illustrator 23.0.6, SVG Export Plug-In . SVG Version: 6.00 Build 0)  -->
<svg version="1.1" id="Layer_1" xmlns="http://www.w3.org/2000/svg" xmlns:xlink="http://www.w3.org/1999/xlink" x="0px" y="0px"
	 viewBox="0 0 59.6 57.6" style="enable-background:new 0 0 59.6 57.6;" xml:space="preserve">
<style type="text/css">
	.st0{fill:#FFFFFF;stroke:#000000;stroke-width:5;stroke-miterlimit:10;}
	.st1{fill:#FFFFFF;stroke:#000000;stroke-width:3;stroke-miterlimit:10;}
</style>
<g id="Group_54" transform="translate(0 2.975) rotate(-3)">
	<g id="Path_42" transform="translate(0 0)">
		<path class="st0" d="M53.6,51.6L4.7,50.8L3.1,4.6C8.7,4.1,21.6,3,32.2,3c9.7,0,17.7,0.9,21.6,1.4C53.5,10.1,53,23.6,53,33.7
			C53,42,53.3,48.1,53.6,51.6z"/>
	</g>
	<g id="Path_43" transform="translate(15.245 15.08)">
		<path class="st0" d="M13,21.8c-2.6,0-5.1-1.1-7.1-3C4.1,17,3,14.6,3,12.4C3,10.2,4.1,7.8,5.9,6c2-1.9,4.5-3,7.1-3
			c2.8,0,4.7,0.4,7.3,2.9c1.2,1.2,2,2.1,2.3,3c0.3,0.9,0.4,2,0.4,3.5C23,17.6,18.5,21.8,13,21.8z"/>
	</g>
	<g id="Path_44" transform="translate(9.225 9.061)">
		<path class="st1" d="M4.9,7.8c-0.9,0-1.7-0.4-2.4-1c-0.6-0.6-1-1.4-1-2.1s0.4-1.5,1-2.1c0.7-0.7,1.5-1,2.4-1c1,0,1.6,0.1,2.5,1
			c0.9,0.8,0.9,1.1,0.9,2.2C8.2,6.4,6.7,7.8,4.9,7.8z"/>
	</g>
</g>
</svg>
