<?xml version="1.0" encoding="utf-8"?>
<!-- Generator: Adobe Illustrator 23.0.6, SVG Export Plug-In . SVG Version: 6.00 Build 0)  -->
<svg version="1.1" id="Layer_1" xmlns="http://www.w3.org/2000/svg" xmlns:xlink="http://www.w3.org/1999/xlink" x="0px" y="0px"
	 viewBox="0 0 64.5 52.6" style="enable-background:new 0 0 64.5 52.6;" xml:space="preserve">
<style type="text/css">
	.st0{fill:#FFFFFF;stroke:#000000;stroke-width:5;stroke-miterlimit:10;}
</style>
<g id="Group_53" transform="translate(-0.213 2.515) rotate(-3)">
	<g id="Path_42" transform="translate(0 17)">
		<path class="st0" d="M43.5,30.1L4.3,29.6L3.1,3.9C8,3.6,18.1,3,26.5,3C34,3,40.3,3.5,43.7,3.8c-0.2,3.9-0.6,11-0.6,16.6
			C43.1,24.5,43.3,27.8,43.5,30.1z"/>
	</g>
	<g id="Path_47" transform="translate(42.993 23.879)">
		<path class="st0" d="M16.3,15.9L3.5,15.7L3.1,3.4C5.3,3.2,8.4,3,11,3c2.1,0,4,0.1,5.4,0.3c-0.1,2.3-0.2,5.7-0.2,8.4
			C16.2,13.4,16.3,14.8,16.3,15.9z"/>
	</g>
	<g id="Path_43" transform="translate(26.623 0)">
		<path class="st0" d="M10.7,17.4c-2,0-3.9-0.8-5.5-2.3C3.8,13.7,3,11.9,3,10.2s0.8-3.5,2.2-4.9C6.8,3.8,8.7,3,10.7,3
			c2.2,0,3.6,0.3,5.6,2.2c1.2,1.2,1.6,1.9,1.8,2.3c0.2,0.6,0.3,1.3,0.3,2.7C18.4,14.2,15,17.4,10.7,17.4z"/>
	</g>
	<g id="Path_46" transform="translate(0.213 0)">
		<path class="st0" d="M10.7,17.4c-2.2,0-3.6-0.3-5.6-2.2c-1.2-1.2-1.6-1.9-1.8-2.3C3.1,12.3,3,11.6,3,10.2C3,6.2,6.5,3,10.7,3
			c2,0,3.9,0.8,5.5,2.3c1.4,1.4,2.2,3.2,2.2,4.9s-0.8,3.5-2.2,4.9C14.7,16.6,12.7,17.4,10.7,17.4z"/>
	</g>
</g>
</svg>
