<svg xmlns="http://www.w3.org/2000/svg" xmlns:xlink="http://www.w3.org/1999/xlink" width="314.049" height="108.595" viewBox="0 0 314.049 108.595">
  <defs>
    <clipPath id="clip-path">
      <path id="phone_photo_mask" data-name="phone photo mask" d="M27.365,57.522c-2.03,0-4.143-.032-6.281-.1C13.9,57.21,4.9,56.751,4.811,56.746a4.35,4.35,0,0,1-2.856-1.392A4.8,4.8,0,0,1,.476,51.993c0-.171-.476-17.3-.476-33.238C0,13.357.053,7.047.158,0H37.5c.11,7.477.166,14.063.166,19.577,0,15.935-.47,32.253-.475,32.416a6.033,6.033,0,0,1-1.465,3.7,4.112,4.112,0,0,1-2.844,1.732C32.862,57.426,30.828,57.522,27.365,57.522Z" transform="translate(0 0)" fill="#fff" stroke="#000" stroke-linejoin="round" stroke-width="2"/>
    </clipPath>
  </defs>
  <g id="Videos_and_Social_Media" data-name="Videos and Social Media" transform="translate(-35.058 -1726.642)">
    <path id="ground" d="M-9352.049-10960.2c28.067,1.391,137.1-1.39,156.539,0s116.594,0,155.461,0" transform="translate(9388.155 12793.725)" fill="none" stroke="#000" stroke-linecap="round" stroke-width="2"/>
    <g id="camera" transform="translate(121.956 1727.642)">
      <g id="camera_tripod" data-name="camera tripod" transform="translate(0 50.876)">
        <g id="tripod_legs" data-name="tripod legs" transform="translate(11.098 0)">
          <path id="Path_710" data-name="Path 710" d="M3.193.052S13.871,0,24.657,0,46.338.052,46.338.052c1.756,0,3.179.163,3.179.363A1.417,1.417,0,0,1,49.971,1.7a17.977,17.977,0,0,1-.454,1.775c0,.2-1.423.363-3.179.363,0,0-11.444.052-22.231.052S3.193,3.837,3.193,3.837C1.438,3.837,1.17,3.623.8,3.375A1.733,1.733,0,0,1,.014,2.033,2.024,2.024,0,0,1,.567.387C.868.116,1.438.052,3.193.052Z" transform="translate(19.508 50.723) rotate(-90)" fill="#fff" stroke="#000" stroke-linejoin="round" stroke-width="2"/>
          <path id="Path_708" data-name="Path 708" d="M3.635,4.73S15.38,3.542,27.241,2.393,51.08.135,51.08.135c1.931-.187,3.485-.179,3.471.019a1.126,1.126,0,0,1,.412,1.216,18.7,18.7,0,0,1-.621,1.8c-.014.2-1.59.509-3.521.7,0,0-12.589,1.27-24.45,2.419s-23,2.176-23,2.176c-1.931.187-2.21.005-2.6-.2A1.366,1.366,0,0,1,0,7.018,2.2,2.2,0,0,1,.723,5.34C1.074,5.04,1.7,4.917,3.635,4.73Z" transform="translate(34.591 55.517) rotate(-103)" fill="#fff" stroke="#000" stroke-linejoin="round" stroke-width="2"/>
          <path id="Path_709" data-name="Path 709" d="M3.635,3.8S15.38,4.992,27.241,6.141,51.08,8.4,51.08,8.4c1.931.187,3.485.179,3.471-.019a1.126,1.126,0,0,0,.412-1.216,18.7,18.7,0,0,0-.621-1.8c-.014-.2-1.59-.509-3.521-.7,0,0-12.589-1.27-24.45-2.419s-23-2.176-23-2.176c-1.931-.187-2.21-.005-2.6.2A1.366,1.366,0,0,0,0,1.515a2.2,2.2,0,0,0,.72,1.679C1.074,3.493,1.7,3.617,3.635,3.8Z" transform="translate(0 53.598) rotate(-77)" fill="#fff" stroke="#000" stroke-linejoin="round" stroke-width="2"/>
        </g>
        <g id="tripod_base" data-name="tripod base" transform="translate(0 2.429)">
          <path id="Path_711" data-name="Path 711" d="M1.178,3.97s3.94.054,7.92.054,8-.054,8-.054c.648,0,1.173-.168,1.173-.375a3.107,3.107,0,0,0,.168-1.328c-.053-.818-.168-1.836-.168-1.836,0-.207-.525-.375-1.173-.375C17.1.054,12.876,0,8.9,0S1.178.054,1.178.054C.53.054.432.275.295.532A3.162,3.162,0,0,0,.005,1.92a4.8,4.8,0,0,0,.2,1.7C.32,3.9.53,3.97,1.178,3.97Z" transform="matrix(0.966, -0.259, 0.259, 0.966, 7.416, 4.886)" fill="#fff" stroke="#000" stroke-linejoin="round" stroke-width="2"/>
          <path id="Path_713" data-name="Path 713" d="M.945,5.228S4.1,5.3,7.3,5.3s6.415-.071,6.415-.071c.52,0,.941-.221.941-.495a6.515,6.515,0,0,0,.134-1.75c-.043-1.077-.134-2.419-.134-2.419,0-.273-.421-.495-.941-.495,0,0-3.386-.071-6.578-.071S.945.071.945.071c-.52,0-.6.291-.709.63A6.474,6.474,0,0,0,0,2.529,10.158,10.158,0,0,0,.168,4.771C.257,5.141.425,5.228.945,5.228Z" transform="matrix(0.966, -0.259, 0.259, 0.966, 0, 6.126)" fill="#fff" stroke="#000" stroke-linejoin="round" stroke-width="2"/>
          <path id="Path_712" data-name="Path 712" d="M1.178,3.97s3.94.054,7.92.054,8-.054,8-.054c.648,0,1.173-.168,1.173-.375a3.107,3.107,0,0,0,.168-1.328c-.053-.818-.168-1.836-.168-1.836,0-.207-.525-.375-1.173-.375C17.1.054,12.876,0,8.9,0S1.178.054,1.178.054C.53.054.432.275.295.532A3.162,3.162,0,0,0,.005,1.92a4.8,4.8,0,0,0,.2,1.7C.32,3.9.53,3.97,1.178,3.97Z" transform="translate(23.901 0)" fill="#fff" stroke="#000" stroke-linejoin="round" stroke-width="2"/>
        </g>
      </g>
      <g id="camera_reels" data-name="camera reels" transform="translate(11.694 0)">
        <g id="camera_reel_R" data-name="camera reel R" transform="translate(42.645) rotate(90)">
          <path id="Path_715" data-name="Path 715" d="M9.632,0C3.208-.032.02,4.862,0,9.632a9.793,9.793,0,0,0,9.632,9.406c5.319,0,9.606-3.766,9.606-9.086S16.055.033,9.632,0Z" transform="translate(0 0)" fill="#fff" stroke="#000" stroke-linejoin="round" stroke-width="2"/>
          <g id="Group_466" data-name="Group 466" transform="translate(3.627 2.989)">
            <ellipse id="Ellipse_22" data-name="Ellipse 22" cx="1.495" cy="1.495" rx="1.495" ry="1.495" transform="translate(4.65)" fill="#fff" stroke="#000" stroke-linejoin="round" stroke-width="2"/>
            <ellipse id="Ellipse_21" data-name="Ellipse 21" cx="1.495" cy="1.495" rx="1.495" ry="1.495" transform="translate(0 3.653)" fill="#fff" stroke="#000" stroke-linejoin="round" stroke-width="2"/>
            <ellipse id="Ellipse_19" data-name="Ellipse 19" cx="1.495" cy="1.495" rx="1.495" ry="1.495" transform="translate(7.307 8.967)" fill="#fff" stroke="#000" stroke-linejoin="round" stroke-width="2"/>
            <ellipse id="Ellipse_18" data-name="Ellipse 18" cx="1.495" cy="1.495" rx="1.495" ry="1.495" transform="translate(8.967 3.653)" fill="#fff" stroke="#000" stroke-linejoin="round" stroke-width="2"/>
            <ellipse id="Ellipse_20" data-name="Ellipse 20" cx="1.495" cy="1.495" rx="1.495" ry="1.495" transform="translate(1.993 8.967)" fill="#fff" stroke="#000" stroke-linejoin="round" stroke-width="2"/>
          </g>
        </g>
        <g id="camera_reel_L" data-name="camera reel L" transform="translate(0 0.1)">
          <path id="Path_715-2" data-name="Path 715" d="M9.632,0C3.208-.032.02,4.862,0,9.632a9.793,9.793,0,0,0,9.632,9.406c5.319,0,9.606-3.766,9.606-9.086S16.055.033,9.632,0Z" transform="translate(0 0)" fill="#fff" stroke="#000" stroke-linejoin="round" stroke-width="2"/>
          <g id="Group_467" data-name="Group 467" transform="translate(3.627 2.989)">
            <ellipse id="Ellipse_22-2" data-name="Ellipse 22" cx="1.495" cy="1.495" rx="1.495" ry="1.495" transform="translate(4.65)" fill="#fff" stroke="#000" stroke-linejoin="round" stroke-width="2"/>
            <ellipse id="Ellipse_21-2" data-name="Ellipse 21" cx="1.495" cy="1.495" rx="1.495" ry="1.495" transform="translate(0 3.653)" fill="#fff" stroke="#000" stroke-linejoin="round" stroke-width="2"/>
            <ellipse id="Ellipse_19-2" data-name="Ellipse 19" cx="1.495" cy="1.495" rx="1.495" ry="1.495" transform="translate(7.307 8.967)" fill="#fff" stroke="#000" stroke-linejoin="round" stroke-width="2"/>
            <ellipse id="Ellipse_18-2" data-name="Ellipse 18" cx="1.495" cy="1.495" rx="1.495" ry="1.495" transform="translate(8.967 3.653)" fill="#fff" stroke="#000" stroke-linejoin="round" stroke-width="2"/>
            <ellipse id="Ellipse_20-2" data-name="Ellipse 20" cx="1.495" cy="1.495" rx="1.495" ry="1.495" transform="translate(1.993 8.967)" fill="#fff" stroke="#000" stroke-linejoin="round" stroke-width="2"/>
          </g>
        </g>
      </g>
      <g id="camera_body" data-name="camera body" transform="translate(3.844 19.231)">
        <path id="camera_lens" data-name="camera lens" d="M.885-5.6l9.333-4.444a.885.885,0,0,1,.885.885l.4,15.5a.885.885,0,0,1-.885.885L.885,2.8A.885.885,0,0,1,0,1.917V-4.718A.885.885,0,0,1,.885-5.6Z" transform="translate(52.784 17.987)" fill="#fff" stroke="#000" stroke-linejoin="round" stroke-width="2"/>
        <path id="camera_main_body" data-name="camera main body" d="M2.864-.558S13.263-1,23.768-1s21.116.442,21.116.442a3.1,3.1,0,0,1,3.1,3.1,76.5,76.5,0,0,1,.442,10.954c-.141,6.745-.442,15.143-.442,15.143a3.1,3.1,0,0,1-3.1,3.1s-11.146.442-21.651.442-20.369-.442-20.369-.442a3.1,3.1,0,0,1-3.1-3.1,101.489,101.489,0,0,0,0-12.291,133.318,133.318,0,0,1,0-13.805A3.1,3.1,0,0,1,2.864-.558Z" transform="translate(5.246 1)" fill="#fff" stroke="#000" stroke-linejoin="round" stroke-width="2"/>
        <path id="camera_viewfinder" data-name="camera viewfinder" d="M4.8-5.026,1.237-6.046A.337.337,0,0,0,.9-5.709V-1.4a.337.337,0,0,0,.337.337L4.8-1.822a.337.337,0,0,0,.337-.337v-2.53A.337.337,0,0,0,4.8-5.026Z" transform="translate(-0.899 12.277)" fill="#fff" stroke="#000" stroke-linejoin="round" stroke-width="2"/>
        <ellipse id="camera_light" data-name="camera light" cx="3.425" cy="3.425" rx="3.425" ry="3.425" transform="translate(39.546 5.197)" fill="#de4a3f" stroke="#000" stroke-linejoin="round" stroke-width="2" opacity="0"/>
      </g>
    </g>
    <g id="phone" transform="translate(218.6 1749.233)">
      <path id="phone_body" data-name="phone body" d="M7.547.593S23.573,0,41.8,0,76.269.7,76.269.7a8.372,8.372,0,0,1,8.3,8.329s.245,1.363,0,10.409S84.324,32,84.049,35.843s-1.83,8.237-8.512,8.054c0,0-16.444.592-34.669.592S8.176,44.08,8.176,44.08A7.9,7.9,0,0,1,.161,36.392a121.346,121.346,0,0,1,0-13.132c.361-8.544-.144-11.534,0-15.491S3.8.425,7.547.593Z" transform="translate(44.49 0) rotate(90)" fill="#fff" stroke="#000" stroke-linejoin="round" stroke-width="2"/>
      <g id="phone_screen" data-name="phone screen" transform="translate(3.312 2.819)">
        <path id="phone_screen_outline" data-name="phone screen outline" d="M4.894.475S24.888,0,41.015,0,73.432.475,73.432.475c2.625,0,5.432,2.472,5.432,4.31,0,0,.217,4.549,0,11.8s-.679,16.274-.679,16.274a4.976,4.976,0,0,1-4.753,4.335s-17.111.475-33.238.475-35.3-.475-35.3-.475A4.976,4.976,0,0,1,.14,32.856S.023,31.527,0,27.847c0-.738,3.742-.678,3.757-1.919.013-1.117.053-4.74.129-6.374.091-1.951.13-6.011.14-8.383,0-.378-3.744-.979-3.747-1.672C.263,5.856.14,4.81.14,4.81A4.976,4.976,0,0,1,4.894.475Z" transform="translate(37.667 0) rotate(90)" fill="#fff" stroke="#000" stroke-linejoin="round" stroke-width="2"/>
        <path id="phone_grid_top" data-name="phone grid top" d="M3.288,24.841c4.8-.2,15.857,0,21.085,0s14.277.2,16.287,0" transform="translate(-3.287 -3.439)" fill="none" stroke="#000" stroke-linejoin="round" stroke-width="2"/>
        <ellipse id="phone_circle" data-name="phone circle" cx="3.416" cy="3.416" rx="3.416" ry="3.416" transform="translate(5.803 8.632)" fill="#fff" stroke="#000" stroke-linejoin="round" stroke-width="2"/>
        <path id="phone_text" data-name="phone text" d="M-9352.048-10960.271c1.236.471,4.642-.288,5.766,0s4.294,0,5.727,0" transform="translate(9371.451 10972.448)" fill="none" stroke="#000" stroke-linecap="round" stroke-linejoin="round" stroke-width="2"/>
        <g id="phone_photo_mask-2" data-name="phone photo mask" transform="translate(0 21.439)" clip-path="url(#clip-path)">
          <g id="phone_photo_grid" data-name="phone photo grid" transform="translate(0.001 0.422)">
            <g id="phone_photo_grid_horizontals" data-name="phone photo grid horizontals" transform="translate(0 10.731)">
              <path id="photo_grid_bottom5" data-name="photo grid bottom5" d="M3.288,24.841c4.8-.2,15.857,0,21.085,0s14.277.2,16.287,0" transform="translate(-3.288 -24.752)" fill="none" stroke="#000" stroke-linejoin="round" stroke-width="2"/>
              <path id="photo_grid_bottom2" data-name="photo grid bottom2" d="M3.288,24.841c4.8-.2,15.857,0,21.085,0s14.277.2,16.287,0" transform="translate(-3.288 13.09)" fill="none" stroke="#000" stroke-linejoin="round" stroke-width="2"/>
              <path id="photo_grid_bottom4" data-name="photo grid bottom4" d="M3.288,24.841c4.8-.2,15.857,0,21.085,0s14.277.2,16.287,0" transform="translate(-3.288 -12.245)" fill="none" stroke="#000" stroke-linejoin="round" stroke-width="2"/>
              <path id="photo_grid_bottom1" data-name="photo grid bottom1" d="M3.288,24.841c4.8-.2,15.857,0,21.085,0s14.277.2,16.287,0" transform="translate(-3.288 25.598)" fill="none" stroke="#000" stroke-linejoin="round" stroke-width="2"/>
              <path id="photo_grid_bottom3" data-name="photo grid bottom3" d="M3.288,24.841c4.8-.2,15.857,0,21.085,0s14.277.2,16.287,0" transform="translate(-3.288 0.262)" fill="none" stroke="#000" stroke-linejoin="round" stroke-width="2"/>
              <path id="photo_grid_bottom" data-name="photo grid bottom" d="M3.288,24.841c4.8-.2,15.857,0,21.085,0s14.277.2,16.287,0" transform="translate(-3.288 38.105)" fill="none" stroke="#000" stroke-linejoin="round" stroke-width="2"/>
            </g>
            <path id="phone_photo_grid_vertical" data-name="phone photo grid vertical" d="M0,.089c7.331-.2,24.227,0,32.215,0s21.813.2,24.884,0" transform="translate(12.271) rotate(90)" fill="none" stroke="#000" stroke-linejoin="round" stroke-width="2"/>
            <path id="phone_photo_grid_vertical-2" data-name="phone photo grid vertical" d="M0,.089c7.331-.2,24.227,0,32.215,0s21.813.2,24.884,0" transform="translate(26.363) rotate(90)" fill="none" stroke="#000" stroke-linejoin="round" stroke-width="2"/>
          </g>
        </g>
      </g>
    </g>
  </g>
</svg>
