<?xml version="1.0" encoding="utf-8"?>
<!-- Generator: Adobe Illustrator 23.0.6, SVG Export Plug-In . SVG Version: 6.00 Build 0)  -->
<svg version="1.1" id="Layer_1" xmlns="http://www.w3.org/2000/svg" xmlns:xlink="http://www.w3.org/1999/xlink" x="0px" y="0px"
	 viewBox="0 0 194 285.7" style="enable-background:new 0 0 194 285.7;" xml:space="preserve">
<style type="text/css">
	.st0{fill:none;stroke:#000000;stroke-width:5;stroke-linecap:round;stroke-linejoin:round;}
	.st1{fill:#FFFFFF;}
	.st2{fill:#FFFFFF;stroke:#000000;stroke-width:6;stroke-linecap:round;stroke-linejoin:round;}
	.st3{fill:#FFFFFF;stroke:#000000;stroke-width:5;}
	.st4{fill:none;stroke:#000000;stroke-width:3;stroke-linecap:round;}
	.st5{fill:none;stroke:#000000;stroke-width:5;stroke-linecap:round;}
</style>
<g id="Group_181" transform="translate(-1471.165 -690.557)">
	<path id="Path_378" class="st0" d="M1568.8,974c0,0-5.6,47.7-19,107.1c-13.4,59.4-32.6,119.6-32.6,119.6"/>
	<path id="Path_379" class="st0" d="M1569,971.3c0,0,10.6,46.8,30.2,104.6c19.6,57.8,45,115.5,45,115.5"/>
	<path id="Path_380" class="st0" d="M1571.5,975.7c0,0,21.3,57.6,61,107.7c39.7,50.1,108.2,132.9,108.2,132.9"/>
	<path id="Path_381" class="st0" d="M1569.2,974.4c0,0-15.2,59.5-49.4,113.5c-34.2,54-91.6,147.8-91.6,147.8"/>
	<g id="Group_164" transform="translate(1469.032 895.848) rotate(-3)">
		<g id="Path_299" transform="translate(0 40.749)">
			<path class="st1" d="M-67.5,300.7l0.4-3.2c0.2,0.2,0.3,0.5,0.3,0.8c-0.1,0.4-0.3,0.6-0.4,0.7c0,0,0.1-0.1,0.5-0.3
				c0,0.1,0,0.1,0,0.2C-66.7,299.7-67,300.3-67.5,300.7z M20.3,296.7c-33.9,0-63-0.1-79.7-0.3c13.2-3.6,31.2-8.9,48.7-14.7
				c29.9-10,50.3-15,52.8-15.6c1.4,0,8.5-0.1,22.9-0.1c9.5,0,20.4,0,32.2,0.1c11.9,0.1,24.7,0.1,38.1,0.1c21.4,0,37.6-0.1,39.7-0.1
				c0.8,0.1,4.4,0.8,10.6,2.6c6.5,1.8,17.1,5.3,31.1,11.2c8.5,3.6,23.5,9.3,46.8,16.2c0.1,0,0.2,0,0.2,0.1c-0.7,0-1.4,0-2.1,0
				c-14.4-0.1-37.4-0.2-65.2-0.2c-29.6,0-58.5,0.1-86,0.4C83,296.6,52.7,296.7,20.3,296.7z"/>
			<path d="M65,268.5c-13.6,0-20.7,0.1-22.6,0.1c-3.4,0.8-23.4,5.8-52.3,15.5c-11,3.7-22.1,7.1-32.1,10c16.5,0.1,38.2,0.2,62.3,0.2
				c32.3,0,62.6-0.1,90-0.4c27.5-0.3,56.4-0.4,86-0.4c19.8,0,37.1,0.1,50.6,0.1c-14.6-4.7-24.7-8.7-31.2-11.4
				c-13.9-5.8-24.4-9.2-30.7-11.1c-5.7-1.6-9.1-2.3-10.2-2.5c-2.8,0-18.7,0.1-39.5,0.1c-13.4,0-26.2,0-38.1-0.1
				C85.4,268.5,74.6,268.5,65,268.5 M65,263.5c8.2,0,18.8,0,32.2,0.1c13.4,0.1,26.5,0.1,38.1,0.1c23.1,0,39.9-0.1,39.9-0.1
				s14.9,2.4,42.5,14c15.1,6.4,33.1,12.2,46.5,16.1c10.6,3.2,2.5,5,2.5,5s3.6,0,2.1,0c-0.8,0-2.8,0-7.2,0
				c-15.1-0.1-37.9-0.2-65.2-0.2c-25.5,0-54.9,0.1-86,0.4c-31,0.3-62.2,0.4-90.1,0.4c-36.8,0-67.8-0.2-84.7-0.3
				c-8.5-0.1-3.3-0.1-3.3-0.1s-5.1-1.3,3-3.5c12.7-3.5,33.2-9.4,53.1-16c32.4-10.9,53.4-15.8,53.4-15.8S48.6,263.5,65,263.5z"/>
		</g>
		<g id="Group_53" transform="translate(68.712 17.627)">
			<g id="Path_42" transform="translate(0 17)">
				<path class="st1" d="M-25.7,293.6l-39.2-0.5l-1.2-25.7c4.9-0.3,15-0.9,23.4-0.9c7.5,0,13.8,0.5,17.2,0.8
					c-0.2,3.9-0.6,11-0.6,16.6C-26.1,288-25.9,291.3-25.7,293.6z"/>
				<path d="M-42.7,269.5c-6.9,0-14.9,0.4-20.2,0.7l0.9,19.9l33.1,0.4c-0.1-1.9-0.2-4.1-0.2-6.6c0-4.4,0.2-9.8,0.4-13.9
					C-32.2,269.8-37.1,269.5-42.7,269.5 M-42.7,263.5c11.7,0,20.3,1.1,20.3,1.1s-0.7,11.3-0.7,19.3c0,8,0.7,12.7,0.7,12.7l-45.4-0.6
					l-1.4-31.4C-69.2,264.6-54.4,263.5-42.7,263.5z"/>
			</g>
			<g id="Path_47" transform="translate(42.993 23.879)">
				<path class="st1" d="M-52.9,279.4l-12.8-0.2l-0.4-12.3c2.2-0.2,5.3-0.4,7.9-0.4c2.1,0,4,0.1,5.4,0.3c-0.1,2.3-0.2,5.7-0.2,8.4
					C-53,276.9-52.9,278.3-52.9,279.4z"/>
				<path d="M-58.2,269.5c-1.5,0-3.2,0.1-4.8,0.2l0.2,6.6l6.8,0.1c0-0.4,0-0.8,0-1.2c0-1.8,0-3.8,0.1-5.7
					C-56.6,269.5-57.4,269.5-58.2,269.5 M-58.2,263.5c4.9,0,8.5,0.7,8.5,0.7s-0.3,6.5-0.3,11.1c0,4.6,0.3,7.3,0.3,7.3l-18.9-0.4
					l-0.6-18C-69.2,264.2-63,263.5-58.2,263.5z"/>
			</g>
			<g id="Path_43" transform="translate(26.623 0)">
				<path class="st1" d="M-58.5,280.9c-2,0-3.9-0.8-5.5-2.3c-1.4-1.4-2.2-3.2-2.2-4.9c0-1.7,0.8-3.5,2.2-4.9
					c1.6-1.5,3.5-2.3,5.5-2.3c2.2,0,3.6,0.3,5.6,2.2c1.2,1.2,1.6,1.9,1.8,2.3c0.2,0.6,0.3,1.3,0.3,2.7
					C-50.8,277.7-54.2,280.9-58.5,280.9z"/>
				<path d="M-58.5,269.5c-2.7,0-4.7,2.5-4.7,4.2c0,1.7,2,4.2,4.7,4.2c2.6,0,4.7-1.9,4.7-4.2c0-1.7,0-1.7-1.1-2.8
					C-56.3,269.6-56.9,269.5-58.5,269.5 M-58.5,263.5c2.8,0,5,0.5,7.7,3.1c2.7,2.6,3,4.2,3,7.1c0,5.6-4.8,10.2-10.7,10.2
					s-10.7-5.1-10.7-10.2C-69.2,268.6-64.4,263.5-58.5,263.5z"/>
			</g>
			<g id="Path_46" transform="translate(0.213 0)">
				<path class="st1" d="M-58.5,280.9c-2.2,0-3.6-0.3-5.6-2.2c-1.2-1.2-1.6-1.9-1.8-2.3c-0.2-0.6-0.3-1.3-0.3-2.7
					c0-4,3.5-7.2,7.7-7.2c2,0,3.9,0.8,5.5,2.3c1.4,1.4,2.2,3.2,2.2,4.9c0,1.7-0.8,3.5-2.2,4.9C-54.5,280.1-56.5,280.9-58.5,280.9z"
					/>
				<path d="M-58.5,277.9c2.7,0,4.7-2.5,4.7-4.2c0-1.7-2-4.2-4.7-4.2c-2.6,0-4.7,1.9-4.7,4.2c0,1.7,0,1.7,1.1,2.8
					C-60.7,277.8-60.1,277.9-58.5,277.9 M-58.5,283.9c-2.8,0-5-0.5-7.7-3.1c-2.7-2.6-3-4.2-3-7.1c0-5.6,4.8-10.2,10.7-10.2
					s10.7,5.1,10.7,10.2C-47.8,278.8-52.6,283.9-58.5,283.9z"/>
			</g>
		</g>
		<g id="Group_54" transform="translate(227.787 13.328)">
			<g id="Path_42-2" transform="translate(0 0)">
				<path class="st1" d="M-15.6,315.1l-48.9-0.8l-1.6-46.2c5.6-0.5,18.5-1.6,29.1-1.6c9.7,0,17.7,0.9,21.6,1.4
					c-0.3,5.7-0.8,19.2-0.8,29.3C-16.2,305.5-15.9,311.6-15.6,315.1z"/>
				<path d="M-37,269.5c-9,0-19.6,0.8-26,1.3l1.4,40.5l42.8,0.7c-0.2-3.6-0.4-8.7-0.4-14.9c0-8.9,0.4-20.1,0.6-26.6
					C-22.8,270.1-29.4,269.5-37,269.5 M-37,263.5c14.2,0,24.7,1.9,24.7,1.9s-0.9,18.6-0.9,31.8c0,13.2,0.9,21,0.9,21l-55.2-1
					l-1.7-51.8C-69.2,265.4-51.2,263.5-37,263.5z"/>
			</g>
			<g id="Path_43-2" transform="translate(15.245 15.08)">
				<path class="st1" d="M-56.2,285.3c-2.6,0-5.1-1.1-7.1-3c-1.8-1.8-2.9-4.2-2.9-6.4c0-2.2,1.1-4.6,2.9-6.4c2-1.9,4.5-3,7.1-3
					c2.8,0,4.7,0.4,7.3,2.9c1.2,1.2,2,2.1,2.3,3s0.4,2,0.4,3.5C-46.2,281.1-50.7,285.3-56.2,285.3z"/>
				<path d="M-56.2,269.5c-3.9,0-7,3.5-7,6.4s3.1,6.4,7,6.4s7-2.9,7-6.4c0-2.4,0-2.6-1.8-4.3C-52.9,269.7-54.1,269.5-56.2,269.5
					 M-56.2,263.5c3.4,0,6.1,0.6,9.4,3.7c3.3,3.1,3.6,5.1,3.6,8.7c0,6.9-5.8,12.4-13,12.4s-13-6.2-13-12.4
					C-69.2,269.7-63.4,263.5-56.2,263.5z"/>
			</g>
			<g id="Path_44" transform="translate(9.225 9.061)">
				<path class="st1" d="M-64.3,271.3c-0.9,0-1.7-0.4-2.4-1c-0.6-0.6-1-1.4-1-2.1c0-0.7,0.4-1.5,1-2.1c0.7-0.7,1.5-1,2.4-1
					c1,0,1.6,0.1,2.5,1c0.9,0.8,0.9,1.1,0.9,2.2C-61,269.9-62.5,271.3-64.3,271.3z"/>
				<path d="M-64.3,266.5c-1.1,0-1.9,1-1.9,1.6c0,0.6,0.8,1.6,1.9,1.6c1,0,1.9-0.7,1.9-1.6c0-0.4,0-0.6,0-0.6s-0.1-0.2-0.4-0.4
					C-63.5,266.5-63.7,266.5-64.3,266.5 M-64.3,263.5c1.3,0,2.3,0.2,3.5,1.4c1.2,1.2,1.4,1.9,1.4,3.2c0,2.6-2.2,4.6-4.9,4.6
					c-2.7,0-4.9-2.2-4.9-4.6S-67,263.5-64.3,263.5z"/>
			</g>
		</g>
		<g id="Group_55" transform="translate(168.456 0.43)">
			<g id="Path_39" transform="translate(0 0)">
				<path class="st1" d="M-48.7,299.6c-2.3,0-4.6-0.5-6.8-1.4c-2.1-0.9-4-2.2-5.6-3.8c-3.2-3.3-5.1-7.4-5.1-11.4s1.9-8.1,5.1-11.3
					c1.6-1.6,3.5-2.9,5.6-3.8c2.2-0.9,4.5-1.4,6.8-1.4c4.8,0,8.2,0.8,12.7,5.1c2.2,2.1,3.4,3.7,4,5.4s0.8,3.5,0.8,6
					c0,4.4-1.8,8.5-5.1,11.6C-39.6,297.8-44,299.6-48.7,299.6z"/>
				<path d="M-48.7,269.5c-8.2,0-14.5,7.3-14.5,13.5c0,6.3,6.3,13.5,14.5,13.5c8,0,14.5-6.1,14.5-13.5c0-4.4-0.2-5.8-3.9-9.3
					C-41.9,270.1-44.5,269.5-48.7,269.5 M-48.7,263.5c5.4,0,9.6,1,14.7,5.9c5.1,4.9,5.7,8,5.7,13.6c0,10.8-9.2,19.5-20.5,19.5
					s-20.4-9.7-20.4-19.5S-60,263.5-48.7,263.5z"/>
			</g>
			<g id="Path_40" transform="translate(13.543 21.416)">
				<path class="st1" d="M-31.5,297l-33.5-0.6l-1.1-28.9c4.3-0.4,12.9-1,20.1-1c6.3,0,11.6,0.5,14.6,0.9c-0.2,4.2-0.5,12.4-0.5,18.7
					C-31.9,290.8-31.7,294.5-31.5,297z"/>
				<path d="M-46,269.5c-5.7,0-12.4,0.4-17,0.8l0.8,23.2l27.4,0.4c-0.1-2.2-0.2-4.8-0.2-7.9c0-5.1,0.2-11.5,0.4-16
					C-37.5,269.8-41.5,269.5-46,269.5 M-46,263.5c10.2,0,17.8,1.3,17.8,1.3s-0.6,12.4-0.6,21.3s0.6,14,0.6,14l-39.7-0.7l-1.3-34.6
					C-69.2,264.8-56.3,263.5-46,263.5z"/>
			</g>
		</g>
		<path id="Union_6" class="st2" d="M76.1,299.2c-0.4,0.4-0.9,0.7-1.2,1.1c-5.6,5.3-10.2,6.4-10.2,6.4s0.5-19.5,0-24.4
			s0-18.8,0-18.8s7.8,6.6,14.9,12.7c7.1,6.1,13.6,11.6,13.6,11.6s-5.4,3-10.6,6.6l12,18.1l-6.8,4.3L76.1,299.2z"/>
	</g>
</g>
<g id="Group_163" transform="translate(-1370.558 -401.357)">
	<path id="Union_15" class="st3" d="M1467.6,630.6c-5.9,0.2-23.6,0.1-23.7-6.5c-0.2-7.9-13-24.2-26.8-49.6s-43.2-28.3-44-85.1
		c-0.7-55.6,34.8-82.4,92.6-85.1v-0.1c0.6,0,1.2,0,1.9,0.1c0.6,0,1.2,0,1.9-0.1v0.1c57.9,2.6,93.4,29.4,92.6,85.1
		c-0.8,56.8-30.1,59.7-44,85.1s-26.7,41.7-26.8,49.6c-0.1,5.8-13.7,6.6-21,6.6C1469.2,630.6,1468.3,630.6,1467.6,630.6z"/>
	<path id="Path_372" class="st4" d="M1446.8,630.6l3.4,23.4"/>
	<path id="Path_373" class="st4" d="M1489.6,630.6l-3.4,23.4"/>
	<path id="Path_374" class="st5" d="M1468.2,404.1c-22.6,2.4-41.8,25-41.1,73.9s36.1,115.4,36.1,150.2"/>
	<path id="Path_376" class="st5" d="M1468.2,405.4c0,0,42.6,23.1,41.1,73.9s-36.4,115.6-36.4,150.4"/>
	<path id="Path_375" class="st5" d="M1464.4,404.1c0,0-71.6,7.1-69.7,81c0.9,34.4,17.4,55.4,30.9,76.8
		c15.1,23.9,27.3,46.7,27.3,65.3"/>
	<path id="Path_377" class="st5" d="M1472,405.4c0,0,71.6,7.1,69.7,81c-0.9,34.4-17.4,55.4-30.9,76.8
		c-15.1,23.9-27.3,46.7-27.3,65.3"/>
	<g id="Path_382" transform="translate(1447 653.699)">
		<path class="st1" d="M24.4,30.8c-7.6,0-17.2-0.3-17.3-0.3l0,0c-0.2-0.1-1.2-0.9-2.2-3.2c-0.9-2-1.3-4.2-1.3-5.3v-0.1v-0.1l-1-18.6
			c3.1,0.6,8.3,1.3,14.9,1.3c7.9,0,17.8-1,22.7-1.6l-1.4,14.7v0.1v0.1c0,2.8-0.2,5.1-0.5,7c-0.5,3.1-1.3,4.3-1.7,4.5
			c-0.9,0.5-1.4,0.8-1.7,1c-0.1,0.1-0.2,0.1-0.2,0.1c-0.3,0-1.2,0.1-2.2,0.1c-0.7,0-1.7,0-2.9,0.1C28.2,30.8,26.5,30.8,24.4,30.8z"
			/>
		<path d="M37.5,5.7C32.1,6.3,24.1,7,17.5,7C12.6,7,8.4,6.6,5.3,6.1L6,21.8v0.1V22c0,0.5,0.2,1.9,0.8,3.6c0.5,1.2,0.9,2,1.2,2.5
			c2.6,0.1,10.1,0.3,16.3,0.3c2.1,0,3.8,0,5.1-0.1c1.2,0,2.1-0.1,2.9-0.1c0.5,0,1.1,0,1.4,0c0.3-0.2,0.7-0.4,1.2-0.7
			c0.3-0.6,1.3-2.9,1.3-9.5v-0.2v-0.2L37.5,5.7 M0,0c0,0,6.8,2,17.5,2S43,0,43,0l-1.7,17.8c0,3.3-0.2,11.9-3.5,13.7
			c-3.3,1.8-0.6,1.4-8.1,1.7c-1.5,0.1-3.3,0.1-5.3,0.1C16.7,33.3,7,33,7,33c-3.3,0-6-7.7-6-11L0,0z"/>
	</g>
</g>
</svg>
