<?xml version="1.0" encoding="utf-8"?>
<!-- Generator: Adobe Illustrator 23.0.6, SVG Export Plug-In . SVG Version: 6.00 Build 0)  -->
<svg version="1.1" id="Layer_1" xmlns="http://www.w3.org/2000/svg" xmlns:xlink="http://www.w3.org/1999/xlink" x="0px" y="0px"
	 viewBox="0 0 433 704.1" style="enable-background:new 0 0 433 704.1;" xml:space="preserve">
<style type="text/css">
	.st0{fill:none;stroke:#010101;stroke-width:5;stroke-linecap:round;stroke-linejoin:round;}
	.st1{fill:#FFFFFF;}
	.st2{fill:#010101;}
	.st3{fill:#FFFFFF;stroke:#010101;stroke-width:6;stroke-linecap:round;stroke-linejoin:round;}
	.st4{fill:#FFFFFF;stroke:#010101;stroke-width:5;}
	.st5{fill:none;stroke:#010101;stroke-width:3;stroke-linecap:round;}
	.st6{fill:none;stroke:#010101;stroke-width:5;stroke-linecap:round;}
</style>
<g id="Group_181" transform="translate(-1471.165 -690.557)">
	<path id="Path_378" class="st0" d="M1664.7,1053.8c0,0-7.2,61-24.3,137s-41.7,153-41.7,153"/>
	<path id="Path_379" class="st0" d="M1664.9,1050.3c0,0,13.6,59.9,38.6,133.8c25.1,74,57.6,147.8,57.6,147.8"/>
	<path id="Path_380" class="st0" d="M1668.1,1055.9c0,0,27.3,73.7,78,137.8s138.4,170,138.4,170"/>
	<path id="Path_381" class="st0" d="M1665.2,1054.3c0,0-19.4,76.1-63.2,145.2c-43.8,69.1-117.2,189.1-117.2,189.1"/>
	<g id="Group_164" transform="translate(1469.032 895.848) rotate(-3)">
		<g id="Path_299" transform="translate(0 40.749)">
			<path class="st1" d="M-21.5,457.6l0.5-4.1c0.3,0.3,0.4,0.6,0.4,1c-0.1,0.5-0.4,0.8-0.5,0.9c0,0,0.1-0.1,0.6-0.4
				c0,0.1,0,0.1,0,0.3C-20.5,456.3-20.9,457.1-21.5,457.6z M90.8,452.5c-43.4,0-80.6-0.1-102-0.4c16.9-4.6,39.9-11.4,62.3-18.8
				c38.3-12.8,64.4-19.2,67.6-20c1.8,0,10.9-0.1,29.3-0.1c12.2,0,26.1,0,41.2,0.1c15.2,0.1,31.6,0.1,48.7,0.1
				c27.4,0,48.1-0.1,50.8-0.1c1,0.1,5.6,1,13.6,3.3c8.3,2.3,21.9,6.8,39.8,14.3c10.9,4.6,30.1,11.9,59.9,20.7c0.1,0,0.3,0,0.3,0.1
				c-0.9,0-1.8,0-2.7,0c-18.4-0.1-47.9-0.3-83.4-0.3c-37.9,0-74.9,0.1-110,0.5C171.1,452.3,132.3,452.5,90.8,452.5z"/>
			<path class="st2" d="M148,416.4c-17.4,0-26.5,0.1-28.9,0.1c-4.4,1-29.9,7.4-66.9,19.8c-14.1,4.7-28.3,9.1-41.1,12.8
				c21.1,0.1,48.9,0.3,79.7,0.3c41.3,0,80.1-0.1,115.2-0.5c35.2-0.4,72.2-0.5,110-0.5c25.3,0,47.5,0.1,64.7,0.1
				c-18.7-6-31.6-11.1-39.9-14.6c-17.8-7.4-31.2-11.8-39.3-14.2c-7.3-2-11.6-2.9-13.1-3.2c-3.6,0-23.9,0.1-50.5,0.1
				c-17.1,0-33.5,0-48.7-0.1C174.1,416.4,160.3,416.4,148,416.4 M148,410c10.5,0,24.1,0,41.2,0.1s33.9,0.1,48.7,0.1
				c29.6,0,51.1-0.1,51.1-0.1s19.1,3.1,54.4,17.9c19.3,8.2,42.4,15.6,59.5,20.6c13.6,4.1,3.2,6.4,3.2,6.4s4.6,0,2.7,0
				c-1,0-3.6,0-9.2,0c-19.3-0.1-48.5-0.3-83.4-0.3c-32.6,0-70.2,0.1-110,0.5c-39.7,0.4-79.6,0.5-115.3,0.5
				c-47.1,0-86.8-0.3-108.4-0.4c-10.9-0.1-4.2-0.1-4.2-0.1s-6.5-1.7,3.8-4.5c16.2-4.5,42.5-12,67.9-20.5
				c41.5-13.9,68.3-20.2,68.3-20.2S127.1,410,148,410z"/>
		</g>
		<g id="Group_53" transform="translate(68.712 17.627)">
			<g id="Path_42" transform="translate(0 17)">
				<path class="st1" d="M51.2,446.8L1,446.1l-1.5-32.9c6.3-0.4,19.2-1.2,29.9-1.2c9.6,0,17.7,0.6,22,1c-0.3,5-0.8,14.1-0.8,21.2
					C50.7,439.6,50.9,443.8,51.2,446.8z"/>
				<path class="st2" d="M29.4,415.9c-8.8,0-19.1,0.5-25.8,0.9l1.2,25.5l42.4,0.5c-0.1-2.4-0.3-5.2-0.3-8.4c0-5.6,0.3-12.5,0.5-17.8
					C42.9,416.3,36.6,415.9,29.4,415.9 M29.4,408.3c15,0,26,1.4,26,1.4s-0.9,14.5-0.9,24.7c0,10.2,0.9,16.2,0.9,16.2l-58.1-0.8
					l-1.8-40.2C-4.5,409.7,14.5,408.3,29.4,408.3z"/>
			</g>
			<g id="Path_47" transform="translate(42.993 23.879)">
				<path class="st1" d="M28.4,430.5L12,430.3l-0.5-15.7c2.8-0.3,6.8-0.5,10.1-0.5c2.7,0,5.1,0.1,6.9,0.4c-0.1,2.9-0.3,7.3-0.3,10.7
					C28.3,427.3,28.4,429.1,28.4,430.5z"/>
				<path class="st2" d="M21.6,417.9c-1.9,0-4.1,0.1-6.1,0.3l0.3,8.4l8.7,0.1c0-0.5,0-1,0-1.5c0-2.3,0-4.9,0.1-7.3
					C23.7,417.9,22.6,417.9,21.6,417.9 M21.6,410.2c6.3,0,10.9,0.9,10.9,0.9s-0.4,8.3-0.4,14.2s0.4,9.3,0.4,9.3l-24.2-0.5l-0.8-23
					C7.5,411.1,15.5,410.2,21.6,410.2z"/>
			</g>
			<g id="Path_43" transform="translate(26.623 0)">
				<path class="st1" d="M16.7,425.8c-2.6,0-5-1-7-2.9c-1.8-1.8-2.8-4.1-2.8-6.3c0-2.2,1-4.5,2.8-6.3c2-1.9,4.5-2.9,7-2.9
					c2.8,0,4.6,0.4,7.2,2.8c1.5,1.5,2,2.4,2.3,2.9c0.3,0.8,0.4,1.7,0.4,3.5C26.5,421.7,22.2,425.8,16.7,425.8z"/>
				<path class="st2" d="M16.7,411.2c-3.5,0-6,3.2-6,5.4s2.6,5.4,6,5.4c3.3,0,6-2.4,6-5.4c0-2.2,0-2.2-1.4-3.6
					C19.5,411.3,18.7,411.2,16.7,411.2 M16.7,403.5c3.6,0,6.4,0.6,9.9,4c3.5,3.3,3.8,5.4,3.8,9.1c0,7.2-6.1,13.1-13.7,13.1
					c-7.5,0-13.7-6.5-13.7-13.1C3,410,9.1,403.5,16.7,403.5z"/>
			</g>
			<g id="Path_46" transform="translate(0.213 0)">
				<path class="st1" d="M9.3,425.8c-2.8,0-4.6-0.4-7.2-2.8c-1.5-1.5-2-2.4-2.3-2.9c-0.3-0.8-0.4-1.7-0.4-3.5c0-5.1,4.5-9.2,9.9-9.2
					c2.6,0,5,1,7,2.9c1.8,1.8,2.8,4.1,2.8,6.3c0,2.2-1,4.5-2.8,6.3C14.4,424.7,11.8,425.8,9.3,425.8z"/>
				<path class="st2" d="M9.3,421.9c3.5,0,6-3.2,6-5.4s-2.6-5.4-6-5.4c-3.3,0-6,2.4-6,5.4c0,2.2,0,2.2,1.4,3.6
					C6.5,421.8,7.2,421.9,9.3,421.9 M9.3,429.6c-3.6,0-6.4-0.6-9.9-4s-3.8-5.4-3.8-9.1c0-7.2,6.1-13.1,13.7-13.1S23,410,23,416.6
					C23,423.1,16.8,429.6,9.3,429.6z"/>
			</g>
		</g>
		<g id="Group_54" transform="translate(227.787 13.328)">
			<g id="Path_42-2" transform="translate(0 0)">
				<path class="st1" d="M108.6,468.3l-62.6-1l-2-59.1c7.2-0.6,23.7-2,37.2-2c12.4,0,22.6,1.2,27.6,1.8c-0.4,7.3-1,24.6-1,37.5
					C107.8,456,108.2,463.9,108.6,468.3z"/>
				<path class="st2" d="M81.2,410c-11.5,0-25.1,1-33.3,1.7l1.8,51.8l54.8,0.9c-0.3-4.6-0.5-11.1-0.5-19.1c0-11.4,0.5-25.7,0.8-34
					C99.4,410.8,90.9,410,81.2,410 M81.2,402.3c18.2,0,31.6,2.4,31.6,2.4s-1.2,23.8-1.2,40.7c0,16.9,1.2,26.9,1.2,26.9L42.2,471
					L40,404.7C40,404.7,63,402.3,81.2,402.3z"/>
			</g>
			<g id="Path_43-2" transform="translate(15.245 15.08)">
				<path class="st1" d="M60.9,434.4c-3.3,0-6.5-1.4-9.1-3.8c-2.3-2.3-3.7-5.4-3.7-8.2c0-2.8,1.4-5.9,3.7-8.2
					c2.6-2.4,5.8-3.8,9.1-3.8c3.6,0,6,0.5,9.3,3.7c1.5,1.5,2.6,2.7,2.9,3.8c0.4,1.2,0.5,2.6,0.5,4.5C73.7,429,67.9,434.4,60.9,434.4
					z"/>
				<path class="st2" d="M60.9,414.2c-5,0-9,4.5-9,8.2s4,8.2,9,8.2c5,0,9-3.7,9-8.2c0-3.1,0-3.3-2.3-5.5
					C65.1,414.5,63.6,414.2,60.9,414.2 M60.9,406.5c4.4,0,7.8,0.8,12,4.7s4.6,6.5,4.6,11.1c0,8.8-7.4,15.9-16.6,15.9
					s-16.6-7.9-16.6-15.9C44.3,414.5,51.7,406.5,60.9,406.5z"/>
			</g>
			<g id="Path_44" transform="translate(9.225 9.061)">
				<path class="st1" d="M48.8,414.8c-1.2,0-2.2-0.5-3.1-1.3c-0.8-0.8-1.3-1.8-1.3-2.7s0.5-1.9,1.3-2.7c0.9-0.9,1.9-1.3,3.1-1.3
					c1.3,0,2,0.1,3.2,1.3c1.2,1,1.2,1.4,1.2,2.8C53.1,413,51.1,414.8,48.8,414.8z"/>
				<path class="st2" d="M48.8,408.7c-1.4,0-2.4,1.3-2.4,2c0,0.8,1,2,2.4,2c1.3,0,2.4-0.9,2.4-2c0-0.5,0-0.8,0-0.8s-0.1-0.3-0.5-0.5
					C49.9,408.7,49.6,408.7,48.8,408.7 M48.8,404.8c1.7,0,2.9,0.3,4.5,1.8c1.5,1.5,1.8,2.4,1.8,4.1c0,3.3-2.8,5.9-6.3,5.9
					s-6.3-2.8-6.3-5.9C42.6,407.7,45.4,404.8,48.8,404.8z"/>
			</g>
		</g>
		<g id="Group_55" transform="translate(168.456 0.43)">
			<g id="Path_39" transform="translate(0 0)">
				<path class="st1" d="M49.6,444.9c-2.9,0-5.9-0.6-8.7-1.8c-2.7-1.2-5.1-2.8-7.2-4.9c-4.1-4.2-6.5-9.5-6.5-14.6s2.4-10.4,6.5-14.5
					c2-2,4.5-3.7,7.2-4.9c2.8-1.2,5.8-1.8,8.7-1.8c6.1,0,10.5,1,16.2,6.5c2.8,2.7,4.4,4.7,5.1,6.9c0.8,2.2,1,4.5,1,7.7
					c0,5.6-2.3,10.9-6.5,14.8C61.3,442.6,55.7,444.9,49.6,444.9z"/>
				<path class="st2" d="M49.6,406.4c-10.5,0-18.6,9.3-18.6,17.3c0,8.1,8.1,17.3,18.6,17.3c10.2,0,18.6-7.8,18.6-17.3
					c0-5.6-0.3-7.4-5-11.9C58.3,407.1,55,406.4,49.6,406.4 M49.6,398.7c6.9,0,12.3,1.3,18.8,7.5c6.5,6.3,7.3,10.2,7.3,17.4
					c0,13.8-11.8,25-26.2,25s-26.1-12.4-26.1-25C23.4,411.1,35.2,398.7,49.6,398.7z"/>
			</g>
			<g id="Path_40" transform="translate(13.543 21.416)">
				<path class="st1" d="M75.4,447.6l-42.9-0.8l-1.4-37c5.5-0.5,16.5-1.3,25.7-1.3c8.1,0,14.8,0.6,18.7,1.2
					c-0.3,5.4-0.6,15.9-0.6,23.9C74.9,439.6,75.2,444.4,75.4,447.6z"/>
				<path class="st2" d="M56.9,412.4c-7.3,0-15.9,0.5-21.8,1l1,29.7l35.1,0.5c-0.1-2.8-0.3-6.1-0.3-10.1c0-6.5,0.3-14.7,0.5-20.5
					C67.8,412.7,62.6,412.4,56.9,412.4 M56.9,404.7c13.1,0,22.8,1.7,22.8,1.7s-0.8,15.9-0.8,27.3c0,11.4,0.8,17.9,0.8,17.9
					l-50.8-0.9l-1.7-44.3C27.2,406.4,43.7,404.7,56.9,404.7z"/>
			</g>
		</g>
		<path id="Union_6" class="st3" d="M162.2,444.3c-0.5,0.5-1.2,0.9-1.5,1.4c-7.2,6.8-13.1,8.2-13.1,8.2s0.6-25,0-31.2
			c-0.6-6.3,0-24.1,0-24.1s10,8.4,19.1,16.2c9.1,7.8,17.4,14.8,17.4,14.8s-6.9,3.8-13.6,8.4l15.4,23.2l-8.7,5.5L162.2,444.3z"/>
	</g>
</g>
<g id="Group_163" transform="translate(-1370.558 -401.357)">
	<path id="Union_15" class="st4" d="M1563.3,695.2c-7.5,0.3-30.2,0.1-30.3-8.3c-0.3-10.1-16.6-31-34.3-63.5
		c-17.7-32.5-55.3-36.2-56.3-108.9c-0.9-71.1,44.5-105.4,118.5-108.9v-0.1c0.8,0,1.5,0,2.4,0.1c0.8,0,1.5,0,2.4-0.1v0.1
		c74.1,3.3,119.5,37.6,118.5,108.9c-1,72.7-38.5,76.4-56.3,108.9c-17.8,32.5-34.2,53.4-34.3,63.5c-0.1,7.4-17.5,8.4-26.9,8.4
		C1565.4,695.2,1564.2,695.2,1563.3,695.2z"/>
	<path id="Path_372" class="st5" d="M1536.7,695.2l4.4,29.9"/>
	<path id="Path_373" class="st5" d="M1591.5,695.2l-4.4,29.9"/>
	<path id="Path_374" class="st6" d="M1564.1,405.4c-28.9,3.1-53.5,32-52.6,94.6c0.9,62.6,46.2,147.7,46.2,192.2"/>
	<path id="Path_376" class="st6" d="M1564.1,407.1c0,0,54.5,29.6,52.6,94.6c-1.9,65-46.6,147.9-46.6,192.4"/>
	<path id="Path_375" class="st6" d="M1559.2,405.4c0,0-91.6,9.1-89.2,103.6c1.2,44,22.3,70.9,39.5,98.3
		c19.3,30.6,34.9,59.8,34.9,83.6"/>
	<path id="Path_377" class="st6" d="M1568.9,407.1c0,0,91.6,9.1,89.2,103.6c-1.2,44-22.3,70.9-39.5,98.3
		c-19.3,30.6-34.9,59.8-34.9,83.6"/>
	<g id="Path_382" transform="translate(1447 653.699)">
		<path class="st1" d="M121.2,110.5c-9.7,0-22-0.4-22.1-0.4l0,0c-0.3-0.1-1.5-1.2-2.8-4.1c-1.2-2.6-1.7-5.4-1.7-6.8v-0.1V99
			l-1.3-23.8c4,0.8,10.6,1.7,19.1,1.7c10.1,0,22.8-1.3,29-2l-1.8,18.8v0.1v0.1c0,3.6-0.3,6.5-0.6,9c-0.6,4-1.7,5.5-2.2,5.8
			c-1.2,0.6-1.8,1-2.2,1.3c-0.1,0.1-0.3,0.1-0.3,0.1c-0.4,0-1.5,0.1-2.8,0.1c-0.9,0-2.2,0-3.7,0.1
			C126,110.5,123.9,110.5,121.2,110.5z"/>
		<path class="st2" d="M137.9,78.4c-6.9,0.8-17.1,1.7-25.6,1.7c-6.3,0-11.6-0.5-15.6-1.2L97.6,99v0.1v0.1c0,0.6,0.3,2.4,1,4.6
			c0.6,1.5,1.2,2.6,1.5,3.2c3.3,0.1,12.9,0.4,20.9,0.4c2.7,0,4.9,0,6.5-0.1c1.5,0,2.7-0.1,3.7-0.1c0.6,0,1.4,0,1.8,0
			c0.4-0.3,0.9-0.5,1.5-0.9c0.4-0.8,1.7-3.7,1.7-12.2v-0.3v-0.3L137.9,78.4 M90,71.1c0,0,8.7,2.6,22.4,2.6s32.6-2.6,32.6-2.6
			l-2.2,22.8c0,4.2-0.3,15.2-4.5,17.5c-4.2,2.3-0.8,1.8-10.4,2.2c-1.9,0.1-4.2,0.1-6.8,0.1c-9.9,0-22.3-0.4-22.3-0.4
			c-4.2,0-7.7-9.9-7.7-14.1L90,71.1z"/>
	</g>
</g>
</svg>
