<?xml version="1.0" encoding="utf-8"?>
<!-- Generator: Adobe Illustrator 23.0.6, SVG Export Plug-In . SVG Version: 6.00 Build 0)  -->
<svg version="1.1" id="Layer_1" xmlns="http://www.w3.org/2000/svg" xmlns:xlink="http://www.w3.org/1999/xlink" x="0px" y="0px"
	 viewBox="0 0 194 285.7" style="enable-background:new 0 0 194 285.7;" xml:space="preserve">
<style type="text/css">
	.st0{fill:#FFFFFF;stroke:#000000;stroke-width:5;}
	.st1{fill:none;stroke:#000000;stroke-width:3;stroke-linecap:round;}
	.st2{fill:none;stroke:#000000;stroke-width:5;stroke-linecap:round;}
	.st3{fill:#FFFFFF;}
</style>
<g id="Group_163" transform="translate(-1370.558 -401.357)">
	<path id="Union_15" class="st0" d="M1467.6,630.6c-5.9,0.2-23.6,0.1-23.7-6.5c-0.2-7.9-13-24.2-26.8-49.6s-43.2-28.3-44-85.1
		c-0.7-55.6,34.8-82.4,92.6-85.1v-0.1c0.6,0,1.2,0,1.9,0.1c0.6,0,1.2,0,1.9-0.1v0.1c57.9,2.6,93.4,29.4,92.6,85.1
		c-0.8,56.8-30.1,59.7-44,85.1s-26.7,41.7-26.8,49.6c-0.1,5.8-13.7,6.6-21,6.6C1469.2,630.6,1468.3,630.6,1467.6,630.6z"/>
	<path id="Path_372" class="st1" d="M1446.8,630.6l3.4,23.4"/>
	<path id="Path_373" class="st1" d="M1489.6,630.6l-3.4,23.4"/>
	<path id="Path_374" class="st2" d="M1468.2,404.1c-22.6,2.4-41.8,25-41.1,73.9s36.1,115.4,36.1,150.2"/>
	<path id="Path_376" class="st2" d="M1468.2,405.4c0,0,42.6,23.1,41.1,73.9s-36.4,115.6-36.4,150.4"/>
	<path id="Path_375" class="st2" d="M1464.4,404.1c0,0-71.6,7.1-69.7,81c0.9,34.4,17.4,55.4,30.9,76.8
		c15.1,23.9,27.3,46.7,27.3,65.3"/>
	<path id="Path_377" class="st2" d="M1472,405.4c0,0,71.6,7.1,69.7,81c-0.9,34.4-17.4,55.4-30.9,76.8
		c-15.1,23.9-27.3,46.7-27.3,65.3"/>
	<g id="Path_382" transform="translate(1447 653.699)">
		<path class="st3" d="M24.4,30.8c-7.6,0-17.2-0.3-17.3-0.3l0,0c-0.2-0.1-1.2-0.9-2.2-3.2c-0.9-2-1.3-4.2-1.3-5.3v-0.1l0-0.1
			L2.6,3.2c3.1,0.6,8.3,1.3,14.9,1.3c7.9,0,17.8-1,22.7-1.6l-1.4,14.7l0,0.1v0.1c0,2.8-0.2,5.1-0.5,7c-0.5,3.1-1.3,4.3-1.7,4.5
			c-0.9,0.5-1.4,0.8-1.7,1c-0.1,0.1-0.2,0.1-0.2,0.1c-0.3,0-1.2,0.1-2.2,0.1c-0.7,0-1.7,0-2.9,0.1C28.2,30.8,26.5,30.8,24.4,30.8z"
			/>
		<path d="M37.5,5.7C32.1,6.3,24.1,7,17.5,7C12.6,7,8.4,6.6,5.3,6.1L6,21.8l0,0.1V22c0,0.5,0.2,1.9,0.8,3.6c0.5,1.2,0.9,2,1.2,2.5
			c2.6,0.1,10.1,0.3,16.3,0.3c2.1,0,3.8,0,5.1-0.1c1.2,0,2.1-0.1,2.9-0.1c0.5,0,1.1,0,1.4,0c0.3-0.2,0.7-0.4,1.2-0.7
			c0.3-0.6,1.3-2.9,1.3-9.5v-0.2l0-0.2L37.5,5.7 M0,0c0,0,6.8,2,17.5,2S43,0,43,0l-1.7,17.8c0,3.3-0.2,11.9-3.5,13.7
			c-3.3,1.8-0.6,1.4-8.1,1.7c-1.5,0.1-3.3,0.1-5.3,0.1C16.7,33.3,7,33,7,33c-3.3,0-6-7.7-6-11L0,0z"/>
	</g>
</g>
</svg>
