<svg xmlns="http://www.w3.org/2000/svg" viewBox="0 0 408.76 87.7"><defs><style>.cls-1{fill:#fff;}</style></defs><title>BannerAsset 2</title><g id="Layer_2" data-name="Layer 2"><g id="Layer_1-2" data-name="Layer 1"><g id="Group_21" data-name="Group 21"><g id="Path_14" data-name="Path 14"><path d="M339.28,75.73l-3.62-3.45c.32-.34,8.28-8.59,25.68-16.41,11.47-5.15,26.93-10.08,36.23-12.87-8.55-2.69-21.94-7-30-10.26-12.43-5-31.09-17.52-31.88-18.05l2.8-4.14c.19.13,19,12.78,30.93,17.55C381.5,32.92,406.73,40.61,407,40.69a2.5,2.5,0,0,1-.07,4.8c-.26.07-26.76,7.41-43.53,14.94C346.88,67.85,339.35,75.65,339.28,75.73Z"/></g><g id="Path_15" data-name="Path 15"><path class="cls-1" d="M341.79,77.28S286.62,81,254.53,81.52s-85.32-5.46-148.3-4.47S2.5,85.2,2.5,85.2,13.76,63.13,15.74,44.73a64.64,64.64,0,0,0-5.3-33S89,1.08,123.06,2.66s89.22,6.44,146,7.49,80.86-3.31,80.86-3.31-6.27,20.74-8.35,38.35A132,132,0,0,0,341.79,77.28Z"/><path d="M2.3,87.69a2.49,2.49,0,0,1-2-3.62c.11-.22,11.08-21.89,13-39.61a62.19,62.19,0,0,0-5.1-31.67,2.49,2.49,0,0,1,1.94-3.5C13.32,8.85,89.24-1.41,123.18.16c11.18.53,24.35,1.38,39.59,2.37C193.16,4.5,231,7,269.12,7.65c55.91,1,80.14-3.23,80.38-3.27a2.5,2.5,0,0,1,2.84,3.18c-.07.21-6.23,20.74-8.27,37.92a129.55,129.55,0,0,0,.2,31.48,2.55,2.55,0,0,1-.55,1.9,2.46,2.46,0,0,1-1.76.91c-.56,0-55.6,3.76-87.39,4.25-13.45.21-30.58-.71-50.41-1.77C176.89,80.79,143,79,106.27,79.55c-62,1-102.93,8-103.34,8.11A2.22,2.22,0,0,1,2.3,87.69ZM14,13.81A67.38,67.38,0,0,1,18.23,45c-1.5,13.92-8,29.58-11.42,37,12.53-1.86,49.08-6.64,99.38-7.44C143,74,177.08,75.8,204.43,77.26c19.74,1.06,36.79,2,50.06,1.76C282.18,78.59,327.65,75.7,339,75a134.87,134.87,0,0,1,.1-30.06c1.58-13.34,5.46-28.2,7.36-35C337.58,11,313.3,13.46,269,12.64c-38.27-.7-76.15-3.15-106.58-5.13-15.22-1-28.37-1.83-39.51-2.35C93.37,3.78,29.14,11.84,14,13.81Z"/></g></g><g id="Group_31" data-name="Group 31"><g id="Group_27-2" data-name="Group 27-2"><g id="Path_23-2" data-name="Path 23-2"><path d="M62.64,80a1.51,1.51,0,0,1-1.36-1.28c-.06-.38-1.29-9.51,6.33-21.22,7-10.8,7.33-18.54,7.33-18.61a1.5,1.5,0,0,1,3,.07c0,.34-.28,8.59-7.82,20.18-7,10.69-5.88,19.07-5.87,19.15A1.51,1.51,0,0,1,63,80,2,2,0,0,1,62.64,80Z"/></g><g id="Path_24-2" data-name="Path 24-2"><path d="M65.27,66l-.17,0c-.35-.07-8.82-1.91-12.25-17.72a1.5,1.5,0,1,1,2.93-.64C58.75,61.31,65.63,63,65.7,63a1.5,1.5,0,0,1-.43,3Z"/></g></g><g id="Path_25-2" data-name="Path 25-2"><path class="cls-1" d="M57,55.24s2.92-3.64,1.43-6.92-6.5-7.09-6.5-7.09-3.24,6.36-2,9.86S57,55.24,57,55.24Z"/><path d="M56.86,56.73h0c-.68-.08-6.74-.87-8.28-5.13-1.45-4,1.68-10.34,2-11.05a1.52,1.52,0,0,1,1-.78,1.49,1.49,0,0,1,1.24.27c.22.17,5.32,4.09,7,7.66,1.85,4.07-1.48,8.3-1.62,8.47A1.5,1.5,0,0,1,56.86,56.73ZM52.47,43.64c-.92,2.3-1.72,5.31-1.12,6.94s3.27,2.68,4.93,3c.61-1,1.53-3,.76-4.65S54.09,45.05,52.47,43.64Z"/></g><g id="Path_26-2" data-name="Path 26-2"><path class="cls-1" d="M72.89,48.23s-4-4.84-2-9.38,8.43-9.56,8.43-9.56,4.46,8.46,2.8,13.23S72.89,48.23,72.89,48.23Z"/><path d="M72.77,49.73a1.54,1.54,0,0,1-1-.54c-.18-.23-4.55-5.62-2.19-10.95,2.13-4.82,8.6-9.91,8.87-10.13a1.49,1.49,0,0,1,1.24-.28,1.46,1.46,0,0,1,1,.76c.49.93,4.72,9.19,2.89,14.42-2,5.58-10.12,6.67-10.47,6.71A1.61,1.61,0,0,1,72.77,49.73Zm6-18c-1.93,1.69-5.27,4.89-6.54,7.77s.41,5.8,1.28,7.14c2.24-.46,6.19-1.82,7.16-4.58S80.08,34.56,78.82,31.69Z"/></g></g><path d="M124.72,42.41,117.81,32.1a.57.57,0,0,1,.49-.9l4,0a.58.58,0,0,1,.49.28l4.35,6.32,4.27-6.38a.58.58,0,0,1,.49-.28l4,0a.57.57,0,0,1,.5.89l-6.87,10.36.06,9.89a.61.61,0,0,1-.59.59l-3.68,0a.61.61,0,0,1-.6-.59Z"/><path d="M139.8,40.05a6.51,6.51,0,1,1-6.4,6.52A6.53,6.53,0,0,1,139.8,40.05Zm.06,9a2.5,2.5,0,0,0,2.43-2.56,2.45,2.45,0,1,0-4.9,0A2.5,2.5,0,0,0,139.86,49.07Z"/><path d="M148.44,39.9a.59.59,0,0,1,.59-.59l3.31,0a.61.61,0,0,1,.6.59l0,5.73A2.14,2.14,0,0,0,155,48a2,2,0,0,0,1.85-2.22l0-5.92c0-.49.34-.59.65-.59l3.16,0a.59.59,0,0,1,.59.59L161.25,51a.61.61,0,0,1-.59.59h-1.45a.68.68,0,0,1-.59-.43l-.48-1.15A5.28,5.28,0,0,1,154,52c-3.69,0-5.47-2.94-5.49-6.47Z"/><path d="M164.53,39.8a.6.6,0,0,1,.58-.6h1.46a.55.55,0,0,1,.56.36l.57,1.36a4.26,4.26,0,0,1,3.36-2.06c1.7,0,2.92.6,2.49,1.31l-1.5,2.49a.54.54,0,0,1-.69.29,1.82,1.82,0,0,0-.74-.15A1.64,1.64,0,0,0,169,44.57L169,51c0,.37-.18.59-.68.59l-3.16,0a.61.61,0,0,1-.59-.58Z"/><path d="M182,30.39a.61.61,0,0,1,.59-.59l3.44,0a.6.6,0,0,1,.59.58l.05,9a6.31,6.31,0,0,1,2.57-.61c3.32,0,6.18,2.1,6.21,6.47a6.28,6.28,0,0,1-6.1,6.55,5.35,5.35,0,0,1-4.16-1.93l-.37,1c-.12.34-.33.62-.64.62h-1.46a.61.61,0,0,1-.59-.58Zm6.71,17.38a2.49,2.49,0,0,0,2.49-2.56,2.44,2.44,0,0,0-2.52-2.46,2.41,2.41,0,0,0-2.46,2.49A2.46,2.46,0,0,0,188.72,47.77Z"/><path d="M197.79,40.58a.59.59,0,0,1,.59-.59h1.45a.58.58,0,0,1,.57.37l.56,1.36a4.3,4.3,0,0,1,3.37-2.06c1.7,0,2.91.6,2.48,1.31l-1.5,2.49a.52.52,0,0,1-.68.28,2.23,2.23,0,0,0-.74-.15,1.66,1.66,0,0,0-1.64,1.78l.05,6.42c0,.37-.19.59-.68.59l-3.16,0a.63.63,0,0,1-.6-.59Z"/><path d="M212.15,45.36a5.94,5.94,0,0,1,2.39.49c0-1.21-.2-1.83-1.69-1.82a13,13,0,0,0-3.09.48c-.47.16-.69-.18-.75-.64l-.29-1.95a.65.65,0,0,1,.46-.84,21.18,21.18,0,0,1,4.12-.49c3.84,0,5.24,1.57,5.27,5.23l0,6.85a.61.61,0,0,1-.59.59h-1.36a.58.58,0,0,1-.56-.4l-.44-.83a5.2,5.2,0,0,1-3.74,1.57,4,4,0,0,1-4.3-4.06C207.6,47.16,209.33,45.38,212.15,45.36Zm.84,5.21a1.34,1.34,0,1,0,0-2.67,1.32,1.32,0,0,0-1.32,1.31A1.35,1.35,0,0,0,213,50.57Z"/><path d="M221.62,42.43a.58.58,0,0,1,.58-.59h1.46a.67.67,0,0,1,.56.37l.51,1.23a5.83,5.83,0,0,1,4.35-2c3.85,0,5.91,2.91,5.93,6.44l0,5.64a.63.63,0,0,1-.59.6l-3.31,0a.6.6,0,0,1-.6-.59l0-5.79a2.11,2.11,0,0,0-2.13-2.31,2.26,2.26,0,0,0-2.34,2.18l0,5.95a.52.52,0,0,1-.55.59l-3.26,0a.6.6,0,0,1-.59-.58Z"/><path d="M243.25,41.39a6.23,6.23,0,0,1,2.57.58l0-9a.6.6,0,0,1,.58-.59l3.44,0a.6.6,0,0,1,.59.58l.13,20.52a.6.6,0,0,1-.58.59h-1.46c-.31,0-.53-.28-.65-.62l-.38-1a5.39,5.39,0,0,1-4.14,2,6.28,6.28,0,0,1-6.18-6.47C237.09,43.57,239.93,41.42,243.25,41.39Zm.64,9a2.47,2.47,0,0,0,2.47-2.56,2.5,2.5,0,0,0-5,0A2.48,2.48,0,0,0,243.89,50.41Z"/><path d="M260.74,30.89a.61.61,0,0,1,.59-.59l3.44,0a.61.61,0,0,1,.59.58l.06,9.12a6.46,6.46,0,0,1,2.87-.73c3.91,0,5.94,3,6,6.47l0,5.61a.62.62,0,0,1-.59.59l-3.28,0a.59.59,0,0,1-.59-.59l0-5.67a2.28,2.28,0,0,0-2.28-2.43c-1,0-2.07.57-2.06,2.46l0,5.67c0,.4-.15.59-.68.59l-3.35,0a.6.6,0,0,1-.59-.58Z"/><path d="M282.71,39.16a5.78,5.78,0,0,1,5.92,5.78,7.91,7.91,0,0,1-.06.84.58.58,0,0,1-.58.53l-7.44,0a2.31,2.31,0,0,0,2.4,2,4,4,0,0,0,2.16-.76.54.54,0,0,1,.78,0l1.56,1.84a.67.67,0,0,1,0,.9,6.29,6.29,0,0,1-4.58,1.8,6.51,6.51,0,0,1-.14-13Zm1.54,4.76a1.66,1.66,0,0,0-1.65-1.45,1.73,1.73,0,0,0-1.66,1.47Z"/><path d="M290.91,39a.61.61,0,0,1,.59-.6H293a.58.58,0,0,1,.56.37l.56,1.36a4.26,4.26,0,0,1,3.37-2.06c1.7,0,2.91.6,2.48,1.31l-1.5,2.49a.53.53,0,0,1-.68.29A2,2,0,0,0,297,42a1.66,1.66,0,0,0-1.64,1.78l0,6.42c0,.37-.18.59-.67.59l-3.16,0a.63.63,0,0,1-.6-.59Z"/><path d="M307,38a5.8,5.8,0,0,1,5.93,5.79,7.72,7.72,0,0,1-.06.83.6.6,0,0,1-.59.53l-7.43.05a2.28,2.28,0,0,0,2.39,2,4,4,0,0,0,2.17-.76.54.54,0,0,1,.77,0l1.57,1.85a.67.67,0,0,1,0,.9A6.3,6.3,0,0,1,307.1,51,6.51,6.51,0,0,1,307,38Zm1.55,4.76a1.68,1.68,0,0,0-1.65-1.45,1.73,1.73,0,0,0-1.67,1.47Z"/></g></g></svg>