<?xml version="1.0" encoding="utf-8"?>
<!-- Generator: Adobe Illustrator 23.0.6, SVG Export Plug-In . SVG Version: 6.00 Build 0)  -->
<svg version="1.1" id="Layer_1" xmlns="http://www.w3.org/2000/svg" xmlns:xlink="http://www.w3.org/1999/xlink" x="0px" y="0px"
	 viewBox="0 0 340.3 281.7" style="enable-background:new 0 0 340.3 281.7;" xml:space="preserve">
<style type="text/css">
	.st0{fill:none;stroke:#000000;stroke-width:5;stroke-linecap:round;stroke-linejoin:round;}
	.st1{fill:#FFFFFF;}
	.st2{fill:#FFFFFF;stroke:#000000;stroke-width:6;stroke-linecap:round;stroke-linejoin:round;}
</style>
<g id="Group_181" transform="translate(-1471.165 -690.557)">
	<path id="Path_378" class="st0" d="M1624.1,707.2c0,0-5.6,47.7-19,107.1s-32.6,119.6-32.6,119.6"/>
	<path id="Path_379" class="st0" d="M1624.3,704.5c0,0,10.6,46.8,30.2,104.6c19.6,57.8,45,115.5,45,115.5"/>
	<path id="Path_380" class="st0" d="M1626.8,708.9c0,0,21.3,57.6,61,107.7s108.2,132.9,108.2,132.9"/>
	<path id="Path_381" class="st0" d="M1624.5,707.6c0,0-15.2,59.5-49.4,113.5c-34.2,54-91.6,147.8-91.6,147.8"/>
	<g id="Group_164" transform="translate(1469.032 895.848) rotate(-3)">
		<g id="Path_299" transform="translate(0 40.749)">
			<path class="st1" d="M1.7,37.2L2.1,34c0.2,0.2,0.3,0.5,0.3,0.8c-0.1,0.4-0.3,0.6-0.4,0.7c0,0,0.1-0.1,0.5-0.3c0,0.1,0,0.1,0,0.2
				C2.5,36.2,2.2,36.8,1.7,37.2z M89.5,33.2c-33.9,0-63-0.1-79.7-0.3C23,29.3,41,24,58.5,18.2c29.9-10,50.3-15,52.8-15.6
				c1.4,0,8.5-0.1,22.9-0.1c9.5,0,20.4,0,32.2,0.1c11.9,0.1,24.7,0.1,38.1,0.1c21.4,0,37.6-0.1,39.7-0.1c0.8,0.1,4.4,0.8,10.6,2.6
				c6.5,1.8,17.1,5.3,31.1,11.2c8.5,3.6,23.5,9.3,46.8,16.2c0.1,0,0.2,0,0.2,0.1c-0.7,0-1.4,0-2.1,0c-14.4-0.1-37.4-0.2-65.2-0.2
				c-29.6,0-58.5,0.1-86,0.4C152.2,33.1,121.9,33.2,89.5,33.2z"/>
			<path d="M134.2,5c-13.6,0-20.7,0.1-22.6,0.1c-3.4,0.8-23.4,5.8-52.3,15.5c-11,3.7-22.1,7.1-32.1,10c16.5,0.1,38.2,0.2,62.3,0.2
				c32.3,0,62.6-0.1,90-0.4c27.5-0.3,56.4-0.4,86-0.4c19.8,0,37.1,0.1,50.6,0.1c-14.6-4.7-24.7-8.7-31.2-11.4
				c-13.9-5.8-24.4-9.2-30.7-11.1c-5.7-1.6-9.1-2.3-10.2-2.5c-2.8,0-18.7,0.1-39.5,0.1c-13.4,0-26.2,0-38.1-0.1
				C154.6,5,143.8,5,134.2,5 M134.2,0c8.2,0,18.8,0,32.2,0.1c13.4,0.1,26.5,0.1,38.1,0.1c23.1,0,39.9-0.1,39.9-0.1s14.9,2.4,42.5,14
				c15.1,6.4,33.1,12.2,46.5,16.1c10.6,3.2,2.5,5,2.5,5s3.6,0,2.1,0c-0.8,0-2.8,0-7.2,0c-15.1-0.1-37.9-0.2-65.2-0.2
				c-25.5,0-54.9,0.1-86,0.4c-31,0.3-62.2,0.4-90.1,0.4c-36.8,0-67.8-0.2-84.7-0.3c-8.5-0.1-3.3-0.1-3.3-0.1s-5.1-1.3,3-3.5
				c12.7-3.5,33.2-9.4,53.1-16C90,5,111,0.1,111,0.1S117.8,0,134.2,0z"/>
		</g>
		<g id="Group_53" transform="translate(68.712 17.627)">
			<g id="Path_42" transform="translate(0 17)">
				<path class="st1" d="M43.5,30.1L4.3,29.6L3.1,3.9C8,3.6,18.1,3,26.5,3C34,3,40.3,3.5,43.7,3.8c-0.2,3.9-0.6,11-0.6,16.6
					C43.1,24.5,43.3,27.8,43.5,30.1z"/>
				<path d="M26.5,6C19.6,6,11.6,6.4,6.3,6.7l0.9,19.9L40.3,27c-0.1-1.9-0.2-4.1-0.2-6.6c0-4.4,0.2-9.8,0.4-13.9
					C37,6.3,32.1,6,26.5,6 M26.5,0c11.7,0,20.3,1.1,20.3,1.1s-0.7,11.3-0.7,19.3c0,8,0.7,12.7,0.7,12.7L1.4,32.5L0,1.1
					C0,1.1,14.8,0,26.5,0z"/>
			</g>
			<g id="Path_47" transform="translate(42.993 23.879)">
				<path class="st1" d="M16.3,15.9L3.5,15.7L3.1,3.4C5.3,3.2,8.4,3,11,3c2.1,0,4,0.1,5.4,0.3c-0.1,2.3-0.2,5.7-0.2,8.4
					C16.2,13.4,16.3,14.8,16.3,15.9z"/>
				<path d="M11,6C9.5,6,7.8,6.1,6.2,6.2l0.2,6.6l6.8,0.1c0-0.4,0-0.8,0-1.2c0-1.8,0-3.8,0.1-5.7C12.6,6,11.8,6,11,6 M11,0
					c4.9,0,8.5,0.7,8.5,0.7s-0.3,6.5-0.3,11.1c0,4.6,0.3,7.3,0.3,7.3L0.6,18.7L0,0.7C0,0.7,6.2,0,11,0z"/>
			</g>
			<g id="Path_43" transform="translate(26.623 0)">
				<path class="st1" d="M10.7,17.4c-2,0-3.9-0.8-5.5-2.3C3.8,13.7,3,11.9,3,10.2s0.8-3.5,2.2-4.9C6.8,3.8,8.7,3,10.7,3
					c2.2,0,3.6,0.3,5.6,2.2c1.2,1.2,1.6,1.9,1.8,2.3c0.2,0.6,0.3,1.3,0.3,2.7C18.4,14.2,15,17.4,10.7,17.4z"/>
				<path d="M10.7,6C8,6,6,8.5,6,10.2c0,1.7,2,4.2,4.7,4.2c2.6,0,4.7-1.9,4.7-4.2c0-1.7,0-1.7-1.1-2.8C12.9,6.1,12.3,6,10.7,6
					 M10.7,0c2.8,0,5,0.5,7.7,3.1c2.7,2.6,3,4.2,3,7.1c0,5.6-4.8,10.2-10.7,10.2C4.8,20.4,0,15.3,0,10.2S4.8,0,10.7,0z"/>
			</g>
			<g id="Path_46" transform="translate(0.213 0)">
				<path class="st1" d="M10.7,17.4c-2.2,0-3.6-0.3-5.6-2.2c-1.2-1.2-1.6-1.9-1.8-2.3C3.1,12.3,3,11.6,3,10.2C3,6.2,6.5,3,10.7,3
					c2,0,3.9,0.8,5.5,2.3c1.4,1.4,2.2,3.2,2.2,4.9s-0.8,3.5-2.2,4.9C14.7,16.6,12.7,17.4,10.7,17.4z"/>
				<path d="M10.7,14.4c2.7,0,4.7-2.5,4.7-4.2S13.4,6,10.7,6C8.1,6,6,7.9,6,10.2c0,1.7,0,1.7,1.1,2.8C8.5,14.3,9.1,14.4,10.7,14.4
					 M10.7,20.4c-2.8,0-5-0.5-7.7-3.1c-2.7-2.6-3-4.2-3-7.1C0,4.6,4.8,0,10.7,0s10.7,5.1,10.7,10.2C21.4,15.3,16.6,20.4,10.7,20.4z"
					/>
			</g>
		</g>
		<g id="Group_54" transform="translate(227.787 13.328)">
			<g id="Path_42-2" transform="translate(0 0)">
				<path class="st1" d="M53.6,51.6L4.7,50.8L3.1,4.6C8.7,4.1,21.6,3,32.2,3c9.7,0,17.7,0.9,21.6,1.4C53.5,10.1,53,23.6,53,33.7
					C53,42,53.3,48.1,53.6,51.6z"/>
				<path d="M32.2,6c-9,0-19.6,0.8-26,1.3l1.4,40.5l42.8,0.7c-0.2-3.6-0.4-8.7-0.4-14.9c0-8.9,0.4-20.1,0.6-26.6
					C46.4,6.6,39.8,6,32.2,6 M32.2,0c14.2,0,24.7,1.9,24.7,1.9S56,20.5,56,33.7s0.9,21,0.9,21L1.7,53.7L0,1.9C0,1.9,18,0,32.2,0z"/>
			</g>
			<g id="Path_43-2" transform="translate(15.245 15.08)">
				<path class="st1" d="M13,21.8c-2.6,0-5.1-1.1-7.1-3C4.1,17,3,14.6,3,12.4C3,10.2,4.1,7.8,5.9,6c2-1.9,4.5-3,7.1-3
					c2.8,0,4.7,0.4,7.3,2.9c1.2,1.2,2,2.1,2.3,3c0.3,0.9,0.4,2,0.4,3.5C23,17.6,18.5,21.8,13,21.8z"/>
				<path d="M13,6c-3.9,0-7,3.5-7,6.4s3.1,6.4,7,6.4c3.9,0,7-2.9,7-6.4c0-2.4,0-2.6-1.8-4.3C16.3,6.2,15.1,6,13,6 M13,0
					c3.4,0,6.1,0.6,9.4,3.7c3.3,3.1,3.6,5.1,3.6,8.7c0,6.9-5.8,12.4-13,12.4S0,18.6,0,12.4C0,6.2,5.8,0,13,0z"/>
			</g>
			<g id="Path_44" transform="translate(9.225 9.061)">
				<path class="st1" d="M4.9,7.8c-0.9,0-1.7-0.4-2.4-1c-0.6-0.6-1-1.4-1-2.1s0.4-1.5,1-2.1c0.7-0.7,1.5-1,2.4-1c1,0,1.6,0.1,2.5,1
					c0.9,0.8,0.9,1.1,0.9,2.2C8.2,6.4,6.7,7.8,4.9,7.8z"/>
				<path d="M4.9,3C3.8,3,3,4,3,4.6c0,0.6,0.8,1.6,1.9,1.6c1,0,1.9-0.7,1.9-1.6c0-0.4,0-0.6,0-0.6c0,0-0.1-0.2-0.4-0.4
					C5.7,3,5.5,3,4.9,3 M4.9,0c1.3,0,2.3,0.2,3.5,1.4c1.2,1.2,1.4,1.9,1.4,3.2c0,2.6-2.2,4.6-4.9,4.6S0,7,0,4.6S2.2,0,4.9,0z"/>
			</g>
		</g>
		<g id="Group_55" transform="translate(168.456 0.43)">
			<g id="Path_39" transform="translate(0 0)">
				<path class="st1" d="M20.5,36.1c-2.3,0-4.6-0.5-6.8-1.4c-2.1-0.9-4-2.2-5.6-3.8C4.9,27.6,3,23.5,3,19.5s1.9-8.1,5.1-11.3
					c1.6-1.6,3.5-2.9,5.6-3.8C15.9,3.5,18.2,3,20.5,3c4.8,0,8.2,0.8,12.7,5.1c2.2,2.1,3.4,3.7,4,5.4c0.6,1.7,0.8,3.5,0.8,6
					c0,4.4-1.8,8.5-5.1,11.6C29.6,34.3,25.2,36.1,20.5,36.1z"/>
				<path d="M20.5,6C12.3,6,6,13.3,6,19.5c0,6.3,6.3,13.5,14.5,13.5c8,0,14.5-6.1,14.5-13.5c0-4.4-0.2-5.8-3.9-9.3
					C27.3,6.6,24.7,6,20.5,6 M20.5,0c5.4,0,9.6,1,14.7,5.9c5.1,4.9,5.7,8,5.7,13.6c0,10.8-9.2,19.5-20.5,19.5S0,29.3,0,19.5
					S9.2,0,20.5,0z"/>
			</g>
			<g id="Path_40" transform="translate(13.543 21.416)">
				<path class="st1" d="M37.7,33.5L4.2,32.9L3.1,4C7.4,3.6,16,3,23.2,3c6.3,0,11.6,0.5,14.6,0.9c-0.2,4.2-0.5,12.4-0.5,18.7
					C37.3,27.3,37.5,31,37.7,33.5z"/>
				<path d="M23.2,6c-5.7,0-12.4,0.4-17,0.8L7,30l27.4,0.4c-0.1-2.2-0.2-4.8-0.2-7.9c0-5.1,0.2-11.5,0.4-16C31.7,6.3,27.7,6,23.2,6
					 M23.2,0c10.2,0,17.8,1.3,17.8,1.3s-0.6,12.4-0.6,21.3s0.6,14,0.6,14L1.3,35.9L0,1.3C0,1.3,12.9,0,23.2,0z"/>
			</g>
		</g>
		<path id="Union_6" class="st2" d="M145.3,35.7c-0.4,0.4-0.9,0.7-1.2,1.1c-5.6,5.3-10.2,6.4-10.2,6.4s0.5-19.5,0-24.4
			s0-18.8,0-18.8s7.8,6.6,14.9,12.7s13.6,11.6,13.6,11.6s-5.4,3-10.6,6.6l12,18.1l-6.8,4.3L145.3,35.7z"/>
	</g>
</g>
</svg>
