<svg xmlns="http://www.w3.org/2000/svg" viewBox="0 0 235.92 86.8"><defs><style>.cls-1{fill:#fff;}</style></defs><title>PlaneAsset 1</title><g id="Layer_2" data-name="Layer 2"><g id="Layer_1-2" data-name="Layer 1"><g id="Group_20" data-name="Group 20"><g id="Path_11" data-name="Path 11"><path class="cls-1" d="M89.35,47.76c-4.39.38-8.26-2.59-8.61-6.58a8.62,8.62,0,0,1,0-2.5,7.2,7.2,0,0,1,1.59-2.45A8.18,8.18,0,0,1,85.13,34a8,8,0,0,1,3-.76,16.58,16.58,0,0,1,4.21,0,7.6,7.6,0,0,1,2.95,1.55c1.29,1,1.4,2.29,1.45,4,0,.4,0,.7,0,1.1C97,43.78,93.73,47.38,89.35,47.76Z"/><path d="M88.29,35.71a7,7,0,0,0-2.16.49A8.27,8.27,0,0,0,84.18,38c-.65.66-.91,1.09-.9,1.29a4.54,4.54,0,0,0,0,1.71c.24,2.69,2.81,4.57,5.9,4.3S94.42,42.6,94.19,40a5.14,5.14,0,0,1,0-1.3c0-1.61-.16-1.8-.49-2.07a4.84,4.84,0,0,0-1.89-1,23.48,23.48,0,0,0-3.51.11m-.43-5c4.08-.36,6-.13,8.81,2s2.27,5.32,2.4,6.81c.47,5.38-3.83,10.17-9.61,10.68A10.09,10.09,0,0,1,78.25,41.4c-.22-2.59-.25-4.09,2.12-6.81S84.87,31,87.86,30.73Z"/></g><g id="Subtraction_2" data-name="Subtraction 2"><path class="cls-1" d="M172.17,84.2h0l1-.09A109.18,109.18,0,0,0,190,79.73a164.78,164.78,0,0,0,20.08-8,77.71,77.71,0,0,0,16.75-10.4c4.57-4,6.84-7.82,6.63-11.42-.43-7.19-2.21-11.55-5.63-13.86-3.08-2-7.13-2.38-12.73-2.2-1,0-3.3.19-6.59.48-6.67.58-16.92,1.58-28.15,2.86L179,22.48c.58-.35,1-.7,1.52-1a9.14,9.14,0,0,0,2.8-4.76,20.48,20.48,0,0,0,.61-5.57,29.11,29.11,0,0,0-.77-6.56,40.33,40.33,0,0,0-5.94-1.39A73.28,73.28,0,0,0,161,2.78a75.7,75.7,0,0,0-14.13,2.54c-18.24,4.9-29.21,9.17-29.87,11.94a1.39,1.39,0,0,0,.29,1.08,57.77,57.77,0,0,0,10.29,7.43,57,57,0,0,0,7.86,3.83,18.53,18.53,0,0,0,7.74,1.33l.6-.05.6-.05.9,10.36C129.64,43.05,114.75,45,101,46.86a12,12,0,0,1-2.43,4.43,12.64,12.64,0,0,1-17.13,1.49A13.23,13.23,0,0,1,78.86,50c-15.15,2.33-28.4,4.59-39.36,6.65a50.85,50.85,0,0,0-2-12.17c-1.65-5.07-4.09-9-7.43-11.59a23.45,23.45,0,0,0-9.93-4.45A33.8,33.8,0,0,0,10.6,28a43.85,43.85,0,0,0-8.1,1.51L7.26,67.89,26,66.25C64.24,72.25,155.44,85.66,172.17,84.2Zm-.71-58.65h0l1.08,12.35-21.86,2.51-.89-10.26A146.7,146.7,0,0,0,171.46,25.55Z"/><path d="M169.06,86.8C141.8,86.8,33.9,70,25.9,68.77L7.48,70.38a2.52,2.52,0,0,1-2.7-2.18L0,29.77a2.5,2.5,0,0,1,1.81-2.71,47.24,47.24,0,0,1,8.55-1.59,36.86,36.86,0,0,1,10.28.5,26.12,26.12,0,0,1,11,4.93c3.67,2.89,6.46,7.19,8.28,12.8a55.26,55.26,0,0,1,1.9,10c11-2,23.28-4.09,36.67-6.15a2.49,2.49,0,0,1,2.46,1.09,10.69,10.69,0,0,0,2,2.22,10.13,10.13,0,0,0,13.68-1.19,9.34,9.34,0,0,0,1.9-3.45,2.51,2.51,0,0,1,2.06-1.81c12.81-1.77,26.9-3.58,41.91-5.39l-.48-5.55a21.37,21.37,0,0,1-7.58-1.51,60.88,60.88,0,0,1-8.2-4,61.11,61.11,0,0,1-10.7-7.73,2.68,2.68,0,0,1-.28-.3,3.91,3.91,0,0,1-.81-3,1.29,1.29,0,0,1,0-.19c.43-1.83,1.34-5.62,31.65-13.77A78.48,78.48,0,0,1,160.73.29a75.9,75.9,0,0,1,16.85.4,41.34,41.34,0,0,1,6.36,1.48A2.51,2.51,0,0,1,185.62,4a31.37,31.37,0,0,1,.83,7.12,22.73,22.73,0,0,1-.68,6.14,11.59,11.59,0,0,1-3.58,6.06l-.18.15-.37.26.94,10.72c12.35-1.38,22-2.26,25.67-2.58,3.37-.3,5.58-.51,6.77-.49,5.81-.19,10.46.18,14.14,2.62,4.14,2.8,6.27,7.81,6.75,15.79.26,4.4-2.19,8.8-7.48,13.45A79.92,79.92,0,0,1,211.11,74a165.53,165.53,0,0,1-20.4,8.1,111,111,0,0,1-17.11,4.46l-.21,0-1,.09h0C171.48,86.77,170.36,86.8,169.06,86.8Zm3.11-2.6h0ZM26,63.76l.38,0C69.81,70.59,156.13,83.09,172,81.71l.89-.08a106.78,106.78,0,0,0,16.29-4.26A160.89,160.89,0,0,0,209,69.5a74.93,74.93,0,0,0,16.2-10c4-3.5,5.93-6.66,5.77-9.38-.38-6.3-1.82-10.1-4.54-11.94-2.56-1.69-6.35-1.93-11.25-1.77H215c-.91,0-3.28.2-6.32.47-4,.34-14.59,1.31-28.1,2.85a2.51,2.51,0,0,1-2.78-2.26L176.53,22.7a2.5,2.5,0,0,1,1.19-2.35c.45-.28.84-.56,1.25-.86a6.62,6.62,0,0,0,1.93-3.39,17.66,17.66,0,0,0,.55-4.9A25.13,25.13,0,0,0,181,6.52a37,37,0,0,0-4.19-.89,71.31,71.31,0,0,0-15.68-.36A74.51,74.51,0,0,0,147.5,7.72C127.82,13,121.81,16.16,120,17.44a55.3,55.3,0,0,0,8.75,6.16,54.78,54.78,0,0,0,7.55,3.68,16.44,16.44,0,0,0,6.7,1.16l1.1-.1a2.49,2.49,0,0,1,1.82.57,2.52,2.52,0,0,1,.89,1.7l.9,10.36a2.5,2.5,0,0,1-2.19,2.7c-15.3,1.83-29.66,3.66-42.72,5.46a15.45,15.45,0,0,1-2.35,3.76l-.07.08a15.11,15.11,0,0,1-20.5,1.79l-.08-.06a16.19,16.19,0,0,1-2-2C63.87,54.84,51.16,57,40,59.1a2.5,2.5,0,0,1-3-2.36,48.93,48.93,0,0,0-1.87-11.58c-1.48-4.57-3.71-8.07-6.58-10.32a21,21,0,0,0-8.85-4,31.45,31.45,0,0,0-8.88-.43,38.12,38.12,0,0,0-5.57.9L9.44,65.19l16.33-1.43ZM150.68,42.91a2.52,2.52,0,0,1-2.49-2.28l-.89-10.26a2.48,2.48,0,0,1,2.14-2.69,142.92,142.92,0,0,0,21.3-4.53,2.55,2.55,0,0,1,2.13.33A2.48,2.48,0,0,1,174,25.33L175,37.68a2.49,2.49,0,0,1-2.2,2.7L151,42.89Zm1.8-10.63.47,5.35,16.89-1.94-.6-6.9A149.7,149.7,0,0,1,152.48,32.28Z"/></g></g></g></g></svg>