<?xml version="1.0" encoding="utf-8"?>
<!-- Generator: Adobe Illustrator 23.0.6, SVG Export Plug-In . SVG Version: 6.00 Build 0)  -->
<svg version="1.1" id="Layer_1" xmlns="http://www.w3.org/2000/svg" xmlns:xlink="http://www.w3.org/1999/xlink" x="0px" y="0px"
	 viewBox="0 0 643.4 133.9" style="enable-background:new 0 0 643.4 133.9;" xml:space="preserve">
<style type="text/css">
	.st0{fill:#FFFFFF;}
	.st1{fill:#FFFFFF;stroke:#000000;stroke-width:5;stroke-linecap:round;stroke-linejoin:round;}
	.st2{fill:none;stroke:#000000;stroke-width:5;stroke-linejoin:round;}
	.st3{fill:none;stroke:#000000;stroke-width:3;stroke-linecap:round;stroke-linejoin:round;}
	.st4{fill:none;stroke:#000000;stroke-width:3;stroke-linecap:round;}
	.st5{fill:#FFFFFF;stroke:#000000;stroke-width:3;stroke-linecap:round;stroke-linejoin:round;}
	.st6{font-family:'BrandonGrotesque-Black';}
	.st7{font-size:30.9936px;}
</style>
<g id="Group_154" transform="matrix(0.996, -0.087, 0.087, 0.996, -314.492, -1746.636)">
	<g id="Plane" transform="translate(159.452 1816.943)">
		<g id="Group_22">
			<g id="Group_20" transform="translate(404.024 8.371)">
				<g id="Path_11" transform="translate(74.743 21.485)">
					<path class="st0" d="M10.3,17.1c-4.4,0-8-3.3-8-7.3c0-1.1,0-1.9,0.2-2.5C2.7,6.8,3.1,6.2,4.3,5c1.1-1,2-1.7,3-2
						C8.1,2.7,9,2.5,10.3,2.5c1.7,0,3.1,0.1,4.2,0.4c0.9,0.3,1.7,0.8,2.8,1.8c1.2,1.1,1.2,2.4,1.1,4.1c0,0.4-0.1,0.7-0.1,1.1
						C18.3,13.8,14.7,17.1,10.3,17.1z"/>
					<path d="M10.3,5C9.4,5,8.7,5.1,8.1,5.3C7.5,5.6,6.8,6.1,6,6.9c-0.7,0.6-1,1-1,1.2C4.8,8.4,4.8,9.3,4.8,9.8
						c0,2.7,2.4,4.8,5.5,4.8s5.5-2.2,5.5-4.8c0-0.4,0-0.9,0.1-1.3c0.1-1.6,0-1.8-0.3-2.1c-0.9-0.8-1.4-1.1-1.8-1.2
						C13.1,5.1,12.1,5,10.3,5 M10.3,0c4.1,0,6,0.4,8.6,2.8c2.6,2.5,1.8,5.5,1.8,7c0,5.4-4.7,9.8-10.5,9.8S-0.2,15.2-0.2,9.8
						c0-2.6,0.1-4.1,2.7-6.6C5.2,0.8,7.3,0,10.3,0z"/>
				</g>
				<path id="Subtraction_2" class="st1" d="M164.4,82.1L164.4,82.1c0.4,0,0.7,0,1,0c5.8-0.5,11.5-1.5,17.1-2.9
					c7-1.6,14-3.7,20.7-6.2c7.4-2.8,13.3-5.8,17.6-8.9c4.9-3.6,7.5-7.2,7.6-10.8c0.2-7.2-1.2-11.7-4.4-14.3c-2.9-2.3-6.9-3-12.5-3.3
					c-1-0.1-3.3-0.1-6.6-0.1c-6.7,0-17,0.1-28.3,0.4V21.2c0.6-0.3,1.1-0.6,1.6-0.9c1.5-1.1,2.6-2.7,3.2-4.5c0.6-1.8,1-3.6,1.1-5.5
					c0.2-2.2,0.1-4.4-0.2-6.6c-1.9-0.8-3.8-1.4-5.8-1.9C171.2,0.6,165.8,0,160.3,0c-4.8,0-9.6,0.4-14.3,1.3
					c-18.6,3.3-29.9,6.6-30.8,9.3c-0.1,0.4,0,0.8,0.2,1.1c2.9,3.1,6.1,5.9,9.6,8.3c2.4,1.7,4.9,3.2,7.5,4.5c2.4,1.2,5,1.9,7.6,2h0.6
					h0.6v10.4c-15.7,0.5-30.7,1.1-44.6,1.8c-0.6,1.6-1.6,3-2.8,4.2c-4.9,4.5-12.3,4.5-17.2,0C75.8,42,75,41,74.4,39.9
					c-15.3,1-28.7,2.1-39.8,3.2c0.2-4.1-0.1-8.2-0.9-12.3c-1.2-5.2-3.3-9.3-6.4-12.2c-2.7-2.5-6-4.3-9.5-5.3
					c-3.1-0.9-6.3-1.3-9.5-1.3c-2.8,0-5.5,0.3-8.2,0.8l1.4,38.7h18.8C57.9,60.8,147.6,82.1,164.4,82.1z M168.8,23.6L168.8,23.6v12.4
					c-7.2,0.2-14.6,0.4-22,0.6V26.3C154.2,25.9,161.6,25.1,168.8,23.6z"/>
			</g>
			<g id="Group_21" transform="translate(0)">
				<path id="Path_14" class="st2" d="M335.1,11.5c0,0,19,13,31.3,18s37.7,12.9,37.7,12.9s-26.8,7.2-44,14.8s-25,15.7-25,15.7"/>
				<path id="Path_15" class="st1" d="M339.4,76.2c0,0-55.2,3.4-87.3,3.7s-85.3-6-148.3-5.4S0,82,0,82s11.4-22,13.5-40.4
					C14.7,30.4,13,19,8.4,8.6c0,0,78.6-10.2,112.7-8.4s89.2,7,146,8.4S348,5.8,348,5.8s-6.4,20.7-8.6,38.3
					C338.1,54.7,338.1,65.5,339.4,76.2z"/>
			</g>
		</g>
		<g id="Group_30" transform="translate(65.288 13.677)">
			<g id="Group_27" transform="translate(5.357 8.52)">
				<path id="Path_23" class="st3" d="M33.3,54.3c0,0,3-12.1-14.8-27.7S0,0,0,0"/>
				<path id="Path_24" class="st4" d="M21.9,28.1c0,0,6.9-1.4,9.7-14.7"/>
			</g>
			<path id="Path_25" class="st5" d="M36.6,27.7c0,0-4-5-2-9.5s8.7-9.7,8.7-9.7s4.5,8.6,2.8,13.4S36.6,27.7,36.6,27.7z"/>
			<path id="Path_26" class="st5" d="M8.5,16.7c0,0,3.5-4.3,1.7-8.3S2.7,0,2.7,0s-3.9,7.5-2.4,11.7S8.5,16.7,8.5,16.7z"/>
		</g>
		<g id="Group_31" transform="translate(26.997 33.061)">
			<g id="Group_27-2" transform="translate(4.084 8.52)">
				<path id="Path_23-2" class="st3" d="M7.3,34.9c0,0-1.1-7.8,5.5-17.8S19.6,0,19.6,0"/>
				<path id="Path_24-2" class="st4" d="M9.7,22.5c0,0-6.9-1.4-9.7-14.7"/>
			</g>
			<path id="Path_25-2" class="st5" d="M6.4,22.8c0,0,2.6-3.2,1.3-6.1s-5.7-6.3-5.7-6.3s-2.9,5.6-1.8,8.7S6.4,22.8,6.4,22.8z"/>
			<path id="Path_26-2" class="st5" d="M20.5,16.7c0,0-3.5-4.3-1.7-8.3S26.3,0,26.3,0s3.9,7.5,2.4,11.7S20.5,16.7,20.5,16.7z"/>
		</g>
	</g>
	<text transform="matrix(1.0002 0 0 1.0002 282 1867.9998)" class="st6 st7">Your brand here</text>
</g>
</svg>
