<svg xmlns="http://www.w3.org/2000/svg" width="1942.673" height="1856.953" viewBox="0 0 1942.673 1856.953">
  <g id="skyline" transform="translate(-425.939 -737.826)">
    <path id="Path_17" data-name="Path 17" d="M2390.753,2498.778c.959,0,0-1523.122,0-1523.122s-30.763.512-29.985-.419c2.4-2.883-.463-6.371-1.988-7.147-5.715-2.91-7.591,3.689-8.046-4.252-.124-2.2.505-3.334,1.027-5.41,3.893-15.49,10.164-30.729,15.181-45.906-25.781-4.8-54.06-1.362-79.976.579q-27.582,2.067-55.086,5.21c0-3.168.509-4.519-1.27-5.788-2.261-1.617-11.6,0-14.375,0-4.218,0-21.761,2.292-24.1-.6-2.3-2.844,1.547-5.657-1.6-7.5-2.883-1.686-11.962,0-15.292,0-2.18,0-12.183-1.482-14.012,0-1.794,1.455.594,6.576-1.034,8.1-2.03,1.9-7.1-.209-7.807-1.443-1.729-3.014,0-12.144,0-15.644,0-5.626,1.374-5.73-3.075-6.838-5.816-1.451-4.774.776-5.028,4.993-.293,4.9,1.142,10.824,0,15.583-.062.262.3,3.079,0,3.349-.455.421-6.977.409-7.5,0-2.211-1.737.865-7.833-.6-10.454-1.358-2.431-3.874-1.509-7.571-1.509-6.367,0-21.259,2.547-24.241-2.007-2.111-3.222-1.111-13.032-1.444-16.894l-1.088-12.742-1.613,18.9c-.193,2.265.367,9.281-.96,11.268-1.451,2.165.436.39-2.524,1.474-2.667.976-14.166.887-15.374-.791-2.045-2.848-.347-13.9-.436-17.357l-.687-27.256c-.128-5.04,1.69-15.409-.5-20-.621-1.3.274-1.436-.652-2.13-4.492-3.369-5.472,3.241-7.506-2.86-1.69-5.067-2.107-11.4-3.859-16.821-.8,2.485-1.771,10.053-3.728,11.554-1.779,1.366-7.247.409-9.778.409l-3.087-10.419c-.676,2.2-2.149,13.3-3.681,14.664-2.157,1.922-15.123,0-17.894,0h-29.934c-4.685,0-17.183,2.369-21.328,0-4.881-2.79-1.64-27.966-1.64-34.433V766.476c0-2.589,1.126-10.763-.6-12.171-2.624-2.142-5.781,1.509-7.506-1.378-1.933-3.238,2.161-10.515,0-13.572-1.752-2.474-12.989-.872-16.574-.872h-15.4c-2.142,0-8.736-1.208-10.484,0-3.52,2.431,1.682,13.379-1.447,15.821-1.528,1.2-6.564-1.227-7.8.2-.641.737,0,4.642,0,5.576v55.653c0,1.825,1.4,12.5,0,13.823-1.659,1.574-12.688,0-14.842,0h-80.088l1.7,59.813h-95.7l4.63-43.606H1625.647l1.158,11.963h-20.657c-3.419,0-14.266,1.721-16.389-.409-1.868-1.872,1.853-9.258,0-11.145-1.474-1.5-6.629.258-8.864-.409-4.4-1.312-2.269,1.03-3.1-4.3-.575-3.674.054-7.784,0-11.511-.054-3.662.039-8.324-1.779-12.314-3.446-7.571-8.791-8.069-14.922-12.179-6.1-4.09-1.621,1.181-2.979-2.06-.645-1.524-.166-5.457,0-7.112.344-3.477,2.635-7-.131-9.883a5.439,5.439,0,0,0-8.417.907c-2.18,3.658.618,3.01.83,5.974.17,2.4.938,8.235,0,10.454-1.416,3.346-9.092,4.43-12.553,7.772-4.414,4.26-8.038,11.847-5.969,18.048-4.994.56,1.243,12.661-1.544,15.455-2.509,2.508-9.752-1.389-11.963,1.644-1.578,2.165.807,8.084,0,10.708-1.335,4.338.224.548-3.913,3.805a16.887,16.887,0,0,0-4.322,4.144c-1.1,1.621-1.439,6.9-2.57,7.849-4.021,3.365-3.2-2.508-5.02,2.891-1.556,4.615,2.245,10.732-1.687,12.931-4.785,2.674-16.154-.718-21.757,0-6.564.845-4.341,2.713-4.341,10.025,0,8-2.01,5.8-9.778,5.8-2.4,0-16.1,1.706-17.8,0-2.042-2.045-.2-13.73-.2-17.087,0-1.408.76-5.588,0-6.838-.328-.54-3.577.548-3.859,0-.374-.741.232-2.342,0-3.1-2.173-7.143,3.33-8.551-5.152-8.86-7.235-.263-14.529,0-21.768,0-4.765,0-7.07,1.3-8.582-2-1.589-3.473,0-11.476,0-15.254V826.826c0-4.222,2.794-26.569-.39-29.3-1.737-1.49-11.06,0-13.163,0h-24.547c-4.719,0-14.675-1.976-19,0-3.16,1.443-1.852-.425-2.327,4.4-1.4,14.4,0,29.617,0,44.088,0,1.563,1.158,9.779,0,10.936-1.285,1.289-10.134,0-11.782,0h-22.162c-6.788,0-15.559,1.509-22.193,0-4.229-.965-3.06.6-3.292-4.99-.124-3.006,2.161-16.748,0-18.936-.675-.687-7.946-.274-8.86,0-4.2,1.262-1.463-1-3.1,1.972-2.837,5.148,3.338,16.273,0,21.039-1.509,2.153-9.173.914-12.3.914H1238c-5.017,0-7.139,1.339-8.668-2.2-2.647-6.147,0-19.24,0-25.955,0-2.261.88-7.293,0-9.385-1.424-3.4,1.181-.749-2.886-2.2-7.752-2.771-12.557,4.6-12.935-4.989-.139-3.655,1.926-17.018-.6-18.936-.98-.745-3.558.695-4.584,0-1.3-.888-.9-6.908-1.644-9.088-1.744-5.082-6.977-11.418-12.85-7.506,0-3.477,1.686-17.6-.6-19.295-1.926-1.424-5.978,1.069-7.5-.7-1.154-1.335,0-8.883,0-10.435,0-6.742,1.393-15.084,0-21.664a44.321,44.321,0,0,0-4.148-10.516c-1.358-2.053-4.2-4.855-7.043-4.148-2.373.59-2.736,4.06-5.016,4.631v-14.2c0-1.459.706-4.735,0-5.989-.587-1.038-3.192.363-3.859-.864-1.015-1.86.918-5.283,0-7.2-.494-1.027-3.261.351-3.859-.783-2.088-3.944,3.847-12.8-4.245-10.708.571-2.288-1.011-20.217-6.174-15.05.51-6.22,7.49-12.981-.772-15.436l-.772,6.174c-2.427-3.076-5.634-3.053-7.718.386,11.314-2.057,3.577,20.113,4.631,24.311-9.69-.521-1.706,4.642-5.016,10.454-1.015,1.775-3.23.745-3.859,2.111-.957,2.065.351,5.827-.5,7.5-.39.76-2.508,0-3.357,1.686-.938,1.864,0,6.989,0,9.111v16.987c-.868-9.188-10.187-10.226-14.124-2.62-1.389,2.682-1,3.72-1.312,7.043-.536,5.727,0,11.8,0,17.547,0,2.365,1.516,11.214,0,13.128-1.285,1.617-6.641-.868-8.1.571-1.212,1.193,0,10.863,0,12.333v17.029c0,3.924,1.188,7.44-4.245,5.974,0-7.625-2.589-17.751-12.349-17.751-7.278,0-15.957,10.535-12.349,17.751-6.784,0-4.329-.76-6.174,4.052-1.605,4.183,1.447,2.539-2.026,4.052-6.3,2.744-19.758,0-26.518,0-3.735,0-9.142,1.023-12.742,0-4.5-1.277-2.122-.51-5.109-6-4.769-8.779-17.276-6.471-17.276,4.071,0-5.287,2.574-19.106,0-23.582-1.956-3.4-1.532.035-6-1.887-3.006-1.293-1.8-.405-2.1-4.642-.594-8.455,1.3-17.523,0-25.893a63.322,63.322,0,0,0-1.841-8.794c-1.258-3.932-10.122-11.716-10.122-2.732,0-4.376.818-9.47,0-13.742-.467-2.419-.482-2.933-1-4.01-.189-.394-2.651.39-2.856,0-.428-.806.4-2.249,0-3.075-.66-1.362-.679-4.349-1-5.028-.2-.421-2.609.409-2.856,0-.347-.563.289-1.7,0-2.3-1.679-3.488,3.269-11.747-3.859-9.659.289-2.91.675-5.731.046-8.652-.691-3.207-3.288-5.194-3.894-7.691-.88-3.631.845-12.985,5.777-12.985-2.292-2.879-5.673-2.554-7.332.772l-1.544-5.788c-5.183,3.766-3.986,3.685-1.169,9.52a73.131,73.131,0,0,1,3.871,9.775c-6.6,1.293-5.017,10.489-5.017,15.436-6.371-1.547-1.308,7.324-3.087,10.454-.938,1.644-3.334.6-3.859,1.509-1.134,1.968,1.061,5.792,0,7.8-.579,1.092-3.3-.479-3.859.88-.706,1.7,0,5.461,0,7.255v16.092c-3.2-7.807-6.9-9.285-12.808-2.995,0,0-2.285,3.484-2.049,2.995-.193.405-1.138-.394-1.351.189-.409,1.115.158,2.8,0,3.971-.691,5.1,0,10.778,0,15.93,0,1.779,1.231,10.122,0,11.461-1.355,1.463-6.765-1.03-8.1.5-1.208,1.378,0,9.292,0,11.09,0,6.711,1.941,18.241-.39,24.007.332-7.448-4.565-17.207-13.444-15.169-4.067.934-6.742,4.457-8.054,8.2-.444,1.254-.212,6.174-.884,6.873a6.608,6.608,0,0,1-2.315.482c-1.818,2.7-.868-1.891-2.315,3.1-.59,2.037,1.242,6.873,0,8.451-1.015,1.289-4.345-.309-6,.409-3.118,1.35-1.073-.177-2.1,3.824-.6,2.346,1.42,10.647-.421,12-2.161,1.586-11.33,0-13.985,0H864.984c-5.144,0-12.4-1.4-17.361,0-4.218,1.2-3.025-.127-3.025,5.981,0,6.761.413,5.981-6,5.981-5.071,0-14.22,1.868-18.893,0-1.258-.5-2.2.367-2.89-.409-1.605-1.794,1.192-7.934,0-10.045-1.976-3.5-15.2-1.509-19.874-1.509H753.9c-3.782,0-10.01-1.3-13.572,0-3.543,1.289-2.454-.413-2.62,4.99-.2,6.58,1.532,5.735-3.35,6.973-6.1,1.551-14.448,0-20.753,0-2.7,0-12.989-1.7-15.062,0-2.447,2,1.517,9.389-.583,11.758-1.119,1.266-5.287-.783-6.753.2-1.949,1.32-.428.182-1.351,3.114-1.03,3.288,2.3,14.193,0,16.567-1.2,1.242-6.128-1.077-7.5,0-1.1.86-.5,3.145-.6,4.989-.374,6.78,1.563,6.73-5.152,6.973-8.393.309-24.087-2.543-30.35,1-.517.293-.2,2.153-1.393,2.856-1.262.741-5.538,0-7.093,0-7.166,0-14.371.239-21.533,0-5.576-.185-4.685.98-5.1-4.754-.3-4.214,0-8.521,0-12.754V841.405c0-8.173-.012-6.834-7.826-6.834-3.747,0-16.512-2.238-19.468,0-.355.27-.3,13.09-4.349,7.811-2.3-2.994.687-13.028,0-16.925-1.767-10.083-7.61-20.614-11.191-30.246-2.871,9.74-7.2,19.908-8.821,29.918-.394,2.451,1.5,10.824-.054,12.144-1.293,1.1-8.185,0-9.887,0H507.694c-1.937,0-9.79,1.293-11.175,0-.807-.753-.166-2.763-.382-4.141-1.644-10.6,0-22.825,0-33.542V756.829c0-4.611-1.852-15.451.957-18.665,3.361-3.84,12.877-2.072,16.678-5.557,3.238-2.971,2.045-7.347,2.045-12.576,0-8.6-.864-3.832-8.042-5.858-2.956-.833-4.77-3.06-7.548-5.194-3.612-2.779-5.881.737-4.476-6.68.714-3.755-.934-2.628,2.1-3.948,1.717-.749,4.828.814,6-.366.818-.822.521-14.749-.3-15.455-1.435-1.235-5.781.891-7.506,0-1.05-.544.467-3.342-.71-3.859-1.528-.668-6.8-.506-8.451,0-.764.232-2.358-.378-3.1,0-.536.27.532,3.558,0,3.859-5.758,3.269-7.162-3.608-7.718,4.754-.12,1.833-1.03,7.961,0,9.69,1.59,2.659,2.574-.093,6,1.378,3.319,1.42,1.239-.683,2.1,3.948.98,5.264-.324,4.179-2.35,6.556-1.32,1.547-5.453,4.789-7.212,5.318-2.226.671-7.957-1.378-9.721,0-1.324,1.038-.718,11.708-.4,13.745.926,5.873,2.311,4.777,8.86,6.958,9.1,3.033,10.82,1.408,10.82,10.138V865.3c0,9.042.8,8.088-8.663,8.088H453.439V2498.778M1135.174,764.724c-10.624,0-10.586-26.241,0-26.241C1145.8,738.484,1145.724,764.724,1135.174,764.724Zm31.643,0c-11.114,0-10.334-27.954,1.022-26.009C1177.317,740.34,1177.248,764.724,1166.817,764.724Z" transform="translate(-25 96)" fill="#fff" stroke="#000" stroke-linejoin="round" stroke-miterlimit="10" stroke-width="5"/>
  </g>
</svg>
