<svg xmlns="http://www.w3.org/2000/svg" width="398.988" height="152.668" viewBox="0 0 398.988 152.668">
  <g id="truck" transform="translate(2.501 1.5)">
    <g id="Path_22" data-name="Path 22" transform="translate(197.069 24.596)" fill="#fff">
      <path d="M 13.80151271820068 23.69566345214844 C 7.476372241973877 23.69566345214844 2.330492258071899 18.94149398803711 2.330492258071899 13.09783363342285 C 2.330492258071899 11.57278347015381 2.356902360916138 10.41726398468018 2.698642253875732 9.433633804321289 C 3.055812358856201 8.405623435974121 3.818982362747192 7.381043434143066 5.173152446746826 6.111493587493896 C 6.68486213684082 4.694263458251953 8.020282745361328 3.780403614044189 9.375802040100098 3.235513687133789 C 10.64121246337891 2.726843595504761 12.00615215301514 2.500003576278687 13.80151271820068 2.500003576278687 C 18.93765258789062 2.500003576278687 20.73821258544922 2.884093523025513 23.61984252929688 5.58561372756958 C 25.65533256530762 7.493893623352051 25.4886417388916 9.744463920593262 25.34157180786133 11.7301139831543 C 25.30607223510742 12.20939350128174 25.27254295349121 12.66209316253662 25.27254295349121 13.09783363342285 C 25.27254295349121 18.94149398803711 20.12666320800781 23.69566345214844 13.80151271820068 23.69566345214844 Z" stroke="none"/>
      <path d="M 13.80151271820068 5.000003814697266 C 11.23533248901367 5.000003814697266 9.545513153076172 5.439233779907227 6.883003234863281 7.935342788696289 C 5.374412536621094 9.349643707275391 5.13789176940918 10.03040313720703 5.060173034667969 10.25411319732666 C 4.864862442016602 10.81626319885254 4.83049201965332 11.61899375915527 4.83049201965332 13.09783363342285 C 4.83049201965332 17.5629940032959 8.85487174987793 21.19566345214844 13.80151271820068 21.19566345214844 C 18.74815368652344 21.19566345214844 22.77253341674805 17.5629940032959 22.77253341674805 13.09783363342285 C 22.77253341674805 12.56962394714355 22.81109237670898 12.04896354675293 22.84839248657227 11.54543399810791 C 23.00864219665527 9.381834030151367 22.96864318847656 8.401952743530273 21.90998268127441 7.409454345703125 C 20.4505729675293 6.041254043579102 19.59186172485352 5.653533935546875 18.88130187988281 5.4383544921875 C 17.6799430847168 5.074542999267578 15.9817419052124 5.000003814697266 13.80151271820068 5.000003814697266 M 13.80151271820068 3.814697265625e-06 C 19.33387184143066 3.814697265625e-06 21.83694267272949 0.4873142242431641 25.32969284057617 3.761774063110352 C 28.82245254516602 7.036233901977539 27.77253150939941 11.05068397521973 27.77253150939941 13.09783363342285 C 27.77253150939941 20.33156394958496 21.51749229431152 26.19566345214844 13.80151271820068 26.19566345214844 C 6.085533142089844 26.19566345214844 -0.1695079803466797 20.33156394958496 -0.1695079803466797 13.09783363342285 C -0.1695079803466797 9.611154556274414 -0.02945709228515625 7.562112808227539 3.463302612304688 4.287652969360352 C 6.956052780151367 1.013193130493164 9.804662704467773 3.814697265625e-06 13.80151271820068 3.814697265625e-06 Z" stroke="none" fill="#190e3c"/>
    </g>
    <g id="Group_28" data-name="Group 28" transform="translate(24.59 0)">
      <g id="Group_27" data-name="Group 27" transform="translate(5.357 8.52)">
        <path id="Path_23" data-name="Path 23" d="M3339.12,473.41s3-12.088-14.833-27.664-18.478-26.608-18.478-26.608" transform="translate(-3305.809 -419.139)" fill="none" stroke="#190e3c" stroke-linecap="round" stroke-linejoin="round" stroke-width="3"/>
        <path id="Path_24" data-name="Path 24" d="M3307.632,447.215s6.919-1.446,9.739-14.722" transform="translate(-3285.693 -419.139)" fill="none" stroke="#190e3c" stroke-linecap="round" stroke-width="3"/>
      </g>
      <path id="Path_25" data-name="Path 25" d="M3269.5,448.845s-4.007-4.969-2.006-9.486,8.729-9.74,8.729-9.74,4.479,8.6,2.8,13.406S3269.5,448.845,3269.5,448.845Z" transform="translate(-3232.933 -421.099)" fill="#fff" stroke="#190e3c" stroke-linecap="round" stroke-linejoin="round" stroke-width="3"/>
      <path id="Path_26" data-name="Path 26" d="M3275.458,446.365s3.451-4.328,1.728-8.262-7.518-8.484-7.518-8.484-3.858,7.49-2.41,11.677S3275.458,446.365,3275.458,446.365Z" transform="translate(-3266.933 -429.619)" fill="#fff" stroke="#190e3c" stroke-linecap="round" stroke-linejoin="round" stroke-width="3"/>
    </g>
    <g id="Group_29" data-name="Group 29" transform="translate(85.299 14.384)">
      <g id="Group_27-2" data-name="Group 27" transform="translate(4.084 8.52)">
        <path id="Path_23-2" data-name="Path 23" d="M3305.88,454.026s-1.112-7.77,5.49-17.783,6.839-17.1,6.839-17.1" transform="translate(-3298.624 -419.139)" fill="none" stroke="#190e3c" stroke-linecap="round" stroke-linejoin="round" stroke-width="3"/>
        <path id="Path_24-2" data-name="Path 24" d="M3317.371,447.215s-6.919-1.446-9.739-14.722" transform="translate(-3307.632 -424.684)" fill="none" stroke="#190e3c" stroke-linecap="round" stroke-width="3"/>
      </g>
      <path id="Path_25-2" data-name="Path 25" d="M3273.381,442.062s2.61-3.216,1.307-6.139-5.686-6.3-5.686-6.3-2.918,5.565-1.823,8.676S3273.381,442.062,3273.381,442.062Z" transform="translate(-3266.933 -419.25)" fill="#fff" stroke="#190e3c" stroke-linecap="round" stroke-linejoin="round" stroke-width="3"/>
      <path id="Path_26-2" data-name="Path 26" d="M3269.143,446.365s-3.451-4.328-1.728-8.262,7.518-8.484,7.518-8.484,3.858,7.49,2.41,11.677S3269.143,446.365,3269.143,446.365Z" transform="translate(-3248.642 -429.619)" fill="#fff" stroke="#190e3c" stroke-linecap="round" stroke-linejoin="round" stroke-width="3"/>
    </g>
    <g id="Group_26" data-name="Group 26" transform="translate(0 9.473)">
      <path id="Subtraction_3" data-name="Subtraction 3" d="M94.792,0h0a50.381,50.381,0,0,1-1.708,5.61,62.645,62.645,0,0,1-6.032,12.343A41.969,41.969,0,0,1,75.337,30.3a32.987,32.987,0,0,1-18.757,5.61c-.457,0-.9-.008-1.367-.024-7.172-.251-13.339-1.989-18.331-5.166a28.852,28.852,0,0,1-9.671-10.291,35.86,35.86,0,0,1-3.775-10.084A29.033,29.033,0,0,1,22.792,5.8L.51,4.259h0v.006C.462,4.7-.613,15.1.51,35.883a40.419,40.419,0,0,0,1.968,11.2,19.33,19.33,0,0,0,4.023,6.9c3.24,3.5,7.458,5.107,11.923,6.811,1.429.545,2.906,1.109,4.368,1.744,2.4,1.04,7.21,1.961,14.308,2.739,5.678.622,12.823,1.155,21.238,1.583,14.244.724,27.537.9,27.669.9l.009.007c.46.358,11.391,8.876,23.387,17.437,7.216,5.15,13.458,9.354,18.553,12.494,6.368,3.925,10.95,6.19,13.619,6.732,6.955,1.413,31.424,3.119,51.379,3.119,7.461,0,13.6-.234,18.253-.7,5.3-.526,8.544-1.341,9.656-2.422,1.321-1.285,2.318-4.287,2.964-8.922a115.5,115.5,0,0,0,.874-14.137c.108-9.67-.5-18.745-.505-18.835.252-.006,29.488-.666,55.64-.666,15.3,0,26.488.224,33.267.666s16.994.666,30.36.666c22.891,0,47.093-.66,47.335-.666l0-.024c.183-1.182,1.81-11.873,2.637-23.143a130.748,130.748,0,0,0,.33-17.314c-.365-5.656-1.365-9.284-2.972-10.783-1.493-1.394-4.152-2.424-7.9-3.063a69.3,69.3,0,0,0-11.34-.788A162.034,162.034,0,0,0,353.7,8.544a28.31,28.31,0,0,1-.762,4.711,35.373,35.373,0,0,1-4.292,10.365,29.908,29.908,0,0,1-10.83,10.365C332.253,37.112,325.4,38.7,317.443,38.7h-.213c-8-.028-14.875-2.08-20.425-6.1a34.352,34.352,0,0,1-10.728-13.3,51.74,51.74,0,0,1-4.15-13.273A45.029,45.029,0,0,1,281.235,0c-.1.011-10.152,1.217-24.065,2.4C244.276,3.492,225.262,4.8,207.9,4.8c-6.475,0-12.365-.181-17.506-.537C155.611,1.846,95.4.018,94.793,0Zm96.495,96.83c-18.032,0-40.969-.593-47.839-3.418-3.244-1.333-10.227-5.139-25.077-15.7C109.551,71.44,101.9,65.579,101.828,65.52c.264-.007,32.259-.844,55.217-.844,13.455,0,21.193.284,23,.844,6.071,1.882,30.359,2.483,30.6,2.489v28.6C210.592,96.608,202.07,96.83,191.287,96.83Z" transform="translate(393.93 107.561) rotate(180)" fill="#fff" stroke="#190e3c" stroke-linecap="round" stroke-linejoin="round" stroke-width="5"/>
      <g id="Path_20" data-name="Path 20" transform="translate(43.841 75.575)" fill="#fff" stroke-linecap="round" stroke-linejoin="round">
        <path d="M 32.29119873046875 62.08242034912109 C 28.268310546875 62.08242034912109 24.36708831787109 61.29508972167969 20.69588851928711 59.7423095703125 C 17.1486759185791 58.24196624755859 13.96242141723633 56.09355545043945 11.22564315795898 53.35677719116211 C 8.488865852355957 50.61999893188477 6.3404541015625 47.43374252319336 4.840109825134277 43.88653182983398 C 3.287332057952881 40.21533203125 2.499998807907104 36.3140983581543 2.499998807907104 32.29121017456055 C 2.499998807907104 27.88303184509277 2.69637656211853 24.75762176513672 3.700132131576538 21.82699966430664 C 4.799543380737305 18.61708831787109 6.894354343414307 15.58111000061035 10.49238777160645 11.98307704925537 C 14.24167633056641 8.233777046203613 17.60127639770508 5.821387767791748 21.06523132324219 4.391121387481689 C 24.2327880859375 3.083243608474731 27.69499778747559 2.499999046325684 32.29119873046875 2.499999046325684 C 36.24200820922852 2.499999046325684 40.12121963500977 3.357521295547485 43.82105255126953 5.048743724822998 C 47.3387336730957 6.656699180603027 50.53655242919922 8.937276840209961 53.32568740844727 11.82714366912842 C 56.02415466308594 14.62306594848633 58.24552154541016 17.94207763671875 59.7496337890625 21.42535400390625 C 61.29754257202148 25.01005554199219 62.0823974609375 28.66585540771484 62.0823974609375 32.29121017456055 C 62.0823974609375 35.91656494140625 61.29754257202148 39.57236480712891 59.7496337890625 43.15706634521484 C 58.24552154541016 46.64035415649414 56.02415466308594 49.95935440063477 53.32568740844727 52.75527572631836 C 50.53655242919922 55.6451416015625 47.3387336730957 57.92572021484375 43.82105255126953 59.53367614746094 C 40.12121963500977 61.22489929199219 36.24200820922852 62.08242034912109 32.29119873046875 62.08242034912109 Z" stroke="none"/>
        <path d="M 32.29119873046875 4.999996185302734 C 28.03790664672852 4.999996185302734 24.86995697021484 5.524875640869141 22.01934432983398 6.701889038085938 C 18.86990356445312 8.002288818359375 15.76885223388672 10.24214172363281 12.26015853881836 13.75083541870117 C 8.945426940917969 17.06557083129883 7.034839630126953 19.80618286132812 6.065250396728516 22.63706207275391 C 5.169757843017578 25.2515983581543 5 28.0471305847168 5 32.29121017456055 C 5 35.97770309448242 5.720878601074219 39.55127716064453 7.142623901367188 42.91265106201172 C 8.516933441162109 46.1618766784668 10.48541259765625 49.08102416992188 12.99341201782227 51.58901214599609 C 15.50139999389648 54.09701156616211 18.4205436706543 56.06549072265625 21.66977310180664 57.43979644775391 C 25.03114700317383 58.86154174804688 28.60470581054688 59.58242416381836 32.29119873046875 59.58242416381836 C 35.88083648681641 59.58242416381836 39.41036987304688 58.8010368347168 42.78171920776367 57.25995635986328 C 46.01364135742188 55.78263854980469 48.95591735839844 53.68291473388672 51.52684020996094 51.01914215087891 C 54.01861190795898 48.43738555908203 56.06834411621094 45.37601089477539 57.45446395874023 42.16598510742188 C 58.8664665222168 38.89604949951172 59.5823974609375 35.57370376586914 59.5823974609375 32.29121017456055 C 59.5823974609375 29.00871658325195 58.8664665222168 25.68637084960938 57.45446395874023 22.41643524169922 C 56.06834411621094 19.2064094543457 54.01861190795898 16.14503860473633 51.52684020996094 13.56327819824219 C 48.95591735839844 10.89950180053711 46.01364135742188 8.799781799316406 42.78171920776367 7.322463989257812 C 39.41036987304688 5.781383514404297 35.88083648681641 4.999996185302734 32.29119873046875 4.999996185302734 M 32.29119873046875 0 C 50.12512969970703 0 64.5823974609375 16.14561080932617 64.5823974609375 32.29121017456055 C 64.5823974609375 48.43680953979492 50.12512969970703 64.58242034912109 32.29119873046875 64.58242034912109 C 14.4572639465332 64.58242034912109 0 50.12515640258789 0 32.29121017456055 C 0 23.58819580078125 0.651824951171875 18.28810501098633 8.724624633789062 10.21530532836914 C 16.79742431640625 2.142501831054688 23.1602783203125 0 32.29119873046875 0 Z" stroke="none" fill="#190e3c"/>
      </g>
      <g id="Path_21" data-name="Path 21" transform="translate(305.246 77.113)" fill="#fff" stroke-linecap="round" stroke-linejoin="round">
        <path d="M 32.29119873046875 62.08242034912109 C 28.34038734436035 62.08242034912109 24.4611759185791 61.22489929199219 20.76134300231934 59.53367614746094 C 17.24366569519043 57.92572021484375 14.04584312438965 55.6451416015625 11.25671005249023 52.75527572631836 C 8.558242797851562 49.95935440063477 6.336876392364502 46.64035415649414 4.832765579223633 43.15706634521484 C 3.284854173660278 39.57236480712891 2.499998807907104 35.91656494140625 2.499998807907104 32.29121017456055 C 2.499998807907104 28.66585540771484 3.284854173660278 25.01005554199219 4.832765579223633 21.42535400390625 C 6.336876392364502 17.94207763671875 8.558242797851562 14.62306594848633 11.25671005249023 11.82714366912842 C 14.04584312438965 8.937276840209961 17.24366569519043 6.656699180603027 20.76134300231934 5.048743724822998 C 24.4611759185791 3.357521295547485 28.34038734436035 2.499999046325684 32.29119873046875 2.499999046325684 C 36.3140869140625 2.499999046325684 40.2153205871582 3.28733229637146 43.88650894165039 4.840110301971436 C 47.43373107910156 6.340454578399658 50.61997604370117 8.488865852355957 53.35676574707031 11.22564315795898 C 56.09354400634766 13.96242141723633 58.241943359375 17.1486759185791 59.74228668212891 20.69588851928711 C 61.29507827758789 24.36708831787109 62.0823974609375 28.2683219909668 62.0823974609375 32.29121017456055 C 62.0823974609375 36.69938659667969 61.88602066040039 39.82481002807617 60.88226699829102 42.75543212890625 C 59.78284454345703 45.9653434753418 57.68803024291992 49.00131988525391 54.09000015258789 52.5993537902832 C 50.3407096862793 56.3486442565918 46.98110961914062 58.76104354858398 43.51716613769531 60.19129943847656 C 40.349609375 61.49917602539062 36.88739776611328 62.08242034912109 32.29119873046875 62.08242034912109 Z" stroke="none"/>
        <path d="M 32.29119873046875 59.58242416381836 C 36.54449081420898 59.58242416381836 39.71244049072266 59.05754470825195 42.56305313110352 57.88053131103516 C 45.71249389648438 56.58013153076172 48.81354522705078 54.34027862548828 52.32223892211914 50.83158493041992 C 55.63697052001953 47.51684951782227 57.54755783081055 44.77623748779297 58.51714706420898 41.94535827636719 C 59.41263961791992 39.3308219909668 59.5823974609375 36.5352897644043 59.5823974609375 32.29121017456055 C 59.5823974609375 28.60471725463867 58.86151885986328 25.03114318847656 57.43977355957031 21.66976928710938 C 56.06546401977539 18.4205436706543 54.09698486328125 15.50139713287354 51.58898544311523 12.99341011047363 C 49.08099746704102 10.4854097366333 46.1618537902832 8.51693058013916 42.91262435913086 7.142623424530029 C 39.55125045776367 5.720876693725586 35.97769165039062 4.999996662139893 32.29119873046875 4.999996662139893 C 28.70155906677246 4.999996662139893 25.17202568054199 5.781383514404297 21.80067825317383 7.322463512420654 C 18.56875801086426 8.799783706665039 15.62647914886475 10.89950370788574 13.0555591583252 13.56327724456787 C 10.56378555297852 16.1450366973877 8.514052391052246 19.2064094543457 7.127932071685791 22.41643714904785 C 5.71593189239502 25.68637084960938 4.999998569488525 29.00871658325195 4.999998569488525 32.29121017456055 C 4.999998569488525 35.57370376586914 5.71593189239502 38.89606475830078 7.127932071685791 42.16599655151367 C 8.514052391052246 45.37602233886719 10.56378555297852 48.43738174438477 13.0555591583252 51.01914215087891 C 15.62647914886475 53.68291854858398 18.56875801086426 55.78263854980469 21.8006649017334 57.25997161865234 C 25.17202568054199 58.8010368347168 28.70155906677246 59.58242416381836 32.29119873046875 59.58242416381836 M 32.29119873046875 64.58242034912109 C 14.45726585388184 64.58242034912109 -1.26953125345608e-06 48.43682479858398 -1.26953125345608e-06 32.29121017456055 C -1.26953125345608e-06 16.14561080932617 14.45726585388184 -3.15877286993782e-06 32.29119873046875 -3.15877286993782e-06 C 50.1251335144043 -3.15877286993782e-06 64.5823974609375 14.4572639465332 64.5823974609375 32.29121017456055 C 64.5823974609375 40.99422454833984 63.93057250976562 46.29431533813477 55.85777282714844 54.36711502075195 C 47.78497314453125 62.43991851806641 41.422119140625 64.58242034912109 32.29119873046875 64.58242034912109 Z" stroke="none" fill="#190e3c"/>
      </g>
    </g>
  </g>
</svg>
