<svg xmlns="http://www.w3.org/2000/svg" width="398.988" height="152.668" viewBox="0 0 398.988 152.668">
  <g id="Group_182" data-name="Group 182" transform="translate(-1043.827 -3324.119)">
    <g id="truck" transform="translate(1046.328 3325.619)">
      <g id="Path_22" data-name="Path 22" transform="translate(197.069 24.596)" fill="#fff">
        <path d="M 13.80151271820068 23.69566345214844 C 7.476372241973877 23.69566345214844 2.330492258071899 18.94149398803711 2.330492258071899 13.09783363342285 C 2.330492258071899 11.57278347015381 2.356902360916138 10.41726398468018 2.698642253875732 9.433633804321289 C 3.055812358856201 8.405623435974121 3.818982362747192 7.381043434143066 5.173152446746826 6.111493587493896 C 6.68486213684082 4.694263458251953 8.020282745361328 3.780403614044189 9.375802040100098 3.235513687133789 C 10.64121246337891 2.726843595504761 12.00615215301514 2.500003576278687 13.80151271820068 2.500003576278687 C 18.93765258789062 2.500003576278687 20.73821258544922 2.884093523025513 23.61984252929688 5.58561372756958 C 25.65533256530762 7.493893623352051 25.4886417388916 9.744463920593262 25.34157180786133 11.7301139831543 C 25.30607223510742 12.20939350128174 25.27254295349121 12.66209316253662 25.27254295349121 13.09783363342285 C 25.27254295349121 18.94149398803711 20.12666320800781 23.69566345214844 13.80151271820068 23.69566345214844 Z" stroke="none"/>
        <path d="M 13.80151271820068 5.000003814697266 C 11.23533248901367 5.000003814697266 9.545513153076172 5.439233779907227 6.883003234863281 7.935342788696289 C 5.374412536621094 9.349643707275391 5.13789176940918 10.03040313720703 5.060173034667969 10.25411319732666 C 4.864862442016602 10.81626319885254 4.83049201965332 11.61899375915527 4.83049201965332 13.09783363342285 C 4.83049201965332 17.5629940032959 8.85487174987793 21.19566345214844 13.80151271820068 21.19566345214844 C 18.74815368652344 21.19566345214844 22.77253341674805 17.5629940032959 22.77253341674805 13.09783363342285 C 22.77253341674805 12.56962394714355 22.81109237670898 12.04896354675293 22.84839248657227 11.54543399810791 C 23.00864219665527 9.381834030151367 22.96864318847656 8.401952743530273 21.90998268127441 7.409454345703125 C 20.4505729675293 6.041254043579102 19.59186172485352 5.653533935546875 18.88130187988281 5.4383544921875 C 17.6799430847168 5.074542999267578 15.9817419052124 5.000003814697266 13.80151271820068 5.000003814697266 M 13.80151271820068 3.814697265625e-06 C 19.33387184143066 3.814697265625e-06 21.83694267272949 0.4873142242431641 25.32969284057617 3.761774063110352 C 28.82245254516602 7.036233901977539 27.77253150939941 11.05068397521973 27.77253150939941 13.09783363342285 C 27.77253150939941 20.33156394958496 21.51749229431152 26.19566345214844 13.80151271820068 26.19566345214844 C 6.085533142089844 26.19566345214844 -0.1695079803466797 20.33156394958496 -0.1695079803466797 13.09783363342285 C -0.1695079803466797 9.611154556274414 -0.02945709228515625 7.562112808227539 3.463302612304688 4.287652969360352 C 6.956052780151367 1.013193130493164 9.804662704467773 3.814697265625e-06 13.80151271820068 3.814697265625e-06 Z" stroke="none" fill="#190e3c"/>
      </g>
      <g id="Group_28" data-name="Group 28" transform="translate(24.59 0)">
        <g id="Group_27" data-name="Group 27" transform="translate(5.357 8.52)">
          <path id="Path_23" data-name="Path 23" d="M3339.12,473.41s3-12.088-14.833-27.664-18.478-26.608-18.478-26.608" transform="translate(-3305.809 -419.139)" fill="none" stroke="#190e3c" stroke-linecap="round" stroke-linejoin="round" stroke-width="3"/>
          <path id="Path_24" data-name="Path 24" d="M3307.632,447.215s6.919-1.446,9.739-14.722" transform="translate(-3285.693 -419.139)" fill="none" stroke="#190e3c" stroke-linecap="round" stroke-width="3"/>
        </g>
        <path id="Path_25" data-name="Path 25" d="M3269.5,448.845s-4.007-4.969-2.006-9.486,8.729-9.74,8.729-9.74,4.479,8.6,2.8,13.406S3269.5,448.845,3269.5,448.845Z" transform="translate(-3232.933 -421.099)" fill="#fff" stroke="#190e3c" stroke-linecap="round" stroke-linejoin="round" stroke-width="3"/>
        <path id="Path_26" data-name="Path 26" d="M3275.458,446.365s3.451-4.328,1.728-8.262-7.518-8.484-7.518-8.484-3.858,7.49-2.41,11.677S3275.458,446.365,3275.458,446.365Z" transform="translate(-3266.933 -429.619)" fill="#fff" stroke="#190e3c" stroke-linecap="round" stroke-linejoin="round" stroke-width="3"/>
      </g>
      <g id="Group_29" data-name="Group 29" transform="translate(85.299 14.384)">
        <g id="Group_27-2" data-name="Group 27" transform="translate(4.084 8.52)">
          <path id="Path_23-2" data-name="Path 23" d="M3305.88,454.026s-1.112-7.77,5.49-17.783,6.839-17.1,6.839-17.1" transform="translate(-3298.624 -419.139)" fill="none" stroke="#190e3c" stroke-linecap="round" stroke-linejoin="round" stroke-width="3"/>
          <path id="Path_24-2" data-name="Path 24" d="M3317.371,447.215s-6.919-1.446-9.739-14.722" transform="translate(-3307.632 -424.684)" fill="none" stroke="#190e3c" stroke-linecap="round" stroke-width="3"/>
        </g>
        <path id="Path_25-2" data-name="Path 25" d="M3273.381,442.062s2.61-3.216,1.307-6.139-5.686-6.3-5.686-6.3-2.918,5.565-1.823,8.676S3273.381,442.062,3273.381,442.062Z" transform="translate(-3266.933 -419.25)" fill="#fff" stroke="#190e3c" stroke-linecap="round" stroke-linejoin="round" stroke-width="3"/>
        <path id="Path_26-2" data-name="Path 26" d="M3269.143,446.365s-3.451-4.328-1.728-8.262,7.518-8.484,7.518-8.484,3.858,7.49,2.41,11.677S3269.143,446.365,3269.143,446.365Z" transform="translate(-3248.642 -429.619)" fill="#fff" stroke="#190e3c" stroke-linecap="round" stroke-linejoin="round" stroke-width="3"/>
      </g>
      <g id="Group_26" data-name="Group 26" transform="translate(0 9.473)">
        <path id="Subtraction_3" data-name="Subtraction 3" d="M94.792,0h0a50.381,50.381,0,0,1-1.708,5.61,62.645,62.645,0,0,1-6.032,12.343A41.969,41.969,0,0,1,75.337,30.3a32.987,32.987,0,0,1-18.757,5.61c-.457,0-.9-.008-1.367-.024-7.172-.251-13.339-1.989-18.331-5.166a28.852,28.852,0,0,1-9.671-10.291,35.86,35.86,0,0,1-3.775-10.084A29.033,29.033,0,0,1,22.792,5.8L.51,4.259h0v.006C.462,4.7-.613,15.1.51,35.883a40.419,40.419,0,0,0,1.968,11.2,19.33,19.33,0,0,0,4.023,6.9c3.24,3.5,7.458,5.107,11.923,6.811,1.429.545,2.906,1.109,4.368,1.744,2.4,1.04,7.21,1.961,14.308,2.739,5.678.622,12.823,1.155,21.238,1.583,14.244.724,27.537.9,27.669.9l.009.007c.46.358,11.391,8.876,23.387,17.437,7.216,5.15,13.458,9.354,18.553,12.494,6.368,3.925,10.95,6.19,13.619,6.732,6.955,1.413,31.424,3.119,51.379,3.119,7.461,0,13.6-.234,18.253-.7,5.3-.526,8.544-1.341,9.656-2.422,1.321-1.285,2.318-4.287,2.964-8.922a115.5,115.5,0,0,0,.874-14.137c.108-9.67-.5-18.745-.505-18.835.252-.006,29.488-.666,55.64-.666,15.3,0,26.488.224,33.267.666s16.994.666,30.36.666c22.891,0,47.093-.66,47.335-.666l0-.024c.183-1.182,1.81-11.873,2.637-23.143a130.748,130.748,0,0,0,.33-17.314c-.365-5.656-1.365-9.284-2.972-10.783-1.493-1.394-4.152-2.424-7.9-3.063a69.3,69.3,0,0,0-11.34-.788A162.034,162.034,0,0,0,353.7,8.544a28.31,28.31,0,0,1-.762,4.711,35.373,35.373,0,0,1-4.292,10.365,29.908,29.908,0,0,1-10.83,10.365C332.253,37.112,325.4,38.7,317.443,38.7h-.213c-8-.028-14.875-2.08-20.425-6.1a34.352,34.352,0,0,1-10.728-13.3,51.74,51.74,0,0,1-4.15-13.273A45.029,45.029,0,0,1,281.235,0c-.1.011-10.152,1.217-24.065,2.4C244.276,3.492,225.262,4.8,207.9,4.8c-6.475,0-12.365-.181-17.506-.537C155.611,1.846,95.4.018,94.793,0Zm96.495,96.83c-18.032,0-40.969-.593-47.839-3.418-3.244-1.333-10.227-5.139-25.077-15.7C109.551,71.44,101.9,65.579,101.828,65.52c.264-.007,32.259-.844,55.217-.844,13.455,0,21.193.284,23,.844,6.071,1.882,30.359,2.483,30.6,2.489v28.6C210.592,96.608,202.07,96.83,191.287,96.83Z" transform="translate(393.93 107.561) rotate(180)" fill="#fff" stroke="#190e3c" stroke-linecap="round" stroke-linejoin="round" stroke-width="5"/>
        <g id="Path_20" data-name="Path 20" transform="translate(43.841 75.575)" fill="#fff" stroke-linecap="round" stroke-linejoin="round">
          <path d="M 32.29119873046875 62.08242034912109 C 28.268310546875 62.08242034912109 24.36708831787109 61.29508972167969 20.69588851928711 59.7423095703125 C 17.1486759185791 58.24196624755859 13.96242141723633 56.09355545043945 11.22564315795898 53.35677719116211 C 8.488865852355957 50.61999893188477 6.3404541015625 47.43374252319336 4.840109825134277 43.88653182983398 C 3.287332057952881 40.21533203125 2.499998807907104 36.3140983581543 2.499998807907104 32.29121017456055 C 2.499998807907104 27.88303184509277 2.69637656211853 24.75762176513672 3.700132131576538 21.82699966430664 C 4.799543380737305 18.61708831787109 6.894354343414307 15.58111000061035 10.49238777160645 11.98307704925537 C 14.24167633056641 8.233777046203613 17.60127639770508 5.821387767791748 21.06523132324219 4.391121387481689 C 24.2327880859375 3.083243608474731 27.69499778747559 2.499999046325684 32.29119873046875 2.499999046325684 C 36.24200820922852 2.499999046325684 40.12121963500977 3.357521295547485 43.82105255126953 5.048743724822998 C 47.3387336730957 6.656699180603027 50.53655242919922 8.937276840209961 53.32568740844727 11.82714366912842 C 56.02415466308594 14.62306594848633 58.24552154541016 17.94207763671875 59.7496337890625 21.42535400390625 C 61.29754257202148 25.01005554199219 62.0823974609375 28.66585540771484 62.0823974609375 32.29121017456055 C 62.0823974609375 35.91656494140625 61.29754257202148 39.57236480712891 59.7496337890625 43.15706634521484 C 58.24552154541016 46.64035415649414 56.02415466308594 49.95935440063477 53.32568740844727 52.75527572631836 C 50.53655242919922 55.6451416015625 47.3387336730957 57.92572021484375 43.82105255126953 59.53367614746094 C 40.12121963500977 61.22489929199219 36.24200820922852 62.08242034912109 32.29119873046875 62.08242034912109 Z" stroke="none"/>
          <path d="M 32.29119873046875 4.999996185302734 C 28.03790664672852 4.999996185302734 24.86995697021484 5.524875640869141 22.01934432983398 6.701889038085938 C 18.86990356445312 8.002288818359375 15.76885223388672 10.24214172363281 12.26015853881836 13.75083541870117 C 8.945426940917969 17.06557083129883 7.034839630126953 19.80618286132812 6.065250396728516 22.63706207275391 C 5.169757843017578 25.2515983581543 5 28.0471305847168 5 32.29121017456055 C 5 35.97770309448242 5.720878601074219 39.55127716064453 7.142623901367188 42.91265106201172 C 8.516933441162109 46.1618766784668 10.48541259765625 49.08102416992188 12.99341201782227 51.58901214599609 C 15.50139999389648 54.09701156616211 18.4205436706543 56.06549072265625 21.66977310180664 57.43979644775391 C 25.03114700317383 58.86154174804688 28.60470581054688 59.58242416381836 32.29119873046875 59.58242416381836 C 35.88083648681641 59.58242416381836 39.41036987304688 58.8010368347168 42.78171920776367 57.25995635986328 C 46.01364135742188 55.78263854980469 48.95591735839844 53.68291473388672 51.52684020996094 51.01914215087891 C 54.01861190795898 48.43738555908203 56.06834411621094 45.37601089477539 57.45446395874023 42.16598510742188 C 58.8664665222168 38.89604949951172 59.5823974609375 35.57370376586914 59.5823974609375 32.29121017456055 C 59.5823974609375 29.00871658325195 58.8664665222168 25.68637084960938 57.45446395874023 22.41643524169922 C 56.06834411621094 19.2064094543457 54.01861190795898 16.14503860473633 51.52684020996094 13.56327819824219 C 48.95591735839844 10.89950180053711 46.01364135742188 8.799781799316406 42.78171920776367 7.322463989257812 C 39.41036987304688 5.781383514404297 35.88083648681641 4.999996185302734 32.29119873046875 4.999996185302734 M 32.29119873046875 0 C 50.12512969970703 0 64.5823974609375 16.14561080932617 64.5823974609375 32.29121017456055 C 64.5823974609375 48.43680953979492 50.12512969970703 64.58242034912109 32.29119873046875 64.58242034912109 C 14.4572639465332 64.58242034912109 0 50.12515640258789 0 32.29121017456055 C 0 23.58819580078125 0.651824951171875 18.28810501098633 8.724624633789062 10.21530532836914 C 16.79742431640625 2.142501831054688 23.1602783203125 0 32.29119873046875 0 Z" stroke="none" fill="#190e3c"/>
        </g>
        <g id="Path_21" data-name="Path 21" transform="translate(305.246 77.113)" fill="#fff" stroke-linecap="round" stroke-linejoin="round">
          <path d="M 32.29119873046875 62.08242034912109 C 28.34038734436035 62.08242034912109 24.4611759185791 61.22489929199219 20.76134300231934 59.53367614746094 C 17.24366569519043 57.92572021484375 14.04584312438965 55.6451416015625 11.25671005249023 52.75527572631836 C 8.558242797851562 49.95935440063477 6.336876392364502 46.64035415649414 4.832765579223633 43.15706634521484 C 3.284854173660278 39.57236480712891 2.499998807907104 35.91656494140625 2.499998807907104 32.29121017456055 C 2.499998807907104 28.66585540771484 3.284854173660278 25.01005554199219 4.832765579223633 21.42535400390625 C 6.336876392364502 17.94207763671875 8.558242797851562 14.62306594848633 11.25671005249023 11.82714366912842 C 14.04584312438965 8.937276840209961 17.24366569519043 6.656699180603027 20.76134300231934 5.048743724822998 C 24.4611759185791 3.357521295547485 28.34038734436035 2.499999046325684 32.29119873046875 2.499999046325684 C 36.3140869140625 2.499999046325684 40.2153205871582 3.28733229637146 43.88650894165039 4.840110301971436 C 47.43373107910156 6.340454578399658 50.61997604370117 8.488865852355957 53.35676574707031 11.22564315795898 C 56.09354400634766 13.96242141723633 58.241943359375 17.1486759185791 59.74228668212891 20.69588851928711 C 61.29507827758789 24.36708831787109 62.0823974609375 28.2683219909668 62.0823974609375 32.29121017456055 C 62.0823974609375 36.69938659667969 61.88602066040039 39.82481002807617 60.88226699829102 42.75543212890625 C 59.78284454345703 45.9653434753418 57.68803024291992 49.00131988525391 54.09000015258789 52.5993537902832 C 50.3407096862793 56.3486442565918 46.98110961914062 58.76104354858398 43.51716613769531 60.19129943847656 C 40.349609375 61.49917602539062 36.88739776611328 62.08242034912109 32.29119873046875 62.08242034912109 Z" stroke="none"/>
          <path d="M 32.29119873046875 59.58242416381836 C 36.54449081420898 59.58242416381836 39.71244049072266 59.05754470825195 42.56305313110352 57.88053131103516 C 45.71249389648438 56.58013153076172 48.81354522705078 54.34027862548828 52.32223892211914 50.83158493041992 C 55.63697052001953 47.51684951782227 57.54755783081055 44.77623748779297 58.51714706420898 41.94535827636719 C 59.41263961791992 39.3308219909668 59.5823974609375 36.5352897644043 59.5823974609375 32.29121017456055 C 59.5823974609375 28.60471725463867 58.86151885986328 25.03114318847656 57.43977355957031 21.66976928710938 C 56.06546401977539 18.4205436706543 54.09698486328125 15.50139713287354 51.58898544311523 12.99341011047363 C 49.08099746704102 10.4854097366333 46.1618537902832 8.51693058013916 42.91262435913086 7.142623424530029 C 39.55125045776367 5.720876693725586 35.97769165039062 4.999996662139893 32.29119873046875 4.999996662139893 C 28.70155906677246 4.999996662139893 25.17202568054199 5.781383514404297 21.80067825317383 7.322463512420654 C 18.56875801086426 8.799783706665039 15.62647914886475 10.89950370788574 13.0555591583252 13.56327724456787 C 10.56378555297852 16.1450366973877 8.514052391052246 19.2064094543457 7.127932071685791 22.41643714904785 C 5.71593189239502 25.68637084960938 4.999998569488525 29.00871658325195 4.999998569488525 32.29121017456055 C 4.999998569488525 35.57370376586914 5.71593189239502 38.89606475830078 7.127932071685791 42.16599655151367 C 8.514052391052246 45.37602233886719 10.56378555297852 48.43738174438477 13.0555591583252 51.01914215087891 C 15.62647914886475 53.68291854858398 18.56875801086426 55.78263854980469 21.8006649017334 57.25997161865234 C 25.17202568054199 58.8010368347168 28.70155906677246 59.58242416381836 32.29119873046875 59.58242416381836 M 32.29119873046875 64.58242034912109 C 14.45726585388184 64.58242034912109 -1.26953125345608e-06 48.43682479858398 -1.26953125345608e-06 32.29121017456055 C -1.26953125345608e-06 16.14561080932617 14.45726585388184 -3.15877286993782e-06 32.29119873046875 -3.15877286993782e-06 C 50.1251335144043 -3.15877286993782e-06 64.5823974609375 14.4572639465332 64.5823974609375 32.29121017456055 C 64.5823974609375 40.99422454833984 63.93057250976562 46.29431533813477 55.85777282714844 54.36711502075195 C 47.78497314453125 62.43991851806641 41.422119140625 64.58242034912109 32.29119873046875 64.58242034912109 Z" stroke="none" fill="#190e3c"/>
        </g>
      </g>
    </g>
    <g id="logo" transform="translate(918.709 3358.702)">
      <g id="Subtraction_1" data-name="Subtraction 1" transform="translate(0 0)" fill="#fff" stroke-linecap="round" stroke-linejoin="round">
        <path d="M 368.4806518554688 70.22469329833984 L 368.2951049804688 70.22451019287109 C 362.5301513671875 70.22127532958984 357.1335754394531 68.06390380859375 353.1014709472656 64.14982604980469 C 349.0289306640625 60.19650268554688 346.787841796875 54.86397171020508 346.7910461425781 49.13454437255859 C 346.7933959960938 44.89589309692383 348.0327758789062 40.78815460205078 350.3751831054688 37.25542449951172 C 352.717529296875 33.72272109985352 356.0188903808594 30.98222351074219 359.9223022460938 29.33020210266113 C 362.8253784179688 28.10365295410156 365.7073669433594 27.4819221496582 368.4890747070312 27.4819221496582 C 372.3171081542969 27.4819221496582 375.9796752929688 28.64804267883301 379.3750915527344 30.94788360595703 C 380.6128845214844 31.78628349304199 382.471923828125 33.19505310058594 384.2990417480469 35.14517211914062 C 386.04052734375 37.00393295288086 387.3258972167969 38.89867401123047 388.1194152832031 40.77678298950195 C 389.2497253417969 43.45203399658203 389.822265625 46.26950454711914 389.8211669921875 49.15092468261719 C 389.820068359375 51.93322372436523 389.2866516113281 54.65662384033203 388.2356567382812 57.24546432495117 C 387.1846618652344 59.83430480957031 385.6687927246094 62.15886306762695 383.7301330566406 64.15457916259766 C 381.7224426269531 66.22138977050781 379.3479919433594 67.84247589111328 376.6727294921875 68.97279357910156 C 373.9444274902344 70.12791442871094 371.0135498046875 70.22469329833984 368.4806518554688 70.22469329833984 Z M 356.4562683105469 53.45568466186523 L 356.4650573730469 53.45574188232422 L 356.4944152832031 53.45583343505859 C 356.9232482910156 53.45583343505859 357.3502197265625 53.39883804321289 357.7634582519531 53.28644180297852 C 358.1062622070312 53.19085311889648 358.4337158203125 53.04802322387695 358.73681640625 52.86190414428711 C 359.2550048828125 52.54270172119141 359.708740234375 52.08525848388672 360.0837707519531 51.50324630737305 C 360.389404296875 51.02054214477539 360.6284484863281 50.49921035766602 360.7943115234375 49.95359420776367 C 360.9033508300781 49.59645462036133 360.9482421875 49.33722305297852 360.9585571289062 49.25185012817383 C 360.9652404785156 48.97272491455078 361.0228576660156 48.45541763305664 361.1686706542969 47.82955169677734 C 361.25830078125 47.44506454467773 361.3718566894531 47.06277465820312 361.5062255859375 46.69301223754883 C 361.66455078125 46.25476455688477 361.8606567382812 45.82317352294922 362.088134765625 45.41283416748047 C 362.6652221679688 44.37679290771484 363.417236328125 43.548583984375 364.32470703125 42.94860458374023 C 364.8746032714844 42.58700180053711 365.4703979492188 42.31245422363281 366.0986328125 42.13055419921875 L 366.1026306152344 42.12939453125 L 366.1066284179688 42.12826156616211 C 366.7945861816406 41.93320465087891 367.506103515625 41.83429336547852 368.2214660644531 41.83429336547852 L 368.2694091796875 41.83447265625 L 368.3172607421875 41.83430480957031 C 369.0206909179688 41.83430480957031 369.72314453125 41.92392349243164 370.4050598144531 42.10068130493164 L 370.4081420898438 42.10147476196289 L 370.4111938476562 42.1022834777832 C 371.0323791503906 42.26611328125 371.6274108886719 42.51644134521484 372.1796875 42.84634399414062 C 373.1123352050781 43.40723419189453 373.8892517089844 44.18434143066406 374.4926452636719 45.15840148925781 C 374.7367858886719 45.55469131469727 374.947509765625 45.97100448608398 375.1208801269531 46.39893341064453 C 375.2688598632812 46.76281356811523 375.3946533203125 47.14101409912109 375.4940490722656 47.52124404907227 C 375.6748962402344 48.2141227722168 375.7393188476562 48.79783248901367 375.7393188476562 49.11321258544922 C 375.7393188476562 49.2076530456543 375.7614440917969 49.55175399780273 375.8624267578125 50.00381469726562 C 375.9194946289062 50.26047134399414 375.99365234375 50.51315307617188 376.0831298828125 50.75626373291016 C 376.1830749511719 51.02901458740234 376.3065795898438 51.2925910949707 376.4510498046875 51.54182434082031 C 376.7728271484375 52.09310531616211 377.1920166015625 52.52948760986328 377.6947631835938 52.83498764038086 C 378.0043640136719 53.02049255371094 378.33837890625 53.16080093383789 378.6875610351562 53.25202941894531 C 379.1357727050781 53.3663330078125 379.5972595214844 53.42429351806641 380.0591735839844 53.42429351806641 L 380.1022644042969 53.42413330078125 L 380.1119384765625 53.42405319213867 L 380.1216125488281 53.42410278320312 L 380.147216796875 53.42416381835938 C 380.1472778320312 53.42416381835938 380.1473083496094 53.42416381835938 380.1473693847656 53.42416381835938 C 380.5121765136719 53.42416381835938 380.8769226074219 53.38409423828125 381.2314453125 53.30507278442383 C 381.330078125 53.28275680541992 381.4282836914062 53.25603485107422 381.5256042480469 53.22504806518555 C 381.9301452636719 51.90584182739258 382.1336669921875 50.53948211669922 382.1313171386719 49.15410232543945 C 382.1313171386719 45.58189392089844 380.7018127441406 42.26555252075195 377.9973449707031 39.56108474731445 C 375.2616577148438 36.82514190673828 371.8170166015625 35.31842422485352 368.2979125976562 35.31842422485352 C 364.603271484375 35.31842422485352 361.1293640136719 36.7573127746582 358.5162048339844 39.37003326416016 C 355.4930725097656 42.39311218261719 354.1448974609375 45.19708251953125 354.1448974609375 48.46160125732422 C 354.1426391601562 49.79324722290039 354.5796508789062 51.70971298217773 355.0654602050781 53.22104644775391 C 355.17333984375 53.26176071166992 355.2834777832031 53.29688262939453 355.3952941894531 53.32620620727539 C 355.7312927246094 53.41220092773438 356.077392578125 53.45580291748047 356.4240112304688 53.45580291748047 L 356.4474792480469 53.45573425292969 L 356.4562683105469 53.45568466186523 Z M 367.0423278808594 48.69720077514648 C 367.0288391113281 48.99084854125977 367.0203857421875 49.29613876342773 367.0203857421875 49.5999641418457 C 367.0203857421875 49.90505218505859 367.0289306640625 50.211669921875 367.04248046875 50.50642395019531 C 367.3632202148438 50.33814239501953 367.6943969726562 50.15804672241211 368.0107727050781 49.97539138793945 C 368.215087890625 49.8574333190918 368.4141235351562 49.73792266845703 368.6046752929688 49.6201286315918 C 368.2568359375 49.40215301513672 367.893798828125 49.18095779418945 367.5478820800781 48.98123168945312 C 367.3749084472656 48.88135528564453 367.2057189941406 48.78655624389648 367.0423278808594 48.69720077514648 Z" stroke="none"/>
        <path d="M 368.4806518554688 68.72468566894531 C 371.0946960449219 68.72468566894531 373.6805419921875 68.61074066162109 376.0889282226562 67.591064453125 C 386.2728271484375 63.28827285766602 391.0404663085938 51.54447174072266 386.7376708984375 41.36057281494141 C 385.1757202148438 37.66367340087891 381.6122131347656 34.27486419677734 378.5338745117188 32.18980407714844 C 375.38818359375 30.05909538269043 372.0227661132812 28.9819278717041 368.4890747070312 28.9819278717041 C 365.9111022949219 28.9819278717041 363.2433471679688 29.55545043945312 360.5069274902344 30.71158218383789 C 353.1060180664062 33.84383392333984 348.2955322265625 41.09876251220703 348.2910461425781 49.13538360595703 C 348.2848510742188 60.19115447998047 357.2421569824219 68.71829223632812 368.2979125976562 68.72451019287109 C 368.3590087890625 68.72462463378906 368.4195861816406 68.72468566894531 368.4806518554688 68.72468566894531 M 356.4559631347656 54.95571136474609 C 356.4453125 54.95577239990234 356.4346618652344 54.95580291748047 356.4240112304688 54.95580291748047 C 355.9504699707031 54.95580291748047 355.4790954589844 54.89627075195312 355.0203857421875 54.77860260009766 C 354.60986328125 54.67148208618164 354.2150268554688 54.51056289672852 353.8465881347656 54.29982376098633 C 353.2601928710938 52.64676284790039 352.6419067382812 50.21555328369141 352.6448974609375 48.46160125732422 C 352.6448974609375 44.36607360839844 354.5595092773438 41.20537185668945 357.4556274414062 38.30928421020508 C 360.3519897460938 35.41343307495117 364.202392578125 33.81842422485352 368.2979125976562 33.81842422485352 C 372.3934326171875 33.81842422485352 376.1619262695312 35.60408401489258 379.0580139160156 38.50042343139648 C 381.9541015625 41.39651107788086 383.6313171386719 45.0560417175293 383.6313171386719 49.15157318115234 C 383.6343078613281 50.92245101928711 383.3303833007812 52.68039321899414 382.7327880859375 54.34740447998047 C 382.3598937988281 54.53522109985352 381.9653015136719 54.67696380615234 381.5577697753906 54.76914215087891 C 381.0947875976562 54.87234115600586 380.62158203125 54.92416763305664 380.147216796875 54.92416763305664 C 380.1361389160156 54.92416763305664 380.1250305175781 54.92414093017578 380.1139526367188 54.9240837097168 C 380.0956726074219 54.92422485351562 380.0774536132812 54.92429733276367 380.0591735839844 54.92429733276367 C 379.4700317382812 54.92429733276367 378.8831176757812 54.85030364990234 378.3124389648438 54.70437240600586 C 377.8226928710938 54.57683181762695 377.3536376953125 54.37978363037109 376.919677734375 54.11922454833984 C 376.1995239257812 53.68253326416016 375.6051635742188 53.06824111938477 375.1532897949219 52.29403305053711 C 374.9647216796875 51.96870422363281 374.8048095703125 51.62742233276367 374.6754760742188 51.27444458007812 C 374.5621337890625 50.966552734375 374.4697265625 50.65118408203125 374.3984985351562 50.33083343505859 C 374.2809143066406 49.80447387695312 374.2393188476562 49.34587478637695 374.2393188476562 49.11321258544922 C 374.2393188476562 48.94207382202148 374.1976928710938 48.49393463134766 374.0427856445312 47.90056228637695 C 373.9593200683594 47.58121109008789 373.8549499511719 47.26784133911133 373.7306518554688 46.96219253540039 C 373.588134765625 46.61045455932617 373.4165344238281 46.27142333984375 373.2174987792969 45.94833374023438 C 372.740966796875 45.17909240722656 372.1328735351562 44.56854248046875 371.4104919433594 44.13410186767578 C 370.9792785644531 43.87653350830078 370.5141906738281 43.68073272705078 370.0286865234375 43.55269241333008 C 369.4696655273438 43.40778732299805 368.8945922851562 43.33430099487305 368.3172607421875 43.33430099487305 C 368.3010864257812 43.33430099487305 368.2849426269531 43.33435821533203 368.2687683105469 43.33447265625 C 368.2529602050781 43.33435440063477 368.2372436523438 43.33429336547852 368.2214660644531 43.33429336547852 C 367.644775390625 43.33429336547852 367.07080078125 43.41401672363281 366.5158081054688 43.57137298583984 C 366.0322875976562 43.71137237548828 365.5724487304688 43.92336273193359 365.1519775390625 44.19986343383789 C 364.447021484375 44.66594314575195 363.8576354980469 45.3185920715332 363.4000244140625 46.14014434814453 C 363.210693359375 46.48166275024414 363.0487670898438 46.83788299560547 362.916015625 47.20531463623047 C 362.8014221191406 47.52068328857422 362.7057495117188 47.84302139282227 362.6295471191406 48.16985321044922 C 362.4895324707031 48.77094268798828 362.4578857421875 49.20139312744141 362.4578857421875 49.30477142333984 C 362.4578857421875 49.41462326049805 362.402099609375 49.82440185546875 362.2294616699219 50.38987350463867 C 362.0237121582031 51.06669235229492 361.727294921875 51.71237182617188 361.348388671875 52.30997467041016 C 360.8504333496094 53.08444213867188 360.2359008789062 53.70023345947266 359.521728515625 54.14014434814453 C 359.0982055664062 54.40021133422852 358.640625 54.59949111938477 358.1620788574219 54.73251342773438 C 357.6184387207031 54.88085174560547 357.0577087402344 54.95582962036133 356.4944152832031 54.95582962036133 C 356.4816284179688 54.95582962036133 356.4687805175781 54.95579147338867 356.4559631347656 54.95571136474609 M 365.7376098632812 46.38078308105469 C 365.7376098632812 46.38078308105469 366.904052734375 46.87742233276367 368.2979125976562 47.68221282958984 C 369.6917724609375 48.48700332641602 371.3131103515625 49.5999641418457 371.3131103515625 49.5999641418457 C 371.3131103515625 49.5999641418457 370.1546020507812 50.46971130371094 368.7607421875 51.27444458007812 C 367.3668518066406 52.07918167114258 365.7376098632812 52.81889343261719 365.7376098632812 52.81889343261719 C 365.7376098632812 52.81889343261719 365.5203857421875 51.20949172973633 365.5203857421875 49.5999641418457 C 365.5203857421875 47.99043273925781 365.7376098632812 46.38078308105469 365.7376098632812 46.38078308105469 M 368.4806518554688 71.72469329833984 L 368.2925109863281 71.72451019287109 C 365.1976623535156 71.72277069091797 362.1968994140625 71.14089965820312 359.3773498535156 69.99507141113281 C 356.6289978027344 68.878173828125 354.1659545898438 67.27366638183594 352.0566711425781 65.22611999511719 C 347.6903381347656 60.98762130737305 345.28759765625 55.27256393432617 345.2910461425781 49.13370132446289 C 345.2935791015625 44.59957122802734 346.6193237304688 40.20549392700195 349.1250305175781 36.4265022277832 C 351.6306762695312 32.64754104614258 355.1621398925781 29.71601295471191 359.337646484375 27.94883346557617 C 362.4273376464844 26.64344215393066 365.5057373046875 25.9819221496582 368.4890747070312 25.9819221496582 C 372.6224365234375 25.9819221496582 376.5680541992188 27.23486328125 380.2162780761719 29.70595359802246 C 382.0821838378906 30.96977233886719 383.8724670410156 32.49599456787109 385.3936767578125 34.11960220336914 C 387.2565612792969 36.10793304443359 388.6385192871094 38.15132141113281 389.5011291503906 40.1930046081543 C 390.7100219726562 43.05416107177734 391.3223571777344 46.06824111938477 391.3211669921875 49.15150451660156 C 391.3200073242188 52.1279411315918 390.74951171875 55.04098129272461 389.62548828125 57.8096923828125 C 388.50146484375 60.57840347290039 386.8799743652344 63.06478118896484 384.8060913085938 65.19975280761719 C 382.65771484375 67.41133117675781 380.11767578125 69.14565277099609 377.2565307617188 70.35452270507812 C 374.2705383300781 71.61874389648438 371.1608581542969 71.72469329833984 368.4806518554688 71.72469329833984 Z M 356.4563293457031 51.95571136474609 C 356.4624633789062 51.95571136474609 356.4685974121094 51.95573043823242 356.4747314453125 51.95577239990234 L 356.4944152832031 51.95583343505859 C 356.7887573242188 51.95583343505859 357.0817260742188 51.91693878173828 357.3652954101562 51.84024047851562 C 357.5718688964844 51.78216171264648 357.7691650390625 51.69585800170898 357.9518737792969 51.58366394042969 C 358.2748107910156 51.38474655151367 358.5680236816406 51.08510971069336 358.8200988769531 50.69507598876953 C 359.0518188476562 50.32793807983398 359.2331848144531 49.93171691894531 359.3591613769531 49.51731109619141 C 359.4173278808594 49.32673263549805 359.4495544433594 49.17975997924805 359.46337890625 49.10489273071289 C 359.4825134277344 48.7247428894043 359.5536499023438 48.15088653564453 359.707763671875 47.48924255371094 C 359.8106689453125 47.04787063598633 359.9408874511719 46.60917282104492 360.094970703125 46.1846923828125 C 360.2811889648438 45.6694450378418 360.5104064941406 45.16506195068359 360.7762756347656 44.68552398681641 C 360.7772521972656 44.68378448486328 360.7781982421875 44.68204116821289 360.7791748046875 44.68030166625977 C 361.4729309082031 43.434814453125 362.3874816894531 42.43120193481445 363.4974670410156 41.69735336303711 C 363.49951171875 41.69599151611328 363.5015869140625 41.69462203979492 363.503662109375 41.69327163696289 C 364.1760559082031 41.25109481811523 364.9087829589844 40.9134521484375 365.6814575195312 40.68973159790039 C 365.686767578125 40.68819427490234 365.6921081542969 40.68666458129883 365.6974487304688 40.68515396118164 C 366.5185241699219 40.45234298706055 367.3677368164062 40.33429336547852 368.2214660644531 40.33429336547852 C 368.2373962402344 40.33429336547852 368.2532348632812 40.33433532714844 368.2691345214844 40.33441925048828 C 368.28515625 40.3343391418457 368.3012084960938 40.33430480957031 368.3172607421875 40.33430480957031 C 369.1476135253906 40.33430480957031 369.9767150878906 40.44007110595703 370.7814636230469 40.64867401123047 C 370.7855529785156 40.64973449707031 370.7896423339844 40.65080261230469 370.7937316894531 40.65187454223633 C 371.5508117675781 40.85154342651367 372.2759399414062 41.1566047668457 372.9489135742188 41.5585823059082 C 372.9514770507812 41.56012344360352 372.9540405273438 41.56166458129883 372.9566040039062 41.56321334838867 C 374.0917663574219 42.24589157104492 375.0375671386719 43.18971252441406 375.7677917480469 44.36847305297852 C 375.7691040039062 44.37058258056641 375.7704162597656 44.3726921081543 375.7716979980469 44.37480163574219 C 376.0576477050781 44.83894348144531 376.306396484375 45.3304443359375 376.5111083984375 45.83567428588867 C 376.682861328125 46.25802230834961 376.8294372558594 46.69873428344727 376.9452819824219 47.14192199707031 C 377.1307373046875 47.852294921875 377.2375793457031 48.56463241577148 377.2392883300781 49.10015869140625 C 377.2419738769531 49.16469573974609 377.2625427246094 49.39119338989258 377.3263244628906 49.67680358886719 C 377.3692321777344 49.86974334716797 377.4243469238281 50.05761337280273 377.4907836914062 50.23807144165039 C 377.5610046386719 50.42972564697266 377.6464233398438 50.61233139038086 377.7461547851562 50.78505325317383 C 377.9444885253906 51.12383270263672 378.1811828613281 51.37431716918945 378.4695434570312 51.55055999755859 C 378.6545715332031 51.66095352172852 378.8539733886719 51.74471664428711 379.0623474121094 51.79959487915039 C 379.3882446289062 51.88233947753906 379.7235717773438 51.92429351806641 380.0591735839844 51.92429351806641 L 380.0909729003906 51.92417144775391 C 380.0988464355469 51.92411422729492 380.1067199707031 51.92407989501953 380.1145935058594 51.92407989501953 C 380.1198120117188 51.92407989501953 380.125 51.92409515380859 380.1301879882812 51.92412185668945 L 380.147216796875 51.92416381835938 C 380.2057800292969 51.92416381835938 380.2643432617188 51.92269134521484 380.3227844238281 51.91975402832031 C 380.5294189453125 51.01567840576172 380.6329040527344 50.09098434448242 380.6313171386719 49.15664291381836 C 380.6313171386719 49.15495300292969 380.6313171386719 49.15326309204102 380.6313171386719 49.15157318115234 C 380.6313171386719 45.98836135864258 379.3537292480469 43.03879165649414 376.9367065429688 40.62174224853516 C 374.4842834472656 38.16910171508789 371.4163208007812 36.81842422485352 368.2979125976562 36.81842422485352 C 365.0038757324219 36.81842422485352 361.9066467285156 38.10132217407227 359.5767517089844 40.43079376220703 C 358.2359008789062 41.77165222167969 357.2758483886719 43.03353118896484 356.6419372558594 44.28835296630859 C 355.9710388183594 45.61643218994141 355.6448974609375 46.98151397705078 355.6448974609375 48.46160125732422 C 355.6448974609375 48.46330261230469 355.6448974609375 48.46501159667969 355.6448974609375 48.46671295166016 C 355.6434631347656 49.30854797363281 355.8777770996094 50.62503051757812 356.24853515625 51.94997024536133 C 356.3069458007812 51.95385360717773 356.3654479980469 51.95580291748047 356.4240112304688 51.95580291748047 L 356.4390869140625 51.95576477050781 C 356.44482421875 51.95573043823242 356.4505615234375 51.95571136474609 356.4563293457031 51.95571136474609 Z" stroke="none" fill="#190e3c"/>
      </g>
    </g>
  </g>
</svg>
