<svg xmlns="http://www.w3.org/2000/svg" width="70" height="70" viewBox="0 0 70 70">
  <g id="Button_70px" data-name="Button 70px" transform="translate(-0.932 0.014)" fill="rgba(255,255,255,0.75)">
    <path d="M 35.55759048461914 68.48578643798828 C 26.44094848632813 68.48578643798828 18.0284595489502 65.00701141357422 11.86978912353516 58.69029235839844 C 8.891458511352539 55.63553237915039 6.559628963470459 52.05651473999023 4.939078807830811 48.05266571044922 C 3.275288820266724 43.94197463989258 2.431678771972656 39.54899597167969 2.431678771972656 34.99573516845703 C 2.431678771972656 30.56658363342285 3.412278890609741 26.22708320617676 5.346248626708984 22.09777450561523 C 7.161318778991699 18.22232437133789 9.737038612365723 14.67958450317383 13.00184917449951 11.56798362731934 C 16.11696815490723 8.599034309387207 19.81504821777344 6.114074230194092 23.69627952575684 4.381763935089111 C 27.59617805480957 2.64112401008606 31.71658897399902 1.646244049072266 35.612060546875 1.504694104194641 C 35.95750045776367 1.492144107818604 36.30941772460938 1.485774040222168 36.65805053710938 1.485774040222168 C 40.50820922851563 1.485774040222168 44.57270050048828 2.267814159393311 48.41209030151367 3.747354030609131 C 52.25713729858398 5.229063987731934 55.91050720214844 7.423324108123779 58.97724914550781 10.09292411804199 C 62.20896911621094 12.9061336517334 64.75501251220703 16.16690444946289 66.54466247558594 19.78465461730957 C 68.46035003662109 23.65720367431641 69.43167877197266 27.80538368225098 69.43167877197266 32.11396408081055 C 69.43167877197266 41.17277526855469 65.84073638916016 50.34979248046875 59.57960891723633 57.29193496704102 C 56.44311904907227 60.76956558227539 52.82143783569336 63.50888442993164 48.81514739990234 65.43377685546875 C 44.60017776489258 67.45894622802734 40.13969039916992 68.48578643798828 35.55759048461914 68.48578643798828 Z" stroke="none"/>
    <path d="M 36.65805435180664 2.985771179199219 C 36.32743072509766 2.985771179199219 35.99384307861328 2.991806030273438 35.66652679443359 3.003700256347656 C 31.96141815185547 3.138336181640625 28.03358459472656 4.088516235351563 24.30764389038086 5.751514434814453 C 20.58095932006836 7.414844512939453 17.02933883666992 9.801620483398438 14.03672409057617 12.65380859375 C 10.90727996826172 15.63640975952148 8.440406799316406 19.02786636352539 6.704643249511719 22.73398590087891 C 4.864646911621094 26.66266632080078 3.931678771972656 30.78811645507813 3.931678771972656 34.9957275390625 C 3.931678771972656 43.63944244384766 7.132240295410156 51.68245697021484 12.94379806518555 57.64315032958984 C 18.8177375793457 63.66783142089844 26.84880828857422 66.98577117919922 35.55758285522461 66.98577117919922 C 39.91298675537109 66.98577117919922 44.15491485595703 66.00871276855469 48.16553497314453 64.08174133300781 C 51.99507904052734 62.24175262451172 55.46056365966797 59.61932754516602 58.46572494506836 56.28731536865234 C 64.48146820068359 49.61724472045898 67.93167877197266 40.806396484375 67.93167877197266 32.11396408081055 C 67.93167877197266 28.03810501098633 67.01266479492188 24.11370468139648 65.20017242431641 20.44974899291992 C 63.49886703491211 17.01058578491211 61.07382202148438 13.90670394897461 57.99238586425781 11.22430419921875 C 55.05592346191406 8.668113708496094 51.55661010742188 6.566619873046875 47.87272644042969 5.147018432617188 C 44.20365524291992 3.733116149902344 40.32569122314453 2.985771179199219 36.65805435180664 2.985771179199219 M 36.65805816650391 -0.01422882080078125 C 53.10406494140625 -0.01422882080078125 70.93167877197266 13.21174240112305 70.93167877197266 32.11396408081055 C 70.93167877197266 51.43843078613281 55.42121887207031 69.98577117919922 35.55758285522461 69.98577117919922 C 15.69397354125977 69.98577117919922 0.9316787719726563 54.32020950317383 0.9316787719726563 34.9957275390625 C 0.9316787719726563 15.67126846313477 18.8171501159668 0.613983154296875 35.55758285522461 0.00567626953125 C 35.92337417602539 -0.0076141357421875 36.29067611694336 -0.01422882080078125 36.65805816650391 -0.01422882080078125 Z" stroke="none" fill="#de4a3f"/>
  </g>
</svg>
