<svg xmlns="http://www.w3.org/2000/svg" width="44.928" height="55.171" viewBox="0 0 44.928 55.171">
  <g id="bulb" transform="translate(28.506 53.27) rotate(-161)">
    <path id="Union_12" data-name="Union 12" d="M9.446,44.636V41.794h9.615v2.843Zm-.012-5.349V36.444h9.615v2.843Zm4.677-5.464a21.651,21.651,0,0,1-3.984,0c-1.607-.224-2.354-4.249-3.079-7.47S-.743,18.172.064,12.633,4.734-.086,14.111,0c9.84-.088,13.12,6.794,13.966,12.324s-5.792,10.8-6.554,14.024-1.545,7.246-3.232,7.47a14.624,14.624,0,0,1-1.846.1C15.347,33.918,14.343,33.842,14.111,33.823Z" transform="translate(0 0)" fill="#fff" stroke="#000" stroke-linecap="round" stroke-linejoin="round" stroke-width="3"/>
    <path id="Path_351" data-name="Path 351" d="M5.825,18.072a19.532,19.532,0,0,0,0-7.9C4.889,6.345,3.871,2.341,2.871.732S-.677,1.825.17,2.723,2.2,4.244,2.871,3.768C3.106,3.6,9.007,2.061,9.346.732S3.851.1,5.041,1.1,13.7,4.17,14.136,3.314c.643-1.262-1.287-3.538-2.6-2.214S9.21,6.987,8.883,8.61a42.144,42.144,0,0,0-.551,9.463" transform="translate(6.776 15.554)" fill="#fff" stroke="#000" stroke-linecap="round" stroke-linejoin="round" stroke-width="3"/>
  </g>
</svg>
