<svg xmlns="http://www.w3.org/2000/svg" width="54.6" height="63.561" viewBox="0 0 54.6 63.561">
  <g id="Group_138" data-name="Group 138" transform="translate(2.192 1.89)">
    <path id="Path_328" data-name="Path 328" d="M.025,11.036C.3,17.9,6.569,20.967,6.146,23.989s-3.324,25.695-2.3,28.957,2.773,5.9,5.306,2.889.588-26.653.567-30.353,7.548-7.805,7.594-14.446S15.123-.027,8.392,0-.249,4.176.025,11.036Z" transform="matrix(0.951, 0.309, -0.309, 0.951, 33.588, 0)" fill="#fff" stroke="#000" stroke-width="3"/>
    <path id="Path_327" data-name="Path 327" d="M.25,3.45s-1.331,12.406,2.144,15.34,5.468.173,5.044,3.195S4.006,50.3,5.03,53.565,7.8,59.47,10.337,56.455s.021-30.77,0-34.47,4.71-1,6.486-3.195.962-16.871,0-18.646-2.806,13.539-4.76,13.539S10.827,1.438,9.008.143,7.283,14.21,5.556,13.682,4.155.553,2.395.143.25,3.45.25,3.45Z" transform="translate(0 13.132) rotate(-39)" fill="#fff" stroke="#000" stroke-width="3"/>
  </g>
</svg>
