<svg xmlns="http://www.w3.org/2000/svg" width="37.439" height="67.031" viewBox="0 0 37.439 67.031">
  <g id="drink" transform="translate(1.718 1.686)">
    <path id="Path_331" data-name="Path 331" d="M0,.89C2.776.028,25.128-.582,28.533.89S27.843,41,22.482,40.669s-14.6,2.984-17.416,0S0,.89,0,.89Z" transform="matrix(0.995, -0.105, 0.105, 0.995, 0, 22.148)" fill="#fff" stroke="#000" stroke-width="3"/>
    <path id="Path_332" data-name="Path 332" d="M4.56,43.787s.7-23.17,2.133-28.269S12.819,3.757,12.819,3.757,10.331-.8,9.215.125,1.157,13.811,1.076,16.813,0,42.974,0,42.974Z" transform="matrix(0.995, -0.105, 0.105, 0.995, 13.729, 1.34)" fill="#fff" stroke="#000" stroke-linejoin="round" stroke-width="3"/>
    <path id="Path_333" data-name="Path 333" d="M0,3.585S2.534.681,5.544.066,10.858,3.348,15.9,3.585,26.571.066,26.571.066" transform="matrix(0.995, -0.105, 0.105, 0.995, 4.832, 42.978)" fill="#fff" stroke="#000" stroke-width="3"/>
  </g>
</svg>
