<svg xmlns="http://www.w3.org/2000/svg" width="136.976" height="101.211" viewBox="0 0 136.976 101.211">
  <g id="email" transform="translate(11.751) rotate(8)">
    <g id="Path_50" data-name="Path 50" transform="translate(0)" fill="#fff">
      <path d="M 3.067359924316406 81.93161773681641 C 2.880163431167603 81.74740600585938 2.512783288955688 81.12519073486328 2.500321865081787 80.11870574951172 C 2.550644397735596 79.04985046386719 3.150160551071167 65.92465209960938 3.150160551071167 48.08342361450195 C 3.150160551071167 29.92488288879395 2.529294729232788 6.40253734588623 2.500101327896118 5.3080735206604 C 2.507295370101929 4.276772975921631 2.887046098709106 3.643877267837524 3.073586940765381 3.466215372085571 C 3.804976940155029 3.429723739624023 22.79293251037598 2.500005960464478 52.08757781982422 2.500005960464478 C 81.20333099365234 2.500005960464478 121.2339706420898 3.417924165725708 123.384033203125 3.467769861221313 C 123.572021484375 3.64838719367981 123.9522476196289 4.285608291625977 123.9559707641602 5.322435855865479 C 123.9450836181641 6.117478847503662 123.6309204101563 29.27764320373535 123.6309204101563 47.53525924682617 C 123.6309204101563 65.59242248535156 123.9382629394531 79.31912231445313 123.9559173583984 80.09149169921875 C 123.9498748779297 81.10887145996094 123.5812606811523 81.73936462402344 123.391487121582 81.92877197265625 C 121.3246383666992 81.874755859375 104.0885162353516 81.44809722900391 75.99436187744141 81.44809722900391 C 47.12958145141602 81.44809722900391 6.059150218963623 81.89836120605469 3.067359924316406 81.93161773681641 Z" stroke="none"/>
      <path d="M 52.08757781982422 4.999992370605469 C 27.69325256347656 4.999992370605469 10.46498870849609 5.645858764648438 5.015907287597656 5.880317687988281 C 5.120468139648438 9.931777954101563 5.650161743164063 31.29266357421875 5.650161743164063 48.08342742919922 C 5.650161743164063 63.93937683105469 5.177581787109375 76.094970703125 5.034538269042969 79.41009521484375 C 14.13831329345703 79.31281280517578 50.00770568847656 78.94809722900391 75.99435424804688 78.94809722900391 C 99.79212188720703 78.94809722900391 115.8165512084961 79.254150390625 121.4398880004883 79.38112640380859 C 121.3721389770508 76.15538787841797 121.1309127807617 63.541259765625 121.1309127807617 47.53526306152344 C 121.1309127807617 30.76614761352539 121.3956604003906 9.868484497070313 121.4476928710938 5.924652099609375 C 112.8820571899414 5.734451293945313 78.11325836181641 4.999992370605469 52.08757781982422 4.999992370605469 M 52.08757781982422 -7.62939453125e-06 C 82.23872375488281 -7.62939453125e-06 123.5302658081055 0.970489501953125 123.5302658081055 0.970489501953125 C 125.1460800170898 0.970489501953125 126.4559936523438 2.92578125 126.4559936523438 5.337738037109375 C 126.4559936523438 5.337738037109375 126.1309127807617 28.85317993164063 126.1309127807617 47.53526306152344 C 126.1309127807617 66.21736145019531 126.4559936523438 80.06611633300781 126.4559936523438 80.06611633300781 C 126.4559936523438 82.47807312011719 125.1460800170898 84.43336486816406 123.5302658081055 84.43336486816406 C 123.5302658081055 84.43336486816406 106.1454772949219 83.94809722900391 75.99435424804688 83.94809722900391 C 45.84320831298828 83.94809722900391 2.925704956054688 84.43336486816406 2.925704956054688 84.43336486816406 C 1.309890747070313 84.43336486816406 0 82.47807312011719 0 80.06611633300781 C 0 80.06611633300781 0.6501617431640625 66.76551055908203 0.6501617431640625 48.08342742919922 C 0.6501617431640625 29.40132522583008 0 5.337738037109375 0 5.337738037109375 C 0 2.92578125 1.309890747070313 0.970489501953125 2.925727844238281 0.970489501953125 C 2.925727844238281 0.970489501953125 21.93645477294922 -7.62939453125e-06 52.08757781982422 -7.62939453125e-06 Z" stroke="none"/>
    </g>
    <path id="Path_51" data-name="Path 51" d="M0,1.932S24.318,21.925,35.5,32.667,56.7,54.391,56.7,54.391,112.607,2.586,118.588,0" transform="translate(2.578 6.509)" fill="none" stroke="#000" stroke-linecap="round" stroke-linejoin="round" stroke-width="5"/>
  </g>
</svg>
