<svg xmlns="http://www.w3.org/2000/svg" width="133.905" height="132.856" viewBox="0 0 133.905 132.856">
  <g id="logo-line-drawing" transform="translate(2 2.075)">
    <path id="Subtraction_1" data-name="Subtraction 1" d="M413.121,157.763c-35.825-.02-64.85-27.651-64.83-63.476a64.867,64.867,0,0,1,39.584-59.7c21.021-8.881,40.784-7.151,58.414,4.79,9.975,6.756,21.522,17.737,26.583,29.717a64.866,64.866,0,0,1-34.506,85C430.38,157.471,421.793,157.779,413.121,157.763Zm0-113.109a49.365,49.365,0,0,0-35.133,14.552C368.6,68.59,362.4,78.832,362.4,92.1c-.01,5.683,1.994,13.561,3.894,18.918a15.587,15.587,0,0,0,3.8,1.551,18.3,18.3,0,0,0,4.652.574,20.529,20.529,0,0,0,5.528-.723,17.242,17.242,0,0,0,4.406-1.92,18.774,18.774,0,0,0,5.919-5.93,25.437,25.437,0,0,0,2.855-6.222,15.874,15.874,0,0,0,.74-3.516,19.782,19.782,0,0,1,.556-3.678,27.345,27.345,0,0,1,.928-3.125,23.817,23.817,0,0,1,1.568-3.452,17.742,17.742,0,0,1,5.677-6.287,16.291,16.291,0,0,1,4.419-2.037,20.26,20.26,0,0,1,5.68-.768,22.1,22.1,0,0,1,5.7.707,17.034,17.034,0,0,1,10.333,7.763,22.046,22.046,0,0,1,1.663,3.285,24.54,24.54,0,0,1,1.011,3.041,17.762,17.762,0,0,1,.637,3.929,20.069,20.069,0,0,0,.516,3.946,23.821,23.821,0,0,0,.9,3.058,20.975,20.975,0,0,0,1.548,3.3,16.555,16.555,0,0,0,5.724,5.914,17.175,17.175,0,0,0,4.513,1.9,22.846,22.846,0,0,0,5.838.712,21.01,21.01,0,0,0,4.678-.5,16.61,16.61,0,0,0,3.808-1.367,49.645,49.645,0,0,0,2.912-16.836c0-13.271-5.435-25.129-14.819-34.514s-21.6-15.171-34.867-15.171Zm-8.3,40.707a89.392,89.392,0,0,0-.7,10.431,89.369,89.369,0,0,0,.7,10.431s5.279-2.4,9.8-5a92.7,92.7,0,0,0,8.271-5.426s-5.254-3.606-9.77-6.214A85.61,85.61,0,0,0,404.824,85.361Z" transform="translate(-348.291 -28.982)" fill="#fff1ad" stroke="#000" stroke-linecap="round" stroke-linejoin="round" stroke-width="4"/>
  </g>
</svg>
