<svg xmlns="http://www.w3.org/2000/svg" width="57.968" height="108.635" viewBox="0 0 57.968 108.635">
  <g id="plant" transform="translate(-2.163 1.673)">
    <path id="Union_11" data-name="Union 11" d="M9.515,76.329c-2.078-.237-1.334-2.9-1.66-4.085-.259-.939,3.608-16.513,5.712-24.895a4.754,4.754,0,0,1-1.3-3.65c-.071-.651-.885-9.066-1.357-10.192S5.443,22.737,3.925,20.4-.6,10.675.106,10.747s6.333,12.5,7.855,14.5,5.8,7.865,6.224,9.63c.177.735.758,3.05,1.337,5.514a120.477,120.477,0,0,1,7.408-13.878C24.795,23.487,33.653-.811,34.183.021S29.68,15.8,27.69,19.7,18.382,41.546,17.606,43.8c-.15.435-.415,1.56-.747,3.1.054.47.049.754-.036.778a.374.374,0,0,0-.147.081c-.511,2.424-1.145,5.617-1.758,8.771,1.667-1.835,3.249-3.524,3.751-4.07,1.229-1.336,7.813-4.392,10.117-5.408S42.042,37.9,42.7,38.176s-5.567,5.291-8.027,6.6S23.162,52.094,22.2,52.851s-5.754,7.723-6.133,8.258a5.089,5.089,0,0,1-2.5,2.446c-.486,2.556-.84,4.445-.924,4.884-.3,1.569-1.026,7.9-3.02,7.9A.962.962,0,0,1,9.515,76.329Z" transform="translate(9.026 3.661)" fill="#fff" stroke="#000" stroke-linecap="round" stroke-linejoin="round" stroke-width="3"/>
    <path id="Path_343" data-name="Path 343" d="M6.221,20.188s2.518-5.217,1.261-9.961S2,0,2,0-.819,9.03.237,14.077A8.193,8.193,0,0,0,6.221,20.188Z" transform="translate(5.563 6.266) rotate(-7)" fill="#fff" stroke="#000" stroke-linecap="round" stroke-linejoin="round" stroke-width="3"/>
    <path id="Path_344" data-name="Path 344" d="M11.58,0s4.687,6.394,2.347,12.207S3.715,24.741,3.715,24.741-1.525,13.675.441,7.49,11.58,0,11.58,0Z" transform="translate(46.25 26.334) rotate(-173)" fill="#fff" stroke="#000" stroke-linecap="round" stroke-linejoin="round" stroke-width="3"/>
    <path id="Path_345" data-name="Path 345" d="M7.085,0S9.953,4.474,8.521,8.542s-6.248,8.771-6.248,8.771S-.933,9.569.27,5.241,7.085,0,7.085,0Z" transform="matrix(-0.788, -0.616, 0.616, -0.788, 47.324, 52.069)" fill="#fff" stroke="#000" stroke-linecap="round" stroke-linejoin="round" stroke-width="3"/>
    <g id="Group_149" data-name="Group 149" transform="matrix(0.995, 0.105, -0.105, 0.995, 3.705, 68.132)">
      <g id="Path_321" data-name="Path 321" transform="translate(2.175 3.222)" fill="#fff" stroke-linecap="round">
        <path d="M 13.2175178527832 30.72249603271484 C 9.09272289276123 30.72249603271484 6.565275192260742 29.93134689331055 5.546826839447021 29.52899932861328 C 4.957612037658691 27.49057769775391 3.151907205581665 20.96945571899414 2.287697792053223 14.76233577728271 C 1.527868032455444 9.304919242858887 1.478403687477112 3.97584867477417 1.506971955299377 1.499996066093445 L 30.20357131958008 1.499996066093445 C 29.47967910766602 4.918656826019287 27.96006202697754 12.43109512329102 27.28725814819336 18.27028656005859 C 26.67607879638672 23.57456588745117 26.77714347839355 27.40507316589355 26.91078186035156 29.3580265045166 C 24.1330451965332 29.79545402526855 17.71509170532227 30.72249603271484 13.2175178527832 30.72249603271484 Z" stroke="none"/>
        <path d="M 3.001718521118164 2.999996185302734 C 3.014925003051758 5.742666244506836 3.153635025024414 10.10430908203125 3.773368835449219 14.55548667907715 C 4.538625717163086 20.05188369750977 6.058225631713867 25.81301116943359 6.777292251586914 28.37330627441406 C 7.935558319091797 28.73830795288086 10.06607055664063 29.22249603271484 13.21751976013184 29.22249603271484 C 17.00525283813477 29.22249603271484 22.22253799438477 28.54386520385742 25.34517860412598 28.08016204833984 C 25.26534271240234 25.85740089416504 25.29556083679199 22.45140075683594 25.79710960388184 18.09858703613281 C 26.37457275390625 13.0868968963623 27.56655883789063 6.868671417236328 28.35912322998047 2.999996185302734 L 3.001718521118164 2.999996185302734 M 0.03997039794921875 -3.814697265625e-06 L 32.06230926513672 -3.814697265625e-06 C 32.06230926513672 -3.814697265625e-06 29.65921020507813 10.78884696960449 28.77738952636719 18.44198608398438 C 27.89556884765625 26.09511566162109 28.5350399017334 30.61255645751953 28.5350399017334 30.61255645751953 C 28.5350399017334 30.61255645751953 19.2757396697998 32.22249603271484 13.21751976013184 32.22249603271484 C 7.159278869628906 32.22249603271484 4.302129745483398 30.61255645751953 4.302129745483398 30.61255645751953 C 4.302129745483398 30.61255645751953 1.867568969726563 22.62231636047363 0.8020305633544922 14.96918678283691 C -0.2635097503662109 7.316045761108398 0.03997039794921875 -3.814697265625e-06 0.03997039794921875 -3.814697265625e-06 Z" stroke="none"/>
      </g>
      <g id="Path_322" data-name="Path 322" transform="translate(0 0)" fill="#fff" stroke-linecap="round">
        <path d="M 20.79522132873535 9.167463302612305 C 13.64003658294678 9.167463302612305 5.137680053710938 8.409022331237793 1.985027074813843 8.101529121398926 L 1.589837908744812 1.790501117706299 C 3.492770671844482 1.673287391662598 7.313799858093262 1.500003099441528 13.27108097076416 1.500003099441528 C 20.57846260070801 1.500003099441528 31.23516654968262 1.760299324989319 35.12311553955078 1.862099647521973 L 34.98155975341797 8.515410423278809 C 32.65500259399414 8.740816116333008 27.38080787658691 9.167463302612305 20.79522132873535 9.167463302612305 Z" stroke="none"/>
        <path d="M 13.27108192443848 3.000002861022949 C 8.634494781494141 3.000002861022949 5.306211471557617 3.10546350479126 3.181446075439453 3.206498146057129 L 3.402030944824219 6.729161262512207 C 7.169456481933594 7.076189994812012 14.51101493835449 7.667463302612305 20.79522132873535 7.667463302612305 C 26.27299880981445 7.667463302612305 30.83298110961914 7.369439601898193 33.51042175292969 7.142566680908203 L 33.59168243408203 3.323366165161133 C 28.92913436889648 3.206510066986084 19.76954650878906 3.000002861022949 13.27108192443848 3.000002861022949 M 13.27108192443848 2.86102294921875e-06 C 22.43470001220703 2.86102294921875e-06 36.65450286865234 0.4027929306030273 36.65450286865234 0.4027929306030273 L 36.45310211181641 9.868522644042969 C 36.45310211181641 9.868522644042969 29.90849113464355 10.6674633026123 20.79522132873535 10.6674633026123 C 11.68194198608398 10.6674633026123 0.5675125122070313 9.465723037719727 0.5675125122070313 9.465723037719727 L 0 0.4027929306030273 C 0 0.4027929306030273 4.107452392578125 2.86102294921875e-06 13.27108192443848 2.86102294921875e-06 Z" stroke="none"/>
      </g>
    </g>
  </g>
</svg>
