<svg xmlns="http://www.w3.org/2000/svg" width="169.357" height="146.562" viewBox="0 0 169.357 146.562">
  <g id="telephone" transform="matrix(0.985, -0.174, 0.174, 0.985, 2.989, 30.098)">
    <path id="Path_53" data-name="Path 53" d="M21.017,0s1.426,11.958,0,14.53S8.674,14.4,7.248,16.537,1.572,41.268.677,61.721-.991,96.615,3.667,98.349s92.806,5.4,97.077,0-3.572-75.193-5.385-79.606-13.129-5.515-14.874-7.991S80.485,0,80.485,0Z" transform="translate(27.326 18.964)" fill="#fff" stroke="#000" stroke-linecap="round" stroke-linejoin="round" stroke-width="5"/>
    <path id="Path_52" data-name="Path 52" d="M79.2,0C40.917,0,4.427,1.217,1.015,17.917S2.695,54.168,17.826,52.945,42.64,44.195,44.8,35.125s-6.378-15.206-6.378-15.206,21.506-2.225,34.188-2,44.947,2,44.947,2-7.208,7.251-5.363,11.9S122.711,52.559,137.2,50.565s23.774-21.42,16.952-32.649S117.486,0,79.2,0Z" fill="#fff" stroke="#000" stroke-linecap="round" stroke-linejoin="round" stroke-width="5"/>
    <g id="Path_54" data-name="Path 54" transform="translate(49.133 36.443)" fill="#fff">
      <path d="M 32.12067413330078 59.87288284301758 C 31.83152389526367 59.87288284301758 31.53677368164063 59.86907577514648 31.24461364746094 59.86156463623047 C 26.61586380004883 59.7425537109375 22.39592361450195 58.90766525268555 18.70202445983887 57.38006591796875 C 15.23519420623779 55.94637298583984 12.23968410491943 53.90665435791016 9.798724174499512 51.31758499145508 C 7.432844638824463 48.80815505981445 5.605794429779053 45.8050537109375 4.368314266204834 42.39171600341797 C 3.128594398498535 38.97220230102539 2.500004529953003 35.20016479492188 2.500004529953003 31.18036460876465 C 2.500004529953003 27.37788391113281 3.325404405593872 23.6441535949707 4.95328426361084 20.08289337158203 C 6.501434326171875 16.69605445861816 8.697334289550781 13.61703395843506 11.48000431060791 10.93135452270508 C 14.1723747253418 8.332834243774414 17.36834526062012 6.193784236907959 20.72240447998047 4.745474338531494 C 24.17295455932617 3.255494117736816 27.69152450561523 2.500004053115845 31.18036460876465 2.500004053115845 C 38.31241607666016 2.500004053115845 45.50934600830078 5.254734039306641 50.92578506469727 10.0578441619873 C 53.68545532226563 12.50503444671631 55.85397338867188 15.35450458526611 57.3711051940918 18.52710342407227 C 58.98010635375977 21.8918342590332 59.79593276977539 25.51300430297852 59.79593276977539 29.29002380371094 C 59.79593276977539 33.29992294311523 59.18380355834961 37.18078231811523 57.97654342651367 40.82480239868164 C 56.75015258789063 44.52656555175781 54.96279525756836 47.81414413452148 52.66410446166992 50.59622573852539 C 47.64974594116211 56.66506576538086 40.54593276977539 59.87288284301758 32.12067413330078 59.87288284301758 Z" stroke="none"/>
      <path d="M 31.18036460876465 4.999992370605469 C 28.03437805175781 4.999992370605469 24.84926605224609 5.686557769775391 21.71347808837891 7.040630340576172 C 18.63267517089844 8.370944976806641 15.69435119628906 10.3383674621582 13.21614074707031 12.73019409179688 C 10.65955352783203 15.19766998291016 8.644515991210938 18.02115631103516 7.227001190185547 21.12223052978516 C 5.749275207519531 24.35500717163086 5.000003814697266 27.73905563354492 5.000003814697266 31.18036842346191 C 5.000003814697266 34.90874481201172 5.578227996826172 38.39409637451172 6.718612670898438 41.53961944580078 C 7.839088439941406 44.63020706176758 9.487388610839844 47.34297943115234 11.61775207519531 49.60260772705078 C 13.8145637512207 51.93270874023438 16.51948928833008 53.77214431762695 19.65741348266602 55.06982040405273 C 23.06727600097656 56.47994232177734 26.98738861083984 57.25128173828125 31.30893898010254 57.36238098144531 C 31.57970237731934 57.36934280395508 31.85280227661133 57.37288284301758 32.12065124511719 57.37288284301758 C 36.11278915405273 57.37288284301758 39.77351379394531 56.59770584106445 43.00111389160156 55.06890869140625 C 45.97142791748047 53.66195678710938 48.57410430908203 51.62138366699219 50.73685073852539 49.00384521484375 C 52.83745193481445 46.46149444580078 54.47478866577148 43.44514465332031 55.60337829589844 40.03858184814453 C 56.72647857666016 36.64862060546875 57.29592895507813 33.03227996826172 57.29592895507813 29.29001998901367 C 57.29592895507813 25.88923263549805 56.5623893737793 22.63093185424805 55.11570358276367 19.60561752319336 C 53.74338912963867 16.73583221435547 51.77562713623047 14.1528205871582 49.26708984375 11.9283332824707 C 44.30178833007813 7.5252685546875 37.70944213867188 4.999992370605469 31.18036460876465 4.999992370605469 M 31.18036460876465 -7.62939453125e-06 C 46.77055358886719 -7.62939453125e-06 62.29592514038086 12.069580078125 62.29592514038086 29.29001998901367 C 62.29592514038086 46.24245071411133 51.80880737304688 62.37287521362305 32.12065124511719 62.37287521362305 C 31.80938339233398 62.37287521362305 31.49622917175293 62.36885070800781 31.18036460876465 62.36073303222656 C 10.88572692871094 61.83897018432617 3.814697265625e-06 48.40080642700195 3.814697265625e-06 31.18036842346191 C 3.814697265625e-06 13.95993041992188 15.59017562866211 -7.62939453125e-06 31.18036460876465 -7.62939453125e-06 Z" stroke="none"/>
    </g>
    <g id="Group_6" data-name="Group 6" transform="translate(64.579 51.815)">
      <g id="Subtraction_1" data-name="Subtraction 1" fill="#fff" stroke-linecap="round" stroke-linejoin="round">
        <path d="M 15.88989734649658 32.77997589111328 L 15.74381732940674 32.77983474731445 C 11.12336730957031 32.77722549438477 6.796997547149658 31.04720497131348 3.563597440719604 27.90845489501953 C 0.2957073748111725 24.73622512817383 -1.502582669258118 20.45774459838867 -1.50000262260437 15.86115455627441 C -1.49810266494751 12.46214485168457 -0.5042526125907898 9.168134689331055 1.374107360839844 6.335234642028809 C 3.2524573802948 3.502334594726563 5.899807453155518 1.30472457408905 9.029967308044434 -0.02003536932170391 C 11.35460758209229 -1.002185344696045 13.66475772857666 -1.499995350837708 15.8970775604248 -1.499995350837708 C 18.9749870300293 -1.499995350837708 21.91792678833008 -0.5637053847312927 24.6441478729248 1.282874584197998 C 25.63186645507813 1.951884627342224 27.1153564453125 3.076074600219727 28.57355690002441 4.632454395294189 C 29.9700870513916 6.12300443649292 31.0023078918457 7.645944595336914 31.64154815673828 9.158954620361328 C 32.54789733886719 11.30411434173584 33.00700759887695 13.56350421905518 33.00610733032227 15.87433433532715 C 33.0052375793457 18.10551452636719 32.57748794555664 20.28938484191895 31.7347469329834 22.36525535583496 C 30.89199829101563 24.44113540649414 29.67642784118652 26.30515480041504 28.12178802490234 27.90556526184082 C 26.51165771484375 29.56309509277344 24.60755729675293 30.86309432983398 22.46238708496094 31.76945495605469 C 20.26020812988281 32.70185470581055 17.91507720947266 32.77997589111328 15.88989734649658 32.77997589111328 Z M 6.426567554473877 18.94291496276855 L 6.435327529907227 18.94297409057617 L 6.456457138061523 18.94303512573242 C 6.765616893768311 18.94303512573242 7.073325634002686 18.90199279785156 7.371132850646973 18.82101440429688 C 7.61167573928833 18.7537784576416 7.841486930847168 18.6534538269043 8.054257392883301 18.52280426025391 C 8.420780181884766 18.29703330993652 8.743936538696289 17.97029495239258 9.013073921203613 17.55267906188965 C 9.23759937286377 17.19755554199219 9.413263320922852 16.81415939331055 9.53521728515625 16.41303443908691 C 9.615471839904785 16.15013313293457 9.643939971923828 15.97796249389648 9.651395797729492 15.92611598968506 C 9.659458160400391 15.68453788757324 9.707843780517578 15.26202964782715 9.82432746887207 14.76184463500977 C 9.897857666015625 14.44653415679932 9.990887641906738 14.1333646774292 10.10094738006592 13.8305549621582 C 10.23111724853516 13.47026443481445 10.39254760742188 13.11500453948975 10.57979774475098 12.77724456787109 C 11.05941772460938 11.91611480712891 11.68591690063477 11.22689437866211 12.44331741333008 10.72616481781006 C 12.90353775024414 10.42352485656738 13.40163707733154 10.19400501251221 13.92686748504639 10.04194450378418 L 13.93083763122559 10.04079437255859 L 13.93482780456543 10.03966426849365 C 14.50461769104004 9.878104209899902 15.09393692016602 9.796184539794922 15.68639755249023 9.796184539794922 L 15.72403240203857 9.796323776245117 L 15.76183700561523 9.796184539794922 C 16.34250831604004 9.796184539794922 16.92232704162598 9.87015438079834 17.48517799377441 10.01604461669922 L 17.4882869720459 10.01684474945068 L 17.49138832092285 10.01766490936279 C 18.00926780700684 10.15425491333008 18.50527763366699 10.36294460296631 18.96561813354492 10.63792419433594 C 19.74439811706543 11.1062650680542 20.39182662963867 11.75340461730957 20.89376831054688 12.56367492675781 C 21.0955982208252 12.89126491546631 21.26954650878906 13.23492431640625 21.4127082824707 13.58822441101074 C 21.53439712524414 13.88747501373291 21.63782691955566 14.1985445022583 21.71945762634277 14.51110458374023 C 21.8468074798584 14.99864482879639 21.92284774780273 15.49715423583984 21.92284774780273 15.8445348739624 C 21.92284774780273 15.8935546875 21.93798828125 16.14437484741211 22.01203727722168 16.47577476501465 C 22.05397796630859 16.6643238067627 22.10829734802246 16.84943389892578 22.17379760742188 17.02738380432129 C 22.24619674682617 17.22508430480957 22.33544731140137 17.41552543640137 22.43995666503906 17.5958251953125 C 22.66558647155762 17.98241806030273 22.95841598510742 18.28812217712402 23.30811882019043 18.50066184997559 C 23.52493286132813 18.63042449951172 23.75879287719727 18.7286491394043 24.00337600708008 18.79266929626465 C 24.33018493652344 18.87597274780273 24.66663932800293 18.91821479797363 25.00347709655762 18.91821479797363 L 25.03489685058594 18.91809463500977 L 25.04457664489746 18.91801452636719 L 25.05425643920898 18.91806411743164 L 25.07286643981934 18.91811370849609 C 25.33662796020508 18.91811370849609 25.60030746459961 18.8891544342041 25.8565673828125 18.8320255279541 C 25.87156867980957 18.82863235473633 25.88658142089844 18.82508277893066 25.90156555175781 18.82139205932617 C 26.17777824401855 17.86517333984375 26.31661605834961 16.87771224975586 26.31490707397461 15.87729454040527 C 26.31490707397461 13.15175437927246 25.2221565246582 10.61968421936035 23.15478706359863 8.552274703979492 C 21.06191825866699 6.459264755249023 18.43097686767578 5.306604862213135 15.74659729003906 5.306604862213135 C 12.923996925354 5.306604862213135 10.27004718780518 6.405884742736816 8.273617744445801 8.401954650878906 C 5.958967208862305 10.71657466888428 4.926717281341553 12.85380458831787 4.926717281341553 15.33167457580566 C 4.925070285797119 16.30239486694336 5.233180999755859 17.69047546386719 5.587575912475586 18.82744216918945 C 5.615899085998535 18.8360481262207 5.644408226013184 18.8441104888916 5.673079967498779 18.85161972045898 C 5.911018371582031 18.91226387023926 6.155942440032959 18.94301414489746 6.401177406311035 18.94301414489746 L 6.417807579040527 18.94296455383301 L 6.426567554473877 18.94291496276855 Z M 15.06163883209229 16.05501365661621 C 15.06089115142822 16.1125373840332 15.06049728393555 16.17012214660645 15.06049728393555 16.22763442993164 C 15.06049728393555 16.2901782989502 15.06095790863037 16.35284996032715 15.06182670593262 16.41529846191406 C 15.16254043579102 16.35965347290039 15.26270484924316 16.3032112121582 15.36092758178711 16.24650382995605 C 15.36483192443848 16.2442512512207 15.36881923675537 16.24194526672363 15.37271881103516 16.23969078063965 C 15.26827049255371 16.17662811279297 15.16415977478027 16.11474418640137 15.06163883209229 16.05501365661621 Z" stroke="none"/>
        <path d="M 15.88989639282227 31.27997207641602 C 17.94757270812988 31.27997207641602 19.98282051086426 31.19038581848145 21.87858772277832 30.38772392272949 C 29.89391708374023 27.00116539001465 33.64637756347656 17.75808525085449 30.25980758666992 9.742734909057617 C 29.03047752380371 6.833054542541504 26.22576713562012 4.165854454040527 23.80294799804688 2.524794578552246 C 21.32708549499512 0.8477949500083923 18.67831230163574 9.204101729665126e-07 15.89707565307617 9.204101729665126e-07 C 13.86803245544434 9.204101729665126e-07 11.76833343505859 0.4513991177082062 9.614597320556641 1.361344575881958 C 3.789647340774536 3.826604604721069 0.0035373754799366 9.536674499511719 -2.624511807880481e-06 15.86199474334717 C -0.004882624372839928 24.56355476379395 7.045047283172607 31.27492523193359 15.74659729003906 31.27983474731445 C 15.79442501068115 31.27992248535156 15.84209060668945 31.27997207641602 15.88989639282227 31.27997207641602 M 6.426267147064209 20.44294548034668 C 6.417892456054688 20.44299125671387 6.409554958343506 20.44301605224609 6.401181697845459 20.44301605224609 C 6.028470993041992 20.44301605224609 5.657464027404785 20.39615440368652 5.296337604522705 20.30354499816895 C 4.973287582397461 20.21923446655273 4.6625075340271 20.09257507324219 4.372527599334717 19.92671394348145 C 3.911007404327393 18.62565422058105 3.42437744140625 16.71214485168457 3.426717281341553 15.33167457580566 C 3.426717281341553 12.10825443267822 4.933637142181396 9.620584487915039 7.213057518005371 7.341194629669189 C 9.492677688598633 5.061984539031982 12.52317714691162 3.806604623794556 15.74659729003906 3.806604623794556 C 18.97002792358398 3.806604623794556 21.9360179901123 5.212034702301025 24.21545791625977 7.49162483215332 C 26.49480819702148 9.771024703979492 27.81490707397461 12.65130424499512 27.81490707397461 15.87473487854004 C 27.81728744506836 17.26852416992188 27.5781078338623 18.65212440490723 27.10770797729492 19.96416473388672 C 26.81423759460449 20.11199378967285 26.5036678314209 20.22355461120605 26.18292808532715 20.29609489440918 C 25.81853294372559 20.37732124328613 25.4461498260498 20.41811561584473 25.07285118103027 20.41811180114746 C 25.06410789489746 20.41811180114746 25.05531311035156 20.41808891296387 25.04656791687012 20.41804504394531 C 25.03217697143555 20.41815567016602 25.01786041259766 20.418212890625 25.00347328186035 20.418212890625 C 24.53975677490234 20.418212890625 24.07780265808105 20.35998153686523 23.62864685058594 20.24511528015137 C 23.24316787719727 20.14473533630371 22.87399673461914 19.98965454101563 22.5324878692627 19.78456497192383 C 21.96565818786621 19.44087409973145 21.49783706665039 18.95739555358887 21.14219665527344 18.34804534912109 C 20.99377822875977 18.09198379516602 20.86787796020508 17.82338523864746 20.76614761352539 17.54556465148926 C 20.67693710327148 17.30322456359863 20.60421752929688 17.05501556396484 20.54813766479492 16.80288505554199 C 20.45556831359863 16.38860511779785 20.42284774780273 16.02766418457031 20.42284774780273 15.8445348739624 C 20.42284774780273 15.7098445892334 20.39011764526367 15.35713481903076 20.26812744140625 14.89011478424072 C 20.20248794555664 14.63876438140869 20.12032699584961 14.39211463928223 20.02250671386719 14.15155506134033 C 19.91032791137695 13.87471485137939 19.77526664733887 13.60787487030029 19.61860656738281 13.35359477996826 C 19.24355697631836 12.74815464019775 18.76496696472168 12.26760482788086 18.19639778137207 11.92567443847656 C 17.85700798034668 11.72294425964355 17.49093818664551 11.56884479522705 17.10883712768555 11.4680643081665 C 16.66884994506836 11.35402584075928 16.21623992919922 11.29618835449219 15.76183986663818 11.29618835449219 C 15.74912452697754 11.29618835449219 15.73639583587646 11.29623413085938 15.72367763519287 11.29632472991943 C 15.71123600006104 11.29623031616211 15.69883823394775 11.29618358612061 15.68639945983887 11.29618358612061 C 15.23251247406006 11.29618358612061 14.78078842163086 11.35892868041992 14.34400749206543 11.48277473449707 C 13.96340751647949 11.59296417236328 13.60149765014648 11.75981426239014 13.27055740356445 11.9774341583252 C 12.71569728851318 12.34426498413086 12.25181770324707 12.85794448852539 11.891676902771 13.50454425811768 C 11.74265766143799 13.77334499359131 11.6152172088623 14.05371475219727 11.51072692871094 14.34290504455566 C 11.42051696777344 14.59112453460693 11.34522724151611 14.84482479095459 11.28523731231689 15.10205459594727 C 11.17506694793701 15.57514476776123 11.15015697479248 15.91394424438477 11.15015697479248 15.9953145980835 C 11.15015697479248 16.08176422119141 11.10622692108154 16.4042854309082 10.97035694122314 16.84934425354004 C 10.8084077835083 17.38204383850098 10.57510757446289 17.89023399353027 10.27692699432373 18.3605842590332 C 9.884977340698242 18.97013473510742 9.401287078857422 19.45480537414551 8.839187622070313 19.80103492736816 C 8.505857467651367 20.00572395324707 8.145747184753418 20.16257476806641 7.769077301025391 20.26727485656738 C 7.341192245483398 20.38402938842773 6.899845123291016 20.44303512573242 6.456457614898682 20.44303512573242 C 6.446411609649658 20.44303512573242 6.436315536499023 20.4430046081543 6.426267147064209 20.44294548034668 M 13.73150730133057 13.69395446777344 C 13.73150730133057 13.69395446777344 14.64953708648682 14.08482456207275 15.74659729003906 14.7182445526123 C 16.84365653991699 15.35167503356934 18.11973762512207 16.22763442993164 18.11973762512207 16.22763442993164 C 18.11973762512207 16.22763442993164 17.20791816711426 16.91218376159668 16.11089706420898 17.54556465148926 C 15.01380729675293 18.17893409729004 13.73150730133057 18.7611255645752 13.73150730133057 18.7611255645752 C 13.73150730133057 18.7611255645752 13.56049728393555 17.49443435668945 13.56049728393555 16.22763442993164 C 13.56049728393555 14.96083450317383 13.73150730133057 13.69395446777344 13.73150730133057 13.69395446777344 M 15.88989734649658 34.27997589111328 L 15.74095726013184 34.27982330322266 C 10.73056697845459 34.27700424194336 6.033447265625 32.39650344848633 2.518807411193848 28.98475456237793 C -1.0428626537323 25.52734375 -3.002812623977661 20.86633491516113 -3.00000262260437 15.86031436920166 C -2.99793267250061 12.16583442687988 -1.9176926612854 8.585484504699707 0.123947374522686 5.506314754486084 C 2.165577411651611 2.427164554595947 5.043067455291748 0.03850463032722473 8.445327758789063 -1.401415348052979 C 10.95655727386475 -2.462395429611206 13.46310710906982 -2.999995470046997 15.8970775604248 -2.999995470046997 C 19.28035736083984 -2.999995470046997 22.50631713867188 -1.976875424385071 25.4853572845459 0.04094463214278221 C 26.99258804321289 1.06184458732605 28.43898773193359 2.294924736022949 29.66818809509277 3.606884717941284 C 31.18611717224121 5.227014541625977 32.31493759155273 6.898594856262207 33.02328872680664 8.575174331665039 C 34.00818634033203 10.9062442779541 34.50708770751953 13.36224460601807 34.50610733032227 15.874924659729 C 34.50516891479492 18.30023384094238 34.04034805297852 20.67373466491699 33.12457656860352 22.92949485778809 C 32.20881652832031 25.18523406982422 30.88762664794922 27.21107482910156 29.19771766662598 28.95072555541992 C 27.44694709777832 30.7530345916748 25.37727737426758 32.16627502441406 23.04617691040039 33.15118408203125 C 20.58631706237793 34.19268417358398 18.0623779296875 34.27997589111328 15.88989734649658 34.27997589111328 Z M 15.74659729003906 6.806604862213135 C 13.32461738586426 6.806604862213135 11.04730701446533 7.749894618988037 9.334187507629395 9.462704658508301 C 7.296297550201416 11.50057506561279 6.426717281341553 13.25583457946777 6.426717281341553 15.33167457580566 C 6.426717281341553 15.33337497711182 6.426717281341553 15.33506488800049 6.426717281341553 15.33676433563232 C 6.425863742828369 15.83883857727051 6.550014972686768 16.60775756835938 6.751218318939209 17.42109870910645 C 6.825425148010254 17.40998649597168 6.89897346496582 17.39467620849609 6.971481800079346 17.37521743774414 C 7.076343059539795 17.34549903869629 7.176516532897949 17.30155944824219 7.269317150115967 17.24456405639648 C 7.440288543701172 17.13925743103027 7.602541923522949 16.97090148925781 7.748335361480713 16.74614143371582 C 7.899494647979736 16.50610542297363 8.017821311950684 16.24729156494141 8.100067138671875 15.97672462463379 C 8.130279541015625 15.877760887146 8.148093223571777 15.80329132080078 8.157642364501953 15.75873565673828 C 8.18035888671875 15.37363719940186 8.253734588623047 14.89262294769287 8.363417625427246 14.42164421081543 C 8.450577735900879 14.04788494110107 8.56077766418457 13.67695426940918 8.691157341003418 13.31819438934326 C 8.848965644836426 12.8823127746582 9.043006896972656 12.45563411712646 9.26790714263916 12.04995441436768 C 9.268867492675781 12.04822444915771 9.269827842712402 12.04649448394775 9.270787239074707 12.04477500915527 C 9.867096900939941 10.97414493560791 10.65616703033447 10.1095142364502 11.6160774230957 9.474894523620605 C 11.61813735961914 9.47353458404541 11.62019729614258 9.472174644470215 11.62225723266602 9.470824241638184 C 12.20502758026123 9.087604522705078 12.84005737304688 8.794994354248047 13.50971698760986 8.601114273071289 C 13.51501750946045 8.599584579467773 13.52030754089355 8.598064422607422 13.5256175994873 8.596564292907715 C 14.22853755950928 8.397244453430176 14.95552730560303 8.296184539794922 15.68639755249023 8.296184539794922 L 15.72398662567139 8.296324729919434 L 15.76183700561523 8.296184539794922 C 16.46938705444336 8.296184539794922 17.17582702636719 8.386294364929199 17.86152648925781 8.564024925231934 C 17.86566734313965 8.565094947814941 17.86979675292969 8.566174507141113 17.87392807006836 8.567264556884766 C 18.5277271270752 8.739705085754395 19.15382766723633 9.003114700317383 19.73483657836914 9.350174903869629 C 19.73739814758301 9.351704597473145 19.73994827270508 9.35323429107666 19.74250793457031 9.354764938354492 C 20.72381782531738 9.944914817810059 21.5401782989502 10.75878429412842 22.1689281463623 11.77375507354736 C 22.17020797729492 11.77583503723145 22.1714973449707 11.77791500091553 22.17277717590332 11.77999496459961 C 22.41641807556152 12.17546463012695 22.62842750549316 12.59430503845215 22.80290794372559 13.02489471435547 C 22.94845771789551 13.38281440734863 23.07268714904785 13.75647449493408 23.17077827453613 14.13208484649658 C 23.32746696472168 14.73193264007568 23.41880989074707 15.34229183197021 23.42271614074707 15.8132381439209 C 23.42606735229492 15.85933589935303 23.44047737121582 15.98999404907227 23.47593688964844 16.14867401123047 C 23.50370788574219 16.27351379394531 23.53899765014648 16.39385414123535 23.58144760131836 16.50919532775879 C 23.58204650878906 16.51080513000488 23.58263778686523 16.51241493225098 23.58322715759277 16.51402473449707 C 23.6243896484375 16.62643432617188 23.67568969726563 16.73615646362305 23.73574638366699 16.84021186828613 C 23.83612251281738 17.01099586486816 23.94966697692871 17.1340217590332 24.08258628845215 17.21603012084961 C 24.1750659942627 17.27087593078613 24.27461814880371 17.31267547607422 24.3786678314209 17.34036064147949 C 24.48112297058105 17.36626625061035 24.58502769470215 17.38576507568359 24.68971061706543 17.39877128601074 C 24.77386474609375 16.89861488342285 24.8157844543457 16.39123725891113 24.81490707397461 15.87985420227051 C 24.81490707397461 15.87815475463867 24.81490707397461 15.87644481658936 24.81490707397461 15.87473487854004 C 24.81490707397461 13.55821418762207 23.87406730651855 11.39291477203369 22.09411811828613 9.612924575805664 C 20.28453826904297 7.803224563598633 18.03029823303223 6.806604862213135 15.74659729003906 6.806604862213135 Z" stroke="none"/>
      </g>
    </g>
  </g>
</svg>
