<svg xmlns="http://www.w3.org/2000/svg" width="128.563" height="150.72" viewBox="0 0 128.563 150.72">
  <g id="Group_138" data-name="Group 138" transform="translate(-754.851 -181.094)">
    <path id="Path_328" data-name="Path 328" d="M3031.391,8640.023c.663,16.579,15.815,24,14.791,31.3s-8.034,62.1-5.559,69.98,6.7,14.271,12.824,6.982,1.421-64.411,1.371-73.354,18.242-18.863,18.351-34.912-5.291-26.736-21.558-26.67S3030.729,8623.444,3031.391,8640.023Z" transform="matrix(0.951, 0.309, -0.309, 0.951, 618.256, -8944.276)" fill="#fff" stroke="#000" stroke-width="5"/>
    <path id="Path_327" data-name="Path 327" d="M3027.107,8619.166s-3.217,29.982,5.182,37.071,13.214.418,12.191,7.721-8.3,68.438-5.821,76.322,6.7,14.271,12.824,6.982.051-74.361,0-83.3,11.382-2.426,15.676-7.721,2.324-40.772,0-45.062-6.781,32.719-11.5,32.719-2.989-29.59-7.384-32.719-4.168,33.994-8.343,32.719-3.386-31.729-7.64-32.719S3027.107,8619.166,3027.107,8619.166Z" transform="translate(-7012.626 -4571.255) rotate(-39)" fill="#fff" stroke="#000" stroke-width="5"/>
  </g>
</svg>
