<svg xmlns="http://www.w3.org/2000/svg" width="87.771" height="159.855" viewBox="0 0 87.771 159.855">
  <g id="Group_147" data-name="Group 147" transform="translate(-450.063 -803.565)">
    <path id="Path_331" data-name="Path 331" d="M2799.616,9225.136c6.708-2.083,60.727-3.558,68.955,0s-1.667,96.932-14.623,96.134-35.287,7.212-42.089,0S2799.616,9225.136,2799.616,9225.136Z" transform="matrix(0.995, -0.105, 0.105, 0.995, -3295.418, -8019.925)" fill="#fff" stroke="#000" stroke-width="5"/>
    <path id="Path_332" data-name="Path 332" d="M2836.865,9285.264s1.7-56,5.156-68.318,14.806-28.422,14.806-28.422-6.014-11.023-8.712-8.779-19.474,33.075-19.67,40.331-2.6,63.224-2.6,63.224Z" transform="matrix(0.995, -0.105, 0.105, 0.995, -3283.773, -8024.165)" fill="#fff" stroke="#000" stroke-linejoin="round" stroke-width="5"/>
    <path id="Path_333" data-name="Path 333" d="M2793.944,9285.934s6.125-7.017,13.4-8.5,12.844,7.932,25.021,8.5,25.8-8.5,25.8-8.5" transform="matrix(0.995, -0.105, 0.105, 0.995, -3283.773, -8024.165)" fill="#fff" stroke="#000" stroke-width="5"/>
  </g>
</svg>
