<svg xmlns="http://www.w3.org/2000/svg" width="104.576" height="105.649" viewBox="0 0 104.576 105.649">
  <g id="Group_169" data-name="Group 169" transform="translate(-385.858 -718.406) rotate(-9)">
    <path id="Union_17" data-name="Union 17" d="M52.223,85.517s-.215-14.3-.226-26.07c-1.742-.071-3.459-.145-5.126-.219-6.918-.308-12.964-.617-16.171-.668.412,12.522.457,24.72-1.1,26.957-3.084,4.421-9.127,0-9.127,0s-.225-15-.226-26.92C11.081,58.6,0,58.555,0,58.555V49.429s9.807.131,20.3.194c.036-1.927.089-3.455.163-4.392.148-1.846.21-6.4.224-11.949-9.239.155-17.026-.08-18.757-1.306-4.353-3.085,0-9.127,0-9.127s9.129-.14,18.738-.2C20.617,11.258,20.469,0,20.469,0H29.6s.058,13.015.04,22.623c5.407.007,10.013.067,11.977.226,1.712.139,5.787.2,10.818.221C52.375,11.537,52.223,0,52.223,0H61.35s.06,13.42.039,23.065c12-.045,24.771-.216,24.771-.216v9.127s-15.278.068-24.788.033c.091,3.692.416,10.083.721,17.2,10.732.043,22.131.217,22.131.217s4.353,6.041,0,9.126c-1.915,1.356-11.234,1.5-21.731,1.245.374,12.077.366,23.554-1.144,25.718a4.337,4.337,0,0,1-3.737,1.965A10.759,10.759,0,0,1,52.223,85.517ZM30.358,49.656c6.534,0,12.109-.058,14.19-.227,1.395-.113,4.121-.176,7.52-.206.035-1.738.086-3.122.155-3.993.159-1.979.219-7.073.227-13.163-3.37.124-8.025.352-13.161.581-3.1.138-6.371.276-9.643.391C29.768,36.912,30.074,42.985,30.358,49.656Z" transform="translate(269.024 786.518)" fill="#fff" stroke="#000" stroke-linejoin="round" stroke-width="5"/>
  </g>
</svg>
