<svg xmlns="http://www.w3.org/2000/svg" width="194.771" height="202.201" viewBox="0 0 194.771 202.201">
  <path id="Path_383" data-name="Path 383" d="M10346.255,1210.847s-16.274,42.37-15.186,60.395,6.448,37.6,6.448,37.6-14.421-18.393-22.561-25.758-44.112-21.651-44.112-21.651,16.433,31.447,31.041,42.926,27.952,15.762,27.952,15.762-18.5-.5-26.619,1.141-25.645,8.063-25.645,8.063,26.021,9.46,37.383,7.382,26.794-7.382,26.794-7.382-11.716,6.4-14.638,12.1-9.442,17.42-9.442,17.42,17.726-6.972,19.847-11.822,6.98-14.291,6.98-14.291-.09,26.367,1.757,29.821,4.134,9.18,4.134,9.18,4.335-.272,4.649-2.779-2.848-1.054-4.649-10.109-2.56-26.113-2.56-26.113a52.128,52.128,0,0,0,8.9,14.291c6.031,6.787,19.3,11.822,19.3,11.822s-4.075-13.122-9.22-17.42-13.065-10.937-13.065-10.937,9.684,4.758,25.581,4.875,35.529-6.037,35.529-6.037-19.115-7.961-29.232-8.063-23.574,0-23.574,0,19.1-7.362,29.38-16.9,29.478-42.926,29.478-42.926-28.218,9.586-41.58,21.651a159.02,159.02,0,0,0-22.592,25.758s6.3-18.514,5.314-37.6S10346.255,1210.847,10346.255,1210.847Z" transform="translate(-10203.632 1711.539) rotate(-16)" fill="#fff" stroke="#000" stroke-linecap="round" stroke-linejoin="round" stroke-width="5"/>
</svg>
