<?xml version="1.0" encoding="utf-8"?>
<!-- Generator: Adobe Illustrator 23.0.6, SVG Export Plug-In . SVG Version: 6.00 Build 0)  -->
<svg version="1.1" id="Layer_1" xmlns="http://www.w3.org/2000/svg" xmlns:xlink="http://www.w3.org/1999/xlink" x="0px" y="0px"
	 viewBox="0 0 137 101.2" style="enable-background:new 0 0 137 101.2;" xml:space="preserve">
<style type="text/css">
	.st0{fill:#FFFFFF;}
	.st1{fill:none;stroke:#000000;stroke-width:5;stroke-linecap:round;stroke-linejoin:round;}
</style>
<g id="Group_49" transform="translate(11.751) rotate(8)">
	<g id="Path_50" transform="translate(0)">
		<path class="st0" d="M3.1,81.9c-0.2-0.2-0.6-0.8-0.6-1.8c0.1-1.1,0.6-14.2,0.6-32c0-18.2-0.6-41.7-0.7-42.8c0-1,0.4-1.7,0.6-1.8
			c0.7,0,19.7-1,49-1c29.1,0,69.1,0.9,71.3,1c0.2,0.2,0.6,0.8,0.6,1.9c0,0.8-0.3,24-0.3,42.2c0,18.1,0.3,31.8,0.3,32.6
			c0,1-0.4,1.6-0.6,1.8c-2.1-0.1-19.3-0.5-47.4-0.5C47.1,81.4,6.1,81.9,3.1,81.9z"/>
		<path d="M52.1,5C27.7,5,10.5,5.6,5,5.9c0.1,4.1,0.6,25.4,0.6,42.2c0,15.9-0.5,28-0.6,31.3c9.1-0.1,45-0.5,71-0.5
			c23.8,0,39.8,0.3,45.4,0.4c-0.1-3.2-0.3-15.8-0.3-31.8c0-16.8,0.3-37.7,0.3-41.6C112.9,5.7,78.1,5,52.1,5 M52.1,0
			c30.2,0,71.4,1,71.4,1c1.6,0,2.9,2,2.9,4.4c0,0-0.3,23.5-0.3,42.2c0,18.7,0.3,32.5,0.3,32.5c0,2.4-1.3,4.4-2.9,4.4
			c0,0-17.4-0.5-47.5-0.5c-30.2,0-73.1,0.5-73.1,0.5c-1.6,0-2.9-2-2.9-4.4c0,0,0.7-13.3,0.7-32C0.7,29.4,0,5.3,0,5.3
			C0,2.9,1.3,1,2.9,1C2.9,1,21.9,0,52.1,0z"/>
	</g>
	<path id="Path_51" class="st1" d="M2.6,8.4c0,0,24.3,20,35.5,30.7s21.2,21.7,21.2,21.7s55.9-51.8,61.9-54.4"/>
</g>
</svg>
