<svg xmlns="http://www.w3.org/2000/svg" width="108.79" height="134.235" viewBox="0 0 108.79 134.235">
  <g id="Group_151" data-name="Group 151" transform="translate(958.675 1358.015) rotate(-161)">
    <path id="Union_12" data-name="Union 12" d="M23.515,111.119v-7.077H47.452v7.077ZM23.485,97.8V90.725H47.421V97.8ZM35.129,84.2a53.9,53.9,0,0,1-9.917-.01c-4-.557-5.859-10.578-7.664-18.6S-1.85,45.239.159,31.45C2.165,17.683,11.784-.213,35.129,0c24.5-.218,32.662,16.913,34.767,30.68C72,44.473,55.478,57.576,53.582,65.594s-3.847,18.039-8.045,18.6a36.4,36.4,0,0,1-4.6.248C38.206,84.437,35.706,84.247,35.129,84.2Z" transform="translate(1240.248 870.602)" fill="#fff" stroke="#000" stroke-linecap="round" stroke-linejoin="round" stroke-width="5"/>
    <path id="Path_351" data-name="Path 351" d="M-3997.5-7082.876s2.33-10.145,0-19.669-4.863-19.494-7.353-23.5-8.833,2.719-6.724,4.957,5.051,3.785,6.724,2.6c.585-.414,15.277-4.25,16.121-7.559s-13.68-1.571-10.719.915,21.556,7.643,22.641,5.512c1.6-3.142-3.2-8.808-6.472-5.512s-5.792,14.656-6.6,18.7c-2.2,10.925-1.372,23.557-1.372,23.557" transform="translate(5269.119 8037.19)" fill="#fff" stroke="#000" stroke-linecap="round" stroke-linejoin="round" stroke-width="3"/>
  </g>
</svg>
