<?xml version="1.0" encoding="utf-8"?>
<!-- Generator: Adobe Illustrator 23.0.6, SVG Export Plug-In . SVG Version: 6.00 Build 0)  -->
<svg version="1.1" id="Layer_1" xmlns="http://www.w3.org/2000/svg" xmlns:xlink="http://www.w3.org/1999/xlink" x="0px" y="0px"
	 viewBox="0 0 138.3 106.5" style="enable-background:new 0 0 138.3 106.5;" xml:space="preserve">
<style type="text/css">
	.st0{fill:#FFFFFF;stroke:#000000;stroke-width:5;stroke-miterlimit:10;}
</style>
<g id="Group_166" transform="translate(-1440.011 -270.426)">
	<g id="Path_384" transform="translate(1463.535 334.345) rotate(-30)">
		<path class="st0" d="M38.9,46.6L15.6,46L2.9,24.6l6.8-11.4l0.1-0.1L9.9,13l5.1-10.5l17.8,0.7l0.2,0l0.2,0l5.6-0.6l11,22
			c-1.2,2.8-4.6,10.5-7.1,15.4C40.9,43.6,39.6,45.6,38.9,46.6z"/>
	</g>
	<g id="Path_386" transform="translate(1508.288 334.345) rotate(-30)">
		<path class="st0" d="M38.9,46.6L15.6,46L2.9,24.6l6.8-11.4l0.1-0.1L9.9,13l5.1-10.5l17.8,0.7l0.2,0l0.2,0l5.6-0.6l11,22
			c-1.2,2.8-4.6,10.5-7.1,15.4C40.9,43.6,39.6,45.6,38.9,46.6z"/>
	</g>
	<g id="Path_385" transform="translate(1440.011 296.674) rotate(-30)">
		<path class="st0" d="M38.9,46.6L15.6,46L2.9,24.6l6.8-11.4l0.1-0.1L9.9,13l5.1-10.5l17.8,0.7l0.2,0l0.2,0l5.6-0.6l11,22
			c-1.2,2.8-4.6,10.5-7.1,15.4C40.9,43.6,39.6,45.6,38.9,46.6z"/>
	</g>
</g>
</svg>
