<?xml version="1.0" encoding="utf-8"?>
<!-- Generator: Adobe Illustrator 23.0.6, SVG Export Plug-In . SVG Version: 6.00 Build 0)  -->
<svg version="1.1" id="Layer_1" xmlns="http://www.w3.org/2000/svg" xmlns:xlink="http://www.w3.org/1999/xlink" x="0px" y="0px"
	 viewBox="0 0 119.2 119.2" style="enable-background:new 0 0 119.2 119.2;" xml:space="preserve">
<style type="text/css">
	.st0{fill:#FFFFFF;stroke:#000000;stroke-width:5;stroke-miterlimit:10;}
</style>
<g id="Union_10" transform="translate(4190.408 1735.939) rotate(-5)">
	<path class="st0" d="M-3958.7-1977.7l-19.8-1.5l-0.3-38.4l0-2.5h-2.5l-0.2,0h-0.2c-19.9,0-33.9,0.2-39.5,0.3l1.5-19.8l38.3-0.3
		l2.5,0l0-2.5l-0.3-37.2c2.5-1,7.8-2.9,12-2.9c1.6,0,4,0.3,6.9,1.7c0.7,0.3,1.3,0.7,1.7,0.9c0,4.6-0.2,20.5-0.3,37.4l0,2.5l2.5,0
		l37-0.3c1,2.5,2.9,7.8,2.9,12c0,3.9-1.7,7.1-2.6,8.6c-4.6,0-20.5-0.2-37.5-0.3l-2.5,0v2.5v0.3
		C-3959.1-1997.2-3958.8-1983.3-3958.7-1977.7z"/>
</g>
</svg>
