<svg xmlns="http://www.w3.org/2000/svg" width="81.482" height="64.925" viewBox="0 0 81.482 64.925">
  <g id="Group_45" data-name="Group 45" transform="translate(2.5 2.5)">
    <path id="Path_48" data-name="Path 48" d="M2138.823,7536.95s-21.041,16.863-20.925,30.473,2.013,27.135,14.253,29.127,18.669-6.116,19.213-11.67-6.151-17.731-12.542-17.457-9.865,3.17-9.865,3.17-2.889-10.222,3.193-15.937a105.785,105.785,0,0,1,13.912-10.637Z" transform="translate(-2117.897 -7536.95)" fill="#fff" stroke="#000" stroke-linecap="round" stroke-linejoin="round" stroke-width="5"/>
    <path id="Path_49" data-name="Path 49" d="M2138.823,7536.95s-21.041,16.863-20.925,30.473,2.013,27.135,14.253,29.127,18.669-6.116,19.213-11.67-6.151-17.731-12.542-17.457-9.865,3.17-9.865,3.17-2.889-10.222,3.193-15.937a105.785,105.785,0,0,1,13.912-10.637Z" transform="translate(-2074.925 -7536.95)" fill="#fff" stroke="#000" stroke-linecap="round" stroke-linejoin="round" stroke-width="5"/>
  </g>
</svg>
