<?xml version="1.0" encoding="utf-8"?>
<!-- Generator: Adobe Illustrator 23.0.6, SVG Export Plug-In . SVG Version: 6.00 Build 0)  -->
<svg version="1.1" id="Layer_1" xmlns="http://www.w3.org/2000/svg" xmlns:xlink="http://www.w3.org/1999/xlink" x="0px" y="0px"
	 viewBox="0 0 134.1 81" style="enable-background:new 0 0 134.1 81;" xml:space="preserve">
<style type="text/css">
	.st0{fill:none;stroke:#000000;stroke-width:5;}
</style>
<g id="Group_167" transform="matrix(1, 0.017, -0.017, 1, -212.399, -214.453)">
	<path id="Path_390" class="st0" d="M220,213.5c0,0,0,13.9,0,16.3s8.8,1,9.4,0s-1.8-8.3,0-8.3s9.7,0,9.7,0s0.8-7.1,0-8
		S220,213.5,220,213.5z"/>
	<path id="Path_392" class="st0" d="M347.7,213.5c0,0,0,13.9,0,16.3s-8.8,1-9.4,0s1.8-8.3,0-8.3s-9.7,0-9.7,0s-0.8-7.1,0-8
		S347.7,213.5,347.7,213.5z"/>
	<path id="Path_391" class="st0" d="M220,286.5c0,0,0-13.9,0-16.3s8.8-1,9.4,0c0.5,1-1.8,8.3,0,8.3c1.8,0,9.7,0,9.7,0s0.8,7.1,0,8
		C238.2,287.5,220,286.5,220,286.5z"/>
	<path id="Path_393" class="st0" d="M347.7,286.5c0,0,0-13.9,0-16.3s-8.8-1-9.4,0c-0.5,1,1.8,8.3,0,8.3c-1.8,0-9.7,0-9.7,0
		s-0.8,7.1,0,8C329.5,287.5,347.7,286.5,347.7,286.5z"/>
	<path id="Path_394" class="st0" d="M255.1,216c1.8-0.2,8,0,8,0s1.7,3.1,0,3.2s-8,0-8,0V216z"/>
	<path id="Path_397" class="st0" d="M255.1,280.4c1.8-0.2,8,0,8,0s1.7,3.1,0,3.2c-1.7,0.1-8,0-8,0V280.4z"/>
	<path id="Path_395" class="st0" d="M279.4,216c1.8-0.2,8,0,8,0s1.7,3.1,0,3.2s-8,0-8,0V216z"/>
	<path id="Path_401" class="st0" d="M344.7,245.4c0.2,1.8,0,8,0,8s-3.1,1.7-3.2,0c-0.1-1.7,0-8,0-8H344.7z"/>
	<path id="Path_398" class="st0" d="M279.4,280.4c1.8-0.2,8,0,8,0s1.7,3.1,0,3.2c-1.7,0.1-8,0-8,0V280.4z"/>
	<path id="Path_400" class="st0" d="M225.7,245.4c0.2,1.8,0,8,0,8s-3.1,1.7-3.2,0c-0.1-1.7,0-8,0-8H225.7z"/>
	<path id="Path_396" class="st0" d="M303.8,216c1.8-0.2,8,0,8,0s1.7,3.1,0,3.2s-8,0-8,0V216z"/>
	<path id="Path_399" class="st0" d="M303.8,280.4c1.8-0.2,8,0,8,0s1.7,3.1,0,3.2c-1.7,0.1-8,0-8,0V280.4z"/>
</g>
</svg>
