<svg xmlns="http://www.w3.org/2000/svg" width="134.053" height="80.99" viewBox="0 0 134.053 80.99">
  <g id="Group_167" data-name="Group 167" transform="matrix(1, 0.017, -0.017, 1, -212.399, -214.453)">
    <path id="Path_390" data-name="Path 390" d="M12199.992,201.535s-.021,13.883,0,16.319,8.84.98,9.355,0-1.795-8.341,0-8.343,9.7,0,9.7,0,.846-7.051,0-7.977S12199.992,201.535,12199.992,201.535Z" transform="translate(-11980 12)" fill="none" stroke="#de4a3f" stroke-width="5"/>
    <path id="Path_392" data-name="Path 392" d="M12219.417,201.535s.021,13.883,0,16.319-8.841.98-9.356,0,1.795-8.341,0-8.343-9.7,0-9.7,0-.846-7.051,0-7.977S12219.417,201.535,12219.417,201.535Z" transform="translate(-11871.743 12)" fill="none" stroke="#de4a3f" stroke-width="5"/>
    <path id="Path_391" data-name="Path 391" d="M12199.992,218.777s-.021-13.883,0-16.319,8.84-.98,9.355,0-1.795,8.341,0,8.343,9.7,0,9.7,0,.846,7.051,0,7.977S12199.992,218.777,12199.992,218.777Z" transform="translate(-11980 67.752)" fill="none" stroke="#de4a3f" stroke-width="5"/>
    <path id="Path_393" data-name="Path 393" d="M12219.417,218.777s.021-13.883,0-16.319-8.841-.98-9.356,0,1.795,8.341,0,8.343-9.7,0-9.7,0-.846,7.051,0,7.977S12219.417,218.777,12219.417,218.777Z" transform="translate(-11871.743 67.752)" fill="none" stroke="#de4a3f" stroke-width="5"/>
    <path id="Path_394" data-name="Path 394" d="M12264.838,205.105c1.794-.153,8.044,0,8.044,0s1.743,3.119,0,3.246-8.044,0-8.044,0Z" transform="translate(-12009.75 10.86)" fill="none" stroke="#de4a3f" stroke-width="5"/>
    <path id="Path_397" data-name="Path 397" d="M12264.838,205.105c1.794-.153,8.044,0,8.044,0s1.743,3.119,0,3.246-8.044,0-8.044,0Z" transform="translate(-12009.75 75.272)" fill="none" stroke="#de4a3f" stroke-width="5"/>
    <path id="Path_395" data-name="Path 395" d="M12264.838,205.105c1.794-.153,8.044,0,8.044,0s1.743,3.119,0,3.246-8.044,0-8.044,0Z" transform="translate(-11985.392 10.86)" fill="none" stroke="#de4a3f" stroke-width="5"/>
    <path id="Path_401" data-name="Path 401" d="M0,.068c1.794-.153,8.044,0,8.044,0s1.743,3.119,0,3.246S0,3.314,0,3.314Z" transform="translate(344.811 245.378) rotate(90)" fill="none" stroke="#de4a3f" stroke-width="5"/>
    <path id="Path_398" data-name="Path 398" d="M12264.838,205.105c1.794-.153,8.044,0,8.044,0s1.743,3.119,0,3.246-8.044,0-8.044,0Z" transform="translate(-11985.392 75.272)" fill="none" stroke="#de4a3f" stroke-width="5"/>
    <path id="Path_400" data-name="Path 400" d="M0,.068c1.794-.153,8.044,0,8.044,0s1.743,3.119,0,3.246S0,3.314,0,3.314Z" transform="translate(225.729 245.378) rotate(90)" fill="none" stroke="#de4a3f" stroke-width="5"/>
    <path id="Path_396" data-name="Path 396" d="M12264.838,205.105c1.794-.153,8.044,0,8.044,0s1.743,3.119,0,3.246-8.044,0-8.044,0Z" transform="translate(-11961.034 10.86)" fill="none" stroke="#de4a3f" stroke-width="5"/>
    <path id="Path_399" data-name="Path 399" d="M12264.838,205.105c1.794-.153,8.044,0,8.044,0s1.743,3.119,0,3.246-8.044,0-8.044,0Z" transform="translate(-11961.034 75.272)" fill="none" stroke="#de4a3f" stroke-width="5"/>
  </g>
</svg>
