<?xml version="1.0" encoding="utf-8"?>
<!-- Generator: Adobe Illustrator 25.1.0, SVG Export Plug-In . SVG Version: 6.00 Build 0)  -->
<svg version="1.1" id="Layer_1" xmlns="http://www.w3.org/2000/svg" xmlns:xlink="http://www.w3.org/1999/xlink" x="0px" y="0px"
	 viewBox="0 0 315 160" style="enable-background:new 0 0 315 160;" xml:space="preserve">
<style type="text/css">
	.st0{fill:#FFFFFF;}
	.st1{fill:none;stroke:#000000;stroke-width:2;}
	.st2{fill:#FFFFFF;stroke:#000000;stroke-width:2;stroke-linecap:round;stroke-linejoin:round;}
	.st3{fill:#FFFFFF;stroke:#000000;stroke-width:2;}
	.st4{fill:none;stroke:#000000;stroke-width:2;stroke-linecap:round;}
	.st5{fill:none;stroke:#000000;stroke-width:2;stroke-linecap:round;stroke-linejoin:round;}
</style>
<g id="privacy-policy" transform="translate(-22.952 -113)">
	<g id="Group_552" transform="translate(119.604 110)">
		<g id="Rectangle_1066" transform="translate(2.396 3)">
			<path class="st0" d="M8.5,0h105c4.4,0,8,3.6,8,8v142c0,4.4-3.6,8-8,8H8.5c-4.4,0-8-3.6-8-8V8C0.5,3.6,4.1,0,8.5,0z"/>
			<path class="st1" d="M8.5,1h105c3.9,0,7,3.1,7,7v142c0,3.9-3.1,7-7,7H8.5c-3.9,0-7-3.1-7-7V8C1.5,4.1,4.6,1,8.5,1z"/>
		</g>
		<g id="Rectangle_1065" transform="translate(8.396 10)">
			<path class="st0" d="M4.5,0h101c2.2,0,4,1.8,4,4v123c0,2.2-1.8,4-4,4H4.5c-2.2,0-4-1.8-4-4V4C0.5,1.8,2.3,0,4.5,0z"/>
			<path class="st1" d="M4.5,1h101c1.7,0,3,1.3,3,3v123c0,1.7-1.3,3-3,3H4.5c-1.7,0-3-1.3-3-3V4C1.5,2.3,2.8,1,4.5,1z"/>
		</g>
		<circle id="Ellipse_43" class="st2" cx="63.5" cy="150.8" r="4"/>
		<g id="Group_550" transform="translate(25.915 42.279)">
			<path id="Rectangle_1068" class="st3" d="M3,0.7h17c1.1,0,2,0.9,2,2v16c0,1.1-0.9,2-2,2H3c-1.1,0-2-0.9-2-2v-16
				C1,1.6,1.9,0.7,3,0.7z"/>
			<line id="Line_4" class="st4" x1="20.7" y1="20.2" x2="2.1" y2="1.6"/>
			<path id="Path_560" class="st4" d="M2.1,20.2c0,0,2.8-3.5,7.5-8.1S20.7,1.6,20.7,1.6"/>
		</g>
		<g id="Group_551" transform="translate(26.006 77.678)">
			<path id="Path_1138" class="st5" d="M27.2,1.3c3.7,5,5.7,2.7,5.7,2.7l2.5-4c0,0,0.8,3.7,3.4,4s2.5-4,4.5-2.7s1.7,2.4,4.8,2.7
				s2-2.5,5.4-1.4c2.5,0.7,5,1.2,7.6,1.4"/>
			<path id="Path_1139" class="st5" d="M0.6,4.3c4.2-0.9,4.2-3.2,4.2-3.2C5,2.8,6.3,4.1,8,4.3c3.1,0.5,3.7-1.8,3.7-1.8l4.5,1.8"/>
			<path id="Path_1140" class="st4" d="M45.8,30.3c3.4,0,8-0.5,6.1-2.9s-4,0.8-2.8,1.8s4.4,1.5,7.2,1.3"/>
			<path id="Path_1141" class="st5" d="M36.6,29.7c-1.4,0.7-5.4,0.2-8.2-0.3s-4.3-2-5.3-1.2s2.8,1.8-2.2,2.4s-3.6-4.7-3.6-4.7
				s-2.2,5.4-7.5,4.7s-4.6-3.2-4.6-3.2s-0.8,2.7-4.6,3.2"/>
			<path id="Path_1142" class="st5" d="M73.9,17c-1.7,0.7-6.7,0.2-10.1-0.3s-5.3-2-6.5-1.2s3.4,1.8-2.7,2.4s-4.5-4.7-4.5-4.7
				c-1.8,3.3-5.5,5.2-9.3,4.7c-6.6-0.6-5.7-3.2-5.7-3.2s-0.9,2.7-5.7,3.2"/>
			<path id="Path_1143" class="st5" d="M18.9,18c-4.9-0.9-9.2-3.3-4.9-3.2s0,2.7-3.6,3.2s-4.3-1.8-4.3-1.8S4.6,18.3,0.9,18"/>
		</g>
	</g>
	<path id="Path_1026" class="st4" d="M24.5,271.4c28.1,1.4,137.1-1.4,156.5,0s116.6,0,155.5,0"/>
	<g id="Group_553" transform="translate(63.025 262.253)">
		<path id="Path_1146" class="st2" d="M1.8,0.5c1.4-0.2,74,0,74,0l12.5,4.2L75.8,8.5c0,0-71.9,0.5-74,0S0.4,0.7,1.8,0.5z"/>
		<path id="Path_1147" class="st1" d="M75.6,0.4c-0.2,1.3-0.3,2.6-0.4,3.9c0,1.3,0.1,2.7,0.4,4"/>
		<line id="Line_21" class="st1" x1="6" y1="0" x2="6" y2="9"/>
	</g>
	<path id="Path_1149" class="st2" d="M230.8,231c0,0-0.2-8.6,0-11.9s4.4-11.6,12.6-11.1s12.2,8.5,12.1,11.1s0,11.9,0,11.9h-7.4
		v-11.9c0-1.8-2.4-4.1-5.1-4.1s-4.9,3.6-4.9,4.9v11.1L230.8,231z"/>
	<path id="Rectangle_1067" class="st2" d="M221.5,228h42c2.2,0,4,1.8,4,4v36c0,2.2-1.8,4-4,4h-42c-2.2,0-4-1.8-4-4v-36
		C217.5,229.8,219.3,228,221.5,228z"/>
	<path id="Union_52" class="st2" d="M239.2,261l2-10.4c-2.2-0.8-3.7-2.8-3.7-5.1c0-3,2.5-5.5,5.5-5.5c3,0,5.5,2.4,5.5,5.5l0,0
		c0,2.3-1.5,4.4-3.7,5.1l2,10.4H239.2z"/>
</g>
</svg>
