<svg xmlns="http://www.w3.org/2000/svg" width="28" height="28" viewBox="0 0 28 28">
  <path id="Social_Media_icon" data-name="Social Media icon" d="M16.481,25.358s-.066-3.058-.088-6.118l-1.679-.03c-2.5-.046-4.7-.093-5.665-.084a47.57,47.57,0,0,1-.142,6.232c-.372,1.232-3.855,0-3.855,0s-.067-3.12-.089-6.211C2.5,19.144,0,19.128,0,19.128V15.141s2.275.044,4.971.073c.014-.807.04-1.448.08-1.8.064-.568.09-2,.094-3.733A22.947,22.947,0,0,1,.584,9.471c-1.2-.494,0-3.987,0-3.987s2.088-.046,4.543-.075C5.1,2.527,5.051,0,5.051,0H8.907s.019,2.8.02,5.386c1.639,0,3.036.029,3.63.1s2.152.1,4,.1C16.53,2.63,16.481,0,16.481,0h3.855s.02,2.927.02,5.564C23.335,5.536,26,5.484,26,5.484V9.471s-2.915.017-5.665.019c.011,1.176.074,3.274.132,5.571,2.626.029,4.949.08,4.949.08s.937,3.591,0,3.988a30.248,30.248,0,0,1-4.864.163,32.777,32.777,0,0,1-.217,6.067c-.18.482-.669.642-1.24.642A8.093,8.093,0,0,1,16.481,25.358ZM13.442,15.141c.512-.06,1.619-.088,2.962-.1.015-.727.039-1.3.077-1.633.067-.59.092-2.116.095-3.936l-.311,0c-.845-.016-2.96.044-5.375.1-.647.016-1.314.032-1.986.046.007,1.227.049,3.335.089,5.619C11.036,15.241,12.8,15.217,13.442,15.141Z" transform="translate(1 1)" fill="#fff" stroke="#000" stroke-linecap="round" stroke-linejoin="round" stroke-width="2"/>
</svg>
