<svg xmlns="http://www.w3.org/2000/svg" width="32.032" height="26.401" viewBox="0 0 32.032 26.401">
  <g id="Video_icon" data-name="Video icon" transform="translate(1 1)">
    <path id="Path_906" data-name="Path 906" d="M.421-7.934l4.437-2.113a.421.421,0,0,1,.421.421l.189,7.37a.421.421,0,0,1-.421.421L.421-3.938A.421.421,0,0,1,0-4.359V-7.513A.421.421,0,0,1,.421-7.934Z" transform="translate(24.565 22.568)" fill="#fff" stroke="#000" stroke-linecap="round" stroke-linejoin="round" stroke-width="2"/>
    <path id="Path_907" data-name="Path 907" d="M1.144-.79S6.088-1,11.082-1,21.12-.79,21.12-.79A1.472,1.472,0,0,1,22.592.682,36.37,36.37,0,0,1,22.8,5.89c-.067,3.207-.21,7.2-.21,7.2a1.472,1.472,0,0,1-1.472,1.472s-5.3.21-10.293.21-9.683-.21-9.683-.21A1.472,1.472,0,0,1-.328,13.089a48.248,48.248,0,0,0,0-5.843,63.38,63.38,0,0,1,0-6.563A1.472,1.472,0,0,1,1.144-.79Z" transform="translate(2.712 9.63)" fill="#fff" stroke="#000" stroke-linecap="round" stroke-linejoin="round" stroke-width="2"/>
    <path id="Path_908" data-name="Path 908" d="M2.752-5.561,1.06-6.046a.16.16,0,0,0-.16.16v2.047a.16.16,0,0,0,.16.16l1.692-.359a.16.16,0,0,0,.16-.16V-5.4A.16.16,0,0,0,2.752-5.561Z" transform="translate(-0.899 17.876)" fill="#fff" stroke="#000" stroke-linecap="round" stroke-linejoin="round" stroke-width="2"/>
    <path id="Path_714" data-name="Path 714" d="M4.388,0A4.159,4.159,0,0,1,8.708,4.32,4.393,4.393,0,0,1,4.388,8.54,4.109,4.109,0,0,1,.078,4.464,4.144,4.144,0,0,1,4.388,0Z" transform="translate(4.452 0.045)" fill="#fff" stroke="#000" stroke-linecap="round" stroke-linejoin="round" stroke-width="2"/>
    <path id="Path_715" data-name="Path 715" d="M4.321,0A4.159,4.159,0,0,0,0,4.321,4.393,4.393,0,0,0,4.321,8.54,4.109,4.109,0,0,0,8.63,4.465,4.144,4.144,0,0,0,4.321,0Z" transform="translate(23.499 0) rotate(90)" fill="#fff" stroke="#000" stroke-linecap="round" stroke-linejoin="round" stroke-width="2"/>
  </g>
</svg>
