<?xml version="1.0" encoding="utf-8"?>
<!-- Generator: Adobe Illustrator 23.0.6, SVG Export Plug-In . SVG Version: 6.00 Build 0)  -->
<svg version="1.1" id="Layer_1" xmlns="http://www.w3.org/2000/svg" xmlns:xlink="http://www.w3.org/1999/xlink" x="0px" y="0px"
	 viewBox="0 0 153.1 166.1" style="enable-background:new 0 0 153.1 166.1;" xml:space="preserve">
<style type="text/css">
	.st0{fill:none;stroke:#000000;stroke-width:5;stroke-linecap:round;stroke-linejoin:round;}
	.st1{fill:#FFFFFF;stroke:#000000;stroke-width:5;stroke-miterlimit:10;}
</style>
<g id="Group_126" transform="translate(0 2.492)">
	<g id="Group_122" transform="translate(0)">
		<path id="Path_51" class="st0" d="M4.7,63.5c0,0,29.4-24.2,43-37.2S73.3,0,73.3,0s67.7,62.7,74.9,65.8"/>
		<g id="Path_316" transform="translate(4.67 32.236) rotate(-11)">
			<path class="st1" d="M3,79.3c-0.2-0.2-0.5-0.8-0.5-1.7c0-1.1,0.6-13.8,0.6-31C3.1,29,2.5,6.2,2.5,5.1c0-0.9,0.3-1.5,0.5-1.7
				c1.2-0.1,19.3-0.9,47.2-0.9c27.9,0,66.1,0.9,68.6,0.9c0.2,0.2,0.5,0.8,0.5,1.7c0,0.8-0.3,23.2-0.3,40.9c0,17.5,0.3,30.8,0.3,31.6
				c0,0.9-0.3,1.5-0.5,1.7c-2.2-0.1-18.7-0.5-45.6-0.5C45.5,78.9,6.2,79.3,3,79.3z"/>
		</g>
		<g id="Path_50" transform="translate(0 63.361)">
			<path class="st1" d="M3.6,97.7c-0.3-0.1-1-1-1.1-2.7c0.1-1.2,0.8-17.1,0.8-38.8c0-22-0.8-50.6-0.8-51.8c0-1.7,0.8-2.7,1.1-2.8
				h0.1l0.1,0c0.2,0,23.4-1.2,59.4-1.2c36.1,0,85.9,1.2,86.4,1.2l0,0h0c0.3,0.1,1,1,1.1,2.8c0,0.9-0.4,29-0.4,51.1
				c0,21.9,0.4,38.6,0.4,39.4c0,1.7-0.8,2.7-1,2.8c-1.4,0-22.5-0.6-57.5-0.6C56.3,97.1,5.2,97.7,3.6,97.7z"/>
		</g>
	</g>
</g>
</svg>
