<?xml version="1.0" encoding="utf-8"?>
<!-- Generator: Adobe Illustrator 23.0.6, SVG Export Plug-In . SVG Version: 6.00 Build 0)  -->
<svg version="1.1" id="Group_127" xmlns="http://www.w3.org/2000/svg" xmlns:xlink="http://www.w3.org/1999/xlink" x="0px" y="0px"
	 viewBox="0 0 242.7 160.8" style="enable-background:new 0 0 242.7 160.8;" xml:space="preserve">
<style type="text/css">
	.st0{fill:#FFFFFF;stroke:#000000;stroke-width:5;stroke-miterlimit:10;}
	.st1{fill:#FFFFFF;stroke:#000000;stroke-width:5;stroke-linecap:round;stroke-linejoin:round;}
</style>
<g id="Group_49" transform="translate(0)">
	<g id="Path_316" transform="translate(0 23.236) rotate(-11)">
		<path class="st0" d="M3.4,137.7c-0.3-0.6-0.9-2.2-0.9-4.7c0-1,0.6-23,0.6-53.1c0-30.4-0.6-69.9-0.6-71c0-2.6,0.6-4.2,0.9-4.8
			c2.8-0.2,20.4-1.6,46.7-1.6c26.9,0,63.5,1.4,68.2,1.6c0.3,0.6,0.9,2.2,0.9,4.8c0,0.8-0.3,39.6-0.3,70.1c0,30.3,0.3,53.2,0.3,54
			c0,2.5-0.5,4.1-0.9,4.7c-3.4-0.1-19.7-0.8-45.2-0.8C46.4,136.9,8.7,137.6,3.4,137.7z"/>
	</g>
</g>
<g id="Group_124" transform="translate(96.282 72.512) rotate(-16)">
	<path id="Path_319" class="st1" d="M24.9,0.2L0,9l24.9,13.3c0,0,61.4-0.8,71.9-0.8s45.9,0.8,45.9,0.8l0-22c0,0-29.4,1.5-58.9,1.5
		S24.9,0.2,24.9,0.2z"/>
	<path id="Path_320" class="st1" d="M124.5,0c0.8,4.8,1.3,9.7,1.5,14.6c0,5.6-1.5,7.7-1.5,7.7"/>
</g>
</svg>
