<svg xmlns="http://www.w3.org/2000/svg" xmlns:xlink="http://www.w3.org/1999/xlink" width="314.049" height="91.539" viewBox="0 0 314.049 91.539">
  <defs>
    <clipPath id="clip-path">
      <path id="phone_photo_mask" data-name="phone photo mask" d="M27.365,57.521c-2.03,0-4.143-.032-6.28-.1C13.9,57.21,4.9,56.751,4.811,56.746a4.35,4.35,0,0,1-2.857-1.392A4.8,4.8,0,0,1,.476,51.993C.471,51.822,0,34.686,0,18.755,0,13.356.053,7.046.158,0H37.5c.11,7.479.166,14.065.166,19.576,0,15.932-.47,32.253-.475,32.416a6.032,6.032,0,0,1-1.466,3.7,4.171,4.171,0,0,1-2.844,1.732C32.862,57.426,30.821,57.521,27.365,57.521Z" transform="translate(0 0)" fill="#fff" stroke="#000" stroke-linejoin="round" stroke-width="2"/>
    </clipPath>
  </defs>
  <g id="Websites_and_Social_Media" data-name="Websites and Social Media" transform="translate(-35.058 -1670.249)">
    <path id="ground" d="M-9352.049-10960.2c28.067,1.391,137.105-1.39,156.539,0s116.595,0,155.461,0" transform="translate(9388.155 12720.413)" fill="none" stroke="#000" stroke-linecap="round" stroke-width="2"/>
    <g id="laptop" transform="translate(92.142 1671.249)">
      <g id="laptop_upper" data-name="laptop upper" transform="translate(4.333)">
        <path id="laptop_upper_body" data-name="laptop upper body" d="M8.161-1l111.184.421A10.108,10.108,0,0,1,129.453,9.529s.887,16.5.445,33.232-.445,30.784-.445,30.784a10.108,10.108,0,0,1-10.108,10.108H8.582A10.108,10.108,0,0,1-1.525,73.544s-.995-15.762-1.1-31.871.679-32.566.679-32.566A10.108,10.108,0,0,1,8.161-1Z" transform="translate(2.635 1)" fill="#fff" stroke="#000" stroke-linejoin="round" stroke-width="2"/>
        <path id="laptop_screen" data-name="laptop screen" d="M4.993-.613l109.877.131c3.793,0,5.872,1.833,5.872,5.5,0,0,.828,16.461.416,30.232s-.416,27.872-.416,27.872a5.767,5.767,0,0,1-5.872,5.959L3.808,68.909c-3.114,0-5.1-1.9-5.1-5.256,0,0-1.229-16.038-1.327-29.3S-1.752,4.5-1.752,4.5C-1.661,1.855-.221-.613,4.993-.613Z" transform="translate(7.008 8.139)" fill="#fff" stroke="#000" stroke-linejoin="round" stroke-width="2"/>
        <g id="laptop_window" data-name="laptop window" transform="translate(15.702 18.169)">
          <path id="laptop_window_outline" data-name="laptop window outline" d="M-.118-1.131s21.141-.31,41.686-.31,40.5.31,40.5.31A1.07,1.07,0,0,1,83.129-.056s.619,9.525.254,20.8-.467,24.783-.467,24.783a1.07,1.07,0,0,1-1.065,1.075s-19.791.359-40.283.413-41.686-.2-41.686-.2a1.07,1.07,0,0,1-1.065-1.075s-.32-6.027-.32-17.478.32-28.324.32-28.324A1.07,1.07,0,0,1-.118-1.131Z" transform="translate(1.502 1.441)" fill="#fff" stroke="#000" stroke-linejoin="round" stroke-width="2"/>
          <path id="laptop_window_line" data-name="laptop window line" d="M19.884,25.852s32.2-.261,42.131,0,42.869,0,42.869,0" transform="translate(-19.884 -15.957)" fill="none" stroke="#000" stroke-linejoin="round" stroke-width="2"/>
          <ellipse id="laptop_window_button_L" data-name="laptop window button L" cx="1.495" cy="1.495" rx="1.495" ry="1.495" transform="translate(8.295 3.63) rotate(90)" fill="#fff" stroke="#000" stroke-linejoin="round" stroke-width="2"/>
          <ellipse id="laptop_window_button_C" data-name="laptop window button C" cx="1.495" cy="1.495" rx="1.495" ry="1.495" transform="translate(15.349 3.63) rotate(90)" fill="#fff" stroke="#000" stroke-linejoin="round" stroke-width="2"/>
          <ellipse id="laptop_window_button_R" data-name="laptop window button R" cx="1.495" cy="1.495" rx="1.495" ry="1.495" transform="translate(22.402 3.63) rotate(90)" fill="#fff" stroke="#000" stroke-linejoin="round" stroke-width="2"/>
        </g>
        <g id="laptop_text" data-name="laptop text" transform="translate(25.604 43.341)">
          <path id="laptop_text_bottom" data-name="laptop text bottom" d="M-1.179-1.42s4.936-.02,9.734-.02,9.456.02,9.456.02c.137,0,.249.032.249.071A4.5,4.5,0,0,1,18.319.019c-.085.742-.109,1.631-.109,1.631,0,.039-.111.071-.249.071,0,0-4.621.024-9.406.027s-9.734-.013-9.734-.013c-.137,0-.249-.032-.249-.071A6.913,6.913,0,0,1-1.5.514c0-.753.075-1.864.075-1.864C-1.427-1.389-1.316-1.42-1.179-1.42Z" transform="translate(1.502 7.486)" fill="#fff" stroke="#000" stroke-linejoin="round" stroke-width="2"/>
          <path id="laptop_text_top" data-name="laptop text top" d="M-1.065-1.42s6.67-.02,13.152-.02,12.776.02,12.776.02c.185,0,.336.032.336.071a3.365,3.365,0,0,1,.08,1.369c-.115.742-.147,1.631-.147,1.631,0,.039-.15.071-.336.071,0,0-6.244.024-12.709.027S-1.065,1.735-1.065,1.735c-.185,0-.336-.032-.336-.071A5.163,5.163,0,0,1-1.5.514c0-.753.1-1.864.1-1.864C-1.4-1.389-1.251-1.42-1.065-1.42Z" transform="translate(1.502 1.441)" fill="#fff" stroke="#000" stroke-linejoin="round" stroke-width="2"/>
        </g>
        <g id="laptop_image" data-name="laptop image" transform="translate(66.916 37.192)">
          <path id="Path_1041" data-name="Path 1041" d="M-1.174-1.316s5.01-.124,9.879-.124,9.6.124,9.6.124c.139,0,.252.193.252.432,0,0,.147,3.827.06,8.357s-.111,9.956-.111,9.956c0,.239-.113.432-.252.432,0,0-4.69.144-9.546.166s-9.879-.079-9.879-.079c-.139,0-.252-.193-.252-.432,0,0-.076-2.421-.076-7.021S-1.426-.884-1.426-.884C-1.426-1.123-1.313-1.316-1.174-1.316Z" transform="translate(1.502 1.543)" fill="#fff" stroke="#000" stroke-linejoin="round" stroke-width="2"/>
          <path id="Path_1042" data-name="Path 1042" d="M70.711,56.482,90.546,37.17" transform="translate(-70.711 -36.909)" fill="none" stroke="#000" stroke-width="2"/>
          <path id="Path_1043" data-name="Path 1043" d="M0,19.312,19.835,0" transform="translate(19.573) rotate(90)" fill="none" stroke="#000" stroke-width="2"/>
        </g>
        <path id="laptop_mouse" data-name="laptop mouse" d="M5.742,18.366c-.218.194-.423.384-.612.57A12.311,12.311,0,0,1,.107,22.213S.347,12.2.107,9.658.107,0,.107,0,4.18,3.175,7.7,6.3s6.478,6.212,6.478,6.212S11.536,14.069,8.927,15.9l5.911,9.33L11.5,27.454Z" transform="translate(96.312 38.191)" fill="#fff" stroke="#000" stroke-linecap="round" stroke-linejoin="round" stroke-width="2"/>
      </g>
      <path id="laptop_base" data-name="laptop base" d="M25.356,4.678c-10.2,0-18.555-.014-20.381-.062C-.349,4.476,0,0,0,0L49.852.124c8.5-.008,17.643-.01,25.743,0C99.026.165,141.7,0,141.7,0s.353,4.476-4.971,4.616c-2.38.062-24.544.421-53.73.421C60.856,5.037,36.043,4.795,25.356,4.678Z" transform="translate(0 82.211)" fill="#fff" stroke="#000" stroke-linejoin="round" stroke-width="2"/>
    </g>
    <g id="phone" transform="translate(247.868 1674.838)">
      <path id="phone_body" data-name="phone body" d="M7.547.593S23.573,0,41.8,0,76.269.7,76.269.7a8.372,8.372,0,0,1,8.3,8.329s.245,1.363,0,10.409S84.324,32,84.049,35.843s-1.83,8.237-8.512,8.054c0,0-16.444.592-34.669.592S8.176,44.08,8.176,44.08A7.9,7.9,0,0,1,.161,36.392a121.346,121.346,0,0,1,0-13.132c.361-8.544-.144-11.534,0-15.491S3.8.425,7.547.593Z" transform="translate(44.49 0) rotate(90)" fill="#fff" stroke="#000" stroke-linejoin="round" stroke-width="2"/>
      <g id="phone_screen" data-name="phone screen" transform="translate(3.312 2.819)">
        <path id="phone_screen_outline" data-name="phone screen outline" d="M4.894.475S24.888,0,41.015,0,73.432.475,73.432.475c2.625,0,5.432,2.472,5.432,4.31,0,0,.217,4.549,0,11.8s-.679,16.274-.679,16.274a4.976,4.976,0,0,1-4.753,4.335s-17.111.475-33.238.475-35.3-.475-35.3-.475A4.976,4.976,0,0,1,.14,32.856S.023,31.527,0,27.847c0-.738,3.742-.678,3.757-1.919.013-1.117.053-4.74.129-6.374.091-1.951.13-6.011.14-8.383,0-.378-3.744-.979-3.747-1.672C.263,5.856.14,4.81.14,4.81A4.976,4.976,0,0,1,4.894.475Z" transform="translate(37.667 0) rotate(90)" fill="#fff" stroke="#000" stroke-linejoin="round" stroke-width="2"/>
        <path id="phone_grid_top" data-name="phone grid top" d="M3.288,24.841c4.8-.2,15.857,0,21.085,0s14.277.2,16.287,0" transform="translate(-3.287 -3.439)" fill="none" stroke="#000" stroke-linejoin="round" stroke-width="2"/>
        <ellipse id="phone_circle" data-name="phone circle" cx="3.416" cy="3.416" rx="3.416" ry="3.416" transform="translate(5.803 8.632)" fill="#fff" stroke="#000" stroke-linejoin="round" stroke-width="2"/>
        <path id="phone_text" data-name="phone text" d="M-9352.048-10960.271c1.237.472,4.643-.288,5.767,0s4.294,0,5.727,0" transform="translate(9371.452 10972.447)" fill="none" stroke="#000" stroke-linecap="round" stroke-linejoin="round" stroke-width="2"/>
        <g id="phone_photo_mask-2" data-name="phone photo mask" transform="translate(0 21.439)" clip-path="url(#clip-path)">
          <g id="phone_photo_grid" data-name="phone photo grid" transform="translate(0.001 0.422)">
            <g id="phone_photo_grid_horizontals" data-name="phone photo grid horizontals" transform="translate(0 10.731)">
              <path id="photo_grid_bottom5" data-name="photo grid bottom5" d="M3.288,24.841c4.8-.2,15.857,0,21.085,0s14.277.2,16.287,0" transform="translate(-3.288 -24.752)" fill="none" stroke="#000" stroke-linejoin="round" stroke-width="2"/>
              <path id="photo_grid_bottom2" data-name="photo grid bottom2" d="M3.288,24.841c4.8-.2,15.857,0,21.085,0s14.277.2,16.287,0" transform="translate(-3.288 13.09)" fill="none" stroke="#000" stroke-linejoin="round" stroke-width="2"/>
              <path id="photo_grid_bottom4" data-name="photo grid bottom4" d="M3.288,24.841c4.8-.2,15.857,0,21.085,0s14.277.2,16.287,0" transform="translate(-3.288 -12.245)" fill="none" stroke="#000" stroke-linejoin="round" stroke-width="2"/>
              <path id="photo_grid_bottom1" data-name="photo grid bottom1" d="M3.288,24.841c4.8-.2,15.857,0,21.085,0s14.277.2,16.287,0" transform="translate(-3.288 25.598)" fill="none" stroke="#000" stroke-linejoin="round" stroke-width="2"/>
              <path id="photo_grid_bottom3" data-name="photo grid bottom3" d="M3.288,24.841c4.8-.2,15.857,0,21.085,0s14.277.2,16.287,0" transform="translate(-3.288 0.262)" fill="none" stroke="#000" stroke-linejoin="round" stroke-width="2"/>
              <path id="photo_grid_bottom" data-name="photo grid bottom" d="M3.288,24.841c4.8-.2,15.857,0,21.085,0s14.277.2,16.287,0" transform="translate(-3.288 38.105)" fill="none" stroke="#000" stroke-linejoin="round" stroke-width="2"/>
            </g>
            <path id="phone_photo_grid_vertical" data-name="phone photo grid vertical" d="M0,.089c7.331-.2,24.227,0,32.215,0s21.813.2,24.884,0" transform="translate(12.271) rotate(90)" fill="none" stroke="#000" stroke-linejoin="round" stroke-width="2"/>
            <path id="phone_photo_grid_vertical-2" data-name="phone photo grid vertical" d="M0,.089c7.331-.2,24.227,0,32.215,0s21.813.2,24.884,0" transform="translate(26.363) rotate(90)" fill="none" stroke="#000" stroke-linejoin="round" stroke-width="2"/>
          </g>
        </g>
      </g>
    </g>
  </g>
</svg>
