<svg xmlns="http://www.w3.org/2000/svg" width="90" height="90" viewBox="0 0 90 90">
  <g id="Button_90px" data-name="Button 90px" transform="translate(-0.932 0.014)" fill="rgba(255,255,255,0.75)">
    <path d="M 45.45069885253906 88.48577880859375 C 39.42245101928711 88.48577880859375 33.65404891967773 87.33634185791016 28.30574989318848 85.06940460205078 C 23.16768836975098 82.89157104492188 18.58605003356934 79.76017761230469 14.68809986114502 75.76219177246094 C 10.81980037689209 71.79461669921875 7.791325092315674 67.14646911621094 5.686800003051758 61.94685363769531 C 3.526862382888794 56.61034393310547 2.431687355041504 50.90811538696289 2.431687355041504 44.99856567382813 C 2.431687355041504 39.24065399169922 3.706074953079224 33.60014343261719 6.219449996948242 28.23371696472168 C 8.575775146484375 23.20260429382324 11.91849994659424 18.60444259643555 16.15478706359863 14.56694221496582 C 20.19495010375977 10.71635437011719 24.99146270751953 7.493367195129395 30.02577590942383 5.246392250061035 C 32.54493713378906 4.122017383575439 35.13098907470703 3.234179735183716 37.71207427978516 2.60755467414856 C 40.32851409912109 1.972354769706726 42.95048904418945 1.603204727172852 45.50517654418945 1.510379791259766 C 45.95447540283203 1.494054794311523 46.41217422485352 1.485767245292664 46.86557388305664 1.485767245292664 C 51.86793899536133 1.485767245292664 57.14698791503906 2.501167297363281 62.13202667236328 4.422179698944092 C 67.12169647216797 6.344979763031006 71.8629150390625 9.192691802978516 75.84308624267578 12.65742969512939 C 80.04108428955078 16.31179237365723 83.34915161132813 20.54904174804688 85.67536163330078 25.25145530700684 C 88.16786193847656 30.29004287719727 89.43167114257813 35.68734359741211 89.43167114257813 41.29344177246094 C 89.43167114257813 53.045166015625 84.7745361328125 64.94881439208984 76.65441131591797 73.95215606689453 C 72.58425903320313 78.46500396728516 67.8831787109375 82.02037048339844 62.68173599243164 84.51950836181641 C 57.2041130065918 87.15132904052734 51.4067497253418 88.48577880859375 45.45069885253906 88.48577880859375 Z" stroke="none"/>
    <path d="M 46.86556243896484 2.985763549804688 C 46.43046188354492 2.985763549804688 45.99107360839844 2.993705749511719 45.55964660644531 3.009376525878906 C 40.68716049194336 3.186447143554688 35.52703094482422 4.433647155761719 30.63713073730469 6.616157531738281 C 25.75737762451172 8.794143676757813 21.1072998046875 11.91896057128906 17.18965911865234 15.65277099609375 C 13.08872985839844 19.56125640869141 9.854843139648438 24.00816345214844 7.577835083007813 28.86993026733398 C 5.158416748046875 34.03573226928711 3.931678771972656 39.46218872070313 3.931678771972656 44.99857330322266 C 3.931678771972656 50.71433258056641 4.989990234375 56.22721862792969 7.077217102050781 61.38407516479492 C 9.108345031738281 66.40235900878906 12.03037261962891 70.88754272460938 15.76210021972656 74.71504211425781 C 19.52023315429688 78.56961822509766 23.93747711181641 81.58867645263672 28.89111709594727 83.68833160400391 C 34.05323028564453 85.87635803222656 39.62467575073242 86.98577117919922 45.45070266723633 86.98577117919922 C 51.18004608154297 86.98577117919922 56.75884628295898 85.70110321044922 62.03211975097656 83.16745758056641 C 67.05681610107422 80.75324249267578 71.60169982910156 77.31477355957031 75.54051971435547 72.94753265380859 C 83.41527557373047 64.21626281738281 87.93167114257813 52.67878723144531 87.93167114257813 41.2934455871582 C 87.93167114257813 35.92007446289063 86.72019195556641 30.74654769897461 84.33086395263672 25.91654586791992 C 82.09298706054688 21.39271545410156 78.90592956542969 17.31236267089844 74.85820007324219 13.78880310058594 C 71.00830078125 10.43747711181641 66.421142578125 7.682533264160156 61.59263229370117 5.821846008300781 C 56.77791595458984 3.966461181640625 51.68539047241211 2.985763549804688 46.86556243896484 2.985763549804688 M 46.86555862426758 -0.0142364501953125 C 68.01042175292969 -0.0142364501953125 90.93167114257813 16.9906005859375 90.93167114257813 41.2934455871582 C 90.93167114257813 66.13920593261719 70.98964691162109 89.98577117919922 45.45070266723633 89.98577117919922 C 19.91175842285156 89.98577117919922 0.9316787719726563 69.84431457519531 0.9316787719726563 44.99857330322266 C 0.9316787719726563 20.15283203125 23.92727661132813 0.793487548828125 45.45070266723633 0.01136016845703125 C 45.92100524902344 -0.00572967529296875 46.39320755004883 -0.0142364501953125 46.86555862426758 -0.0142364501953125 Z" stroke="none" fill="#de4a3f"/>
  </g>
</svg>
