<?xml version="1.0" encoding="utf-8"?>
<!-- Generator: Adobe Illustrator 23.0.6, SVG Export Plug-In . SVG Version: 6.00 Build 0)  -->
<svg version="1.1" id="Layer_1" xmlns="http://www.w3.org/2000/svg" xmlns:xlink="http://www.w3.org/1999/xlink" x="0px" y="0px"
	 viewBox="0 0 153.1 166.1" style="enable-background:new 0 0 153.1 166.1;" xml:space="preserve">
<style type="text/css">
	.st0{fill:#FFFFFF;stroke:#000000;stroke-width:5;stroke-miterlimit:10;}
</style>
<g id="Group_126" transform="translate(0 2.492)">
	<g id="Group_122" transform="translate(0)">
		<g id="Path_316" transform="translate(4.67 32.236) rotate(-11)">
			<path class="st0" d="M2.6,126.4c-0.2-0.2-0.5-0.8-0.5-1.7c0-1.1,1-60.8,1-78.1C3.1,29,2.5,6.2,2.5,5.1c0-0.9,0.3-1.5,0.5-1.7
				c1.2-0.1,19.3-0.9,47.2-0.9c27.9,0,66.1,0.9,68.6,0.9c0.2,0.2,0.5,0.8,0.5,1.7c0,0.8-0.3,23.2-0.3,40.9c0,17.5-0.1,77.9-0.1,78.6
				c0,0.9-0.3,1.5-0.5,1.7c-2.2-0.1-18.7-0.5-45.6-0.5C45.1,125.9,5.8,126.4,2.6,126.4z"/>
		</g>
	</g>
</g>
</svg>
